<svg xmlns="http://www.w3.org/2000/svg" xmlns:xlink="http://www.w3.org/1999/xlink" id="Layer_1" x="0px" y="0px" viewBox="0 0 250 250" style="enable-background:new 0 0 250 250;" xml:space="preserve"><style type="text/css">	.st0{fill:#661311;}	.st1{fill:#F07043;}	.st2{fill:#B4887C;}	.st3{fill:#FFFFFF;}	.st4{fill:none;stroke:#661311;stroke-width:6.3152;stroke-linecap:round;stroke-linejoin:round;stroke-miterlimit:10;}</style><g>	<g>		<g>			<circle class="st1" cx="37.08" cy="208.54" r="21.52"></circle>		</g>		<g>			<path class="st1" d="M214.26,202.43v-4.23v-0.04c-6.72,7.81-14.41,14.69-22.98,20.53c-1.27,0.86-2.54,1.69-3.83,2.51    c-1.75,1.09-3.51,2.14-5.29,3.12c-0.45,0.26-0.91,0.5-1.36,0.74c-1.01,0.54-2.03,1.07-3.06,1.58c-0.01,0.01-0.04,0.03-0.06,0.04    c-13.82,6.87-28.84,10.96-44.15,12.09c-1.08,0.07-2.16,0.14-3.24,0.18c-0.63,0.04-1.25,0.06-1.88,0.07    c-2.26,0.07-4.52,0.06-6.78,0c-0.63-0.03-1.25-0.05-1.88-0.07c-1.08-0.04-2.16-0.1-3.24-0.18c-15.31-1.13-30.33-5.22-44.15-12.09    c-0.03-0.03-0.05-0.04-0.06-0.04c-1.03-0.5-2.05-1.04-3.06-1.58l-1.36-0.74c-1.78-1-3.55-2.03-5.29-3.12    c-1.29-0.81-2.57-1.65-3.83-2.51c-8.57-5.83-16.27-12.71-22.98-20.53v0.04v4.23c0,1.41-0.3,2.76-0.8,4.01    c1.52,1.62,3.1,3.19,4.69,4.72c0.1,0.09,0.2,0.17,0.28,0.26c1.39,1.31,2.8,2.59,4.25,3.83c0.65,0.55,1.3,1.11,1.96,1.65    c0.76,0.64,1.54,1.27,2.32,1.88c0.06,0.05,0.12,0.1,0.18,0.15c0.06,0.05,0.12,0.1,0.18,0.14c0.76,0.6,1.52,1.19,2.31,1.76    c0.09,0.07,0.18,0.15,0.27,0.21c0.42,0.31,0.84,0.63,1.27,0.93c0.86,0.61,1.73,1.22,2.6,1.82c0.64,0.43,1.28,0.86,1.92,1.28    c0.7,0.47,1.4,0.91,2.11,1.35c0.6,0.38,1.2,0.75,1.81,1.11c1.18,0.71,2.37,1.39,3.56,2.06c0.54,0.3,1.09,0.6,1.65,0.9    c1.03,0.55,2.06,1.09,3.11,1.61c0.03,0.01,0.05,0.03,0.06,0.04c15.94,8.01,33.03,12.27,50.11,12.97    c0.63,0.03,1.24,0.05,1.85,0.06c0.54,0.03,1.07,0.04,1.6,0.04c1.3,0.04,2.6,0.04,3.91,0c0.53,0,1.06-0.01,1.6-0.04    c0.61-0.01,1.23-0.04,1.85-0.06c17.05-0.7,34.14-4.95,50.07-12.95c0.03-0.01,0.04-0.01,0.06-0.04c1.04-0.52,2.08-1.06,3.11-1.61    c0.04-0.01,0.07-0.03,0.11-0.06c0.53-0.28,1.06-0.58,1.57-0.86c1.12-0.61,2.22-1.25,3.33-1.92c0.69-0.42,1.36-0.82,2.04-1.25    c0.68-0.42,1.35-0.85,2.03-1.29c0.66-0.44,1.34-0.88,2-1.34c7.43-5.05,14.21-10.86,20.33-17.33    C214.55,205.2,214.26,203.85,214.26,202.43z"></path>		</g>		<g>			<circle class="st1" cx="212.92" cy="208.54" r="21.52"></circle>		</g>	</g>	<g>		<path class="st0" d="M236.41,116.2c0,22.22-6.51,42.92-17.73,60.3c-1.87-0.36-3.8-0.53-5.76-0.53   c-17.97,0-32.58,14.62-32.58,32.58c0,1.42,0.09,2.83,0.28,4.2c-16.36,9.45-35.37,14.85-55.62,14.85   c-20.27,0-39.25-5.44-55.62-14.91c0.2-1.35,0.28-2.74,0.28-4.14c0-17.96-14.61-32.58-32.58-32.58c-1.95,0-3.88,0.17-5.74,0.52   c-11.22-17.38-17.75-38.07-17.75-60.29C13.59,54.68,63.48,4.79,125,4.79C186.53,4.79,236.41,54.68,236.41,116.2z"></path>		<g>			<g>				<path class="st2" d="M143.48,115.45c-2.14-11.24-13.19-19-24.36-18.51c-10.54,0.46-23.27,8.12-23.88,19.28     c-1.68,6.25-0.29,13.55,3.26,18.79c6.21,9.17,19.11,11.6,28.92,7.5C137.75,138.19,145.67,126.91,143.48,115.45z M109.41,130.01     c0.51-0.74,0.85-1.66,0.94-2.74c0.53-0.84,0.82-1.81,0.71-2.84c-0.13-1.19-0.35-2.58-0.46-4.01l0.01-0.33     c0.01-0.44-0.02-0.86-0.08-1.25c-0.01-1.71,0.24-3.37,1.07-4.67c2.01-3.15,5.86-0.33,7.78,1.58c0.61,0.61,3.5,5.11,5,7     c-0.56,0.52-1.13,1.04-1.71,1.54c-0.56,0.46-1.7,1.4-2.54,2.01c-2.84,0.23-5.37,2.71-5.94,5.43c-1.46-0.27-2.91-0.75-4.29-1.45     C109.72,130.19,109.57,130.09,109.41,130.01z"></path>				<path class="st2" d="M86.3,120.19c-0.05-4.17-0.38-8.4-0.94-12.54c-0.5-3.67-0.95-7.95-3.23-10.98c-0.56-0.74-1.64-0.88-2.18,0     c-1.87,3.05-2.06,6.95-2.5,10.44c-0.55,4.33-0.97,8.72-1.26,13.08c-0.58,8.67-1.77,17.47-1.85,26.15c-0.07,7.38,10.44,7,11.22,0     C86.5,137.78,86.4,128.8,86.3,120.19z"></path>				<path class="st2" d="M154.89,121.16c-0.29-8.18-1.1-17.83-4.59-25.3c-0.54-1.15-2.18-0.7-2.52,0.33     c-2.55,7.75-2.84,16.88-3.61,24.97c-0.42,4.38-0.91,8.74-1.4,13.11c-0.47,4.22-1.89,8.83-0.57,12.95     c1.5,4.65,7.82,5.66,10.43,1.36c2.4-3.95,2.02-8.99,2.23-13.49C155.08,130.45,155.06,125.8,154.89,121.16z"></path>				<path class="st2" d="M177.3,101.03c-2.74,0.97-3.52,5.33-4.56,7.75c-1.36,3.15-3.05,6.25-4.3,9.46     c-1.05-8.7-2.25-17.38-3.54-26.05c-0.8-5.36-9.81-4.12-9.48,1.28c0.68,11.07,2.62,44.3,2.92,49.85     c0.11,2.11,0.79,5.14,0.16,7.25c-0.18,0.09-0.47,0.19-0.93,0.27c-0.81,0.13-1.59,0.38-2.41,0.49     c-10.56,1.4-21.48,1.71-32.12,2.21c-5.46,0.26-10.93,0.09-16.38,0.32c-5.2,0.22-10.97-0.02-15.89,1.83     c-1.31,0.49-1.45,2-0.37,2.81c4.68,3.52,11.6,4.93,17.28,5.84c6.42,1.03,12.96,1.75,19.45,2.11c6.27,0.36,12.58,0.49,18.85,0.11     c5.62-0.34,11.99-0.55,17.24-2.79c5.17-2.21,8.5-6.87,8.56-12.58c0.07-6.41-1.21-13.12-1.85-19.5     c-0.21-2.07-0.44-4.13-0.67-6.19c0.61,0.37,1.2,0.51,2.07,0.59c1.37,0.13,2.79-0.86,3.46-1.98c2.75-4.65,3.71-10.63,4.01-15.97     C178.82,107.7,179.45,100.27,177.3,101.03z"></path>				<path class="st2" d="M175.16,89.97c-0.76-2.44-1.59-4.96-2.88-7.18c-0.45-0.78-1.72-0.64-1.95,0.25     c-0.62,2.49-0.72,5.13-0.78,7.68c-0.06,2.65-0.06,5.2,1.83,7.21c1.07,1.14,3.23,0.92,3.97-0.51     C176.63,94.94,175.96,92.54,175.16,89.97z"></path>				<path class="st2" d="M161.88,87.54c-2.34-3.29-5.1-2.78-8.86-2.79c-3.7-0.01-18.48,0.31-22.18,0.38     c-4.4,0.09-9.49,0.43-13.79-0.54c-0.95-0.22-1.29,1.11-0.4,1.45c4.1,1.55,7.58,3.1,11.96,3.89c3.63,0.65,7.28,1.07,10.94,1.45     c3.96,0.41,7.92,0.86,11.88,1.21c3.57,0.32,7.4,1.53,9.99-1.51C162.2,90.16,162.66,88.64,161.88,87.54z"></path>			</g>			<g>				<g>					<path class="st3" d="M160.85,159.2c-0.01,0-0.02,0-0.03,0c-32.96-0.86-52.37-0.96-88.74-0.95c-0.26,0-0.52-0.11-0.7-0.3      c-0.19-0.19-0.28-0.45-0.28-0.71c0.82-27.28,1.08-43.33,0.59-72.07c0-0.27,0.1-0.53,0.29-0.71c0.19-0.19,0.44-0.29,0.72-0.28      l87.45,2.69c0.26,0.01,0.51,0.12,0.69,0.32c0.18,0.19,0.27,0.45,0.26,0.71c-1.04,22.85-0.51,37.09,0.24,56.81      c0.16,4.21,0.33,8.66,0.49,13.48c0.01,0.27-0.09,0.53-0.28,0.72C161.36,159.1,161.11,159.2,160.85,159.2z M73.09,156.3      c35.38,0,54.69,0.09,86.74,0.92c-0.15-4.42-0.31-8.53-0.45-12.43c-0.73-19.48-1.27-33.63-0.28-55.98l-85.43-2.62      C74.12,113.96,73.87,129.91,73.09,156.3z"></path>				</g>				<g>					<path class="st3" d="M170.31,145.46c-0.01,0-0.02,0-0.02,0l-9.97-0.25c-0.54-0.01-0.97-0.46-0.95-1.01      c0.01-0.53,0.45-0.95,0.98-0.95c0.01,0,0.02,0,0.02,0l8.96,0.22c-0.03-14.99-0.19-26.18-0.35-38.02      c-0.11-7.38-0.21-15.12-0.3-24.34l-78-2.4c-0.06,2.42-0.11,4.74-0.16,6.98c-0.01,0.53-0.45,0.96-0.98,0.96c0,0-0.01,0-0.02,0      c-0.54-0.01-0.97-0.46-0.96-1c0.05-2.54,0.11-5.19,0.19-7.98c0.01-0.26,0.12-0.51,0.31-0.69c0.19-0.18,0.42-0.26,0.7-0.27      l79.92,2.46c0.52,0.02,0.95,0.44,0.95,0.97c0.09,9.64,0.2,17.65,0.31,25.28c0.17,12.11,0.33,23.54,0.36,39.05      c0,0.26-0.11,0.52-0.3,0.7C170.81,145.36,170.57,145.46,170.31,145.46z"></path>				</g>				<g>					<path class="st3" d="M170.09,116.75c-0.12,0-0.25-0.02-0.37-0.07c-0.5-0.2-0.75-0.77-0.55-1.27c2.06-5.14,4.26-10.59,6.78-16.8      l-6.56-2.98c-0.49-0.22-0.71-0.81-0.49-1.3c0.23-0.49,0.8-0.71,1.3-0.49l7.42,3.37c0.48,0.22,0.7,0.77,0.5,1.26      c-2.67,6.57-4.98,12.29-7.13,17.66C170.85,116.52,170.48,116.75,170.09,116.75z"></path>				</g>				<g>					<path class="st3" d="M135.37,80.09c-0.14,0-0.27-0.03-0.41-0.09l-26.64-12.09c-1.69,3.77-3.23,7.27-4.68,10.59      c-0.22,0.5-0.79,0.72-1.29,0.5c-0.5-0.22-0.72-0.8-0.5-1.29c1.57-3.59,3.25-7.38,5.09-11.5c0.11-0.24,0.3-0.42,0.55-0.52      c0.24-0.09,0.51-0.08,0.75,0.02l27.53,12.49c0.49,0.22,0.71,0.81,0.49,1.3C136.1,79.88,135.74,80.09,135.37,80.09z"></path>				</g>				<g>					<path class="st3" d="M116.26,147.56c-12.63,0-25.69-10.05-25.69-26.88c0-11.65,9.2-24.03,26.25-24.03      c2.42,0,4.85,0.27,7.23,0.8c6.34,1.41,11.9,5.42,15.25,11.01c2.15,3.59,3.15,7.47,3.15,12.23      C142.45,133.9,132.66,147.56,116.26,147.56z M116.82,98.61c-15.77,0-24.29,11.37-24.29,22.07c0,15.6,12.06,24.92,23.73,24.92      c15.17,0,24.23-12.67,24.23-24.91c0-4.44-0.89-7.9-2.88-11.22c-3.08-5.13-8.18-8.82-14-10.11l0,0      C121.39,98.86,119.1,98.61,116.82,98.61z"></path>				</g>				<g>					<path class="st3" d="M111.76,130.52c-0.16,0-0.32-0.04-0.47-0.12c-0.31-0.17-0.5-0.5-0.5-0.85l0-0.9c0-2.91,0.06-5.8,0.12-8.7      c0.05-2.29,0.09-4.59,0.11-6.9c0-0.37,0.22-0.71,0.55-0.87c0.33-0.16,0.73-0.12,1.03,0.11c1.6,1.23,7.25,5.51,12.76,8.7      c0.3,0.18,0.49,0.5,0.49,0.85s-0.19,0.67-0.49,0.85l-2.04,1.18c-3.63,2.09-7.39,4.26-11.03,6.53      C112.13,130.47,111.94,130.52,111.76,130.52z M112.95,115c-0.02,1.66-0.06,3.32-0.09,4.98c-0.05,2.6-0.11,5.2-0.12,7.8      c3.19-1.95,6.43-3.82,9.58-5.64l0.59-0.34C118.99,119.41,115.18,116.67,112.95,115z"></path>				</g>				<g>					<path class="st3" d="M81.45,98.64c-0.86,0-1.81-0.65-1.81-1.58c0-0.49,0.52-1.7,1.5-1.7c0.26,0,0.49,0.1,0.67,0.26      c0.96,0.25,1.13,1.04,1.13,1.55C82.93,98.03,82.31,98.64,81.45,98.64z"></path>				</g>				<g>					<path class="st3" d="M80.55,109.92c-0.88,0-1.56-0.73-1.56-1.67c0-0.37,0.11-0.72,0.31-1.02c0.26-0.39,0.74-0.54,1.16-0.37      c0.15-0.09,0.32-0.14,0.5-0.14c0.74,0,1.28,0.57,1.28,1.37C82.25,109.12,81.5,109.92,80.55,109.92z"></path>				</g>				<g>					<path class="st3" d="M81.22,122.44c-0.88,0-1.71-0.68-1.71-1.55c0-0.55,0.37-1.31,1.04-1.5c0.29-0.28,0.72-0.36,1.11-0.17      c0.72,0.36,1.09,1.05,0.97,1.79c-0.12,0.73-0.7,1.33-1.39,1.43C81.23,122.44,81.23,122.44,81.22,122.44z M80.89,121.3      C80.89,121.3,80.89,121.3,80.89,121.3C80.89,121.3,80.89,121.3,80.89,121.3z"></path>				</g>				<g>					<path class="st3" d="M81.26,134.34c-0.5,0-0.9-0.12-1.2-0.36c-0.35-0.27-0.54-0.67-0.54-1.1c0-0.5,0.27-0.94,0.67-1.16      c0.15-0.29,0.44-0.48,0.79-0.48c1.56,0,1.64,1.13,1.64,1.36c0,0.1-0.06,0.44-0.09,0.53c0,0.48-0.38,0.78-0.55,0.91      C81.79,134.23,81.52,134.34,81.26,134.34z"></path>				</g>				<g>					<path class="st3" d="M80.48,146.5c-0.82,0-1.52-0.51-1.7-1.25c-0.14-0.62,0.11-1.22,0.64-1.57c0.07-0.46,0.4-0.81,0.88-0.81      c1.44,0,1.95,0.96,1.95,1.78c0,0.8-0.64,1.62-1.43,1.82C80.74,146.48,80.56,146.5,80.48,146.5z"></path>				</g>				<g>					<path class="st3" d="M149.55,99.35c-1.08,0-1.81-0.73-1.81-1.81c0-0.36,0.09-0.68,0.28-0.96c0.12-0.18,0.28-0.3,0.47-0.38      c0.15-0.1,0.33-0.15,0.53-0.15h0.11c0.79,0,1.39,0.16,1.71,0.94c0.11,0.16,0.22,0.52,0.22,0.71      C151.07,98.39,150.49,99.35,149.55,99.35z"></path>				</g>				<g>					<path class="st3" d="M149.85,110.15c-1.18,0-1.71-0.76-1.71-1.52c0-0.96,0.66-1.71,1.51-1.71c0.18,0,0.35,0.05,0.5,0.14      c0.97,0.1,1.42,0.79,1.42,1.43C151.57,109.45,150.85,110.15,149.85,110.15z"></path>				</g>				<g>					<path class="st3" d="M149.69,121.61c-0.98,0-1.77-0.74-1.77-1.65c0-0.64,0.62-1.46,1.28-1.68c0.38-0.13,0.78-0.01,1.04,0.27      c0.01,0,0.03,0,0.04,0.01c0.62,0.15,1.01,0.66,1.01,1.27C151.29,121.14,150.46,121.61,149.69,121.61z"></path>				</g>				<g>					<path class="st3" d="M150.08,131.96c-0.92,0-1.67-0.73-1.67-1.64c0-0.47,0.14-0.85,0.41-1.12c0.27-0.27,0.58-0.35,0.81-0.37      c0.16-0.08,0.33-0.13,0.47-0.13c0.8,0,1.62,0.51,1.62,1.38C151.72,131.38,150.9,131.96,150.08,131.96z M150.08,130      c-0.13,0-0.3,0.13-0.33,0.23c0.01,0.19,0.25,0.41,0.34,0.43l0.01-0.67C150.09,130,150.08,130,150.08,130z"></path>				</g>				<g>					<path class="st3" d="M149.77,144.3c-0.91,0-1.64-0.76-1.64-1.69c0-0.82,0.56-1.96,1.6-1.96c0.37,0,0.68,0.2,0.85,0.5      c0.52,0.27,0.87,0.87,0.87,1.6c0,0.92-0.73,1.54-1.41,1.54L149.77,144.3z"></path>				</g>			</g>		</g>	</g></g></svg>