<svg xmlns="http://www.w3.org/2000/svg" xmlns:xlink="http://www.w3.org/1999/xlink" id="Layer_1" x="0px" y="0px" viewBox="0 0 250 250" style="enable-background:new 0 0 250 250;" xml:space="preserve"><style type="text/css">	.st0{fill:#661311;}	.st1{fill:#F07043;}	.st2{fill:#B4887C;}	.st3{fill:#FFFFFF;}	.st4{fill:none;stroke:#661311;stroke-width:6.3152;stroke-linecap:round;stroke-linejoin:round;stroke-miterlimit:10;}</style><g>	<g>		<g>			<circle class="st1" cx="37.08" cy="208.43" r="21.52"></circle>		</g>		<g>			<path class="st1" d="M214.26,202.33v-4.23v-0.04c-6.72,7.81-14.41,14.69-22.98,20.53c-1.27,0.86-2.54,1.69-3.83,2.51    c-1.75,1.09-3.51,2.14-5.29,3.12c-0.45,0.26-0.91,0.5-1.36,0.74c-1.01,0.54-2.03,1.07-3.06,1.58c-0.01,0.01-0.04,0.03-0.06,0.04    c-13.82,6.87-28.84,10.96-44.15,12.09c-1.08,0.07-2.16,0.14-3.24,0.18c-0.63,0.04-1.25,0.06-1.88,0.07    c-2.26,0.07-4.52,0.06-6.78,0c-0.63-0.03-1.25-0.05-1.88-0.07c-1.08-0.04-2.16-0.1-3.24-0.18c-15.31-1.13-30.33-5.22-44.15-12.09    c-0.03-0.03-0.05-0.04-0.06-0.04c-1.03-0.5-2.05-1.04-3.06-1.58l-1.36-0.74c-1.78-1-3.55-2.03-5.29-3.12    c-1.29-0.81-2.57-1.65-3.83-2.51c-8.57-5.83-16.27-12.71-22.98-20.53v0.04v4.23c0,1.41-0.3,2.76-0.8,4.01    c1.52,1.62,3.1,3.19,4.69,4.72c0.1,0.09,0.2,0.17,0.28,0.26c1.39,1.31,2.8,2.59,4.25,3.83c0.65,0.55,1.3,1.11,1.96,1.65    c0.76,0.64,1.54,1.27,2.32,1.88c0.06,0.05,0.12,0.1,0.18,0.15c0.06,0.05,0.12,0.1,0.18,0.14c0.76,0.6,1.52,1.19,2.31,1.76    c0.09,0.07,0.18,0.15,0.27,0.21c0.42,0.31,0.84,0.63,1.27,0.93c0.86,0.61,1.73,1.22,2.6,1.82c0.64,0.43,1.28,0.86,1.92,1.28    c0.7,0.47,1.4,0.91,2.11,1.35c0.6,0.38,1.2,0.75,1.81,1.11c1.18,0.71,2.37,1.39,3.56,2.06c0.54,0.3,1.09,0.6,1.65,0.9    c1.03,0.55,2.06,1.09,3.11,1.61c0.03,0.01,0.05,0.03,0.06,0.04c15.94,8.01,33.03,12.27,50.11,12.97    c0.63,0.03,1.24,0.05,1.85,0.06c0.54,0.03,1.07,0.04,1.6,0.04c1.3,0.04,2.6,0.04,3.91,0c0.53,0,1.06-0.01,1.6-0.04    c0.61-0.01,1.23-0.04,1.85-0.06c17.05-0.7,34.14-4.95,50.07-12.95c0.03-0.01,0.04-0.01,0.06-0.04c1.04-0.52,2.08-1.06,3.11-1.61    c0.04-0.01,0.07-0.03,0.11-0.06c0.53-0.28,1.06-0.58,1.57-0.86c1.12-0.61,2.22-1.25,3.33-1.92c0.69-0.42,1.36-0.82,2.04-1.25    c0.68-0.42,1.35-0.85,2.03-1.29c0.66-0.44,1.34-0.88,2-1.34c7.43-5.05,14.21-10.86,20.33-17.33    C214.55,205.09,214.26,203.74,214.26,202.33z"></path>		</g>		<g>			<circle class="st1" cx="212.92" cy="208.43" r="21.52"></circle>		</g>	</g>	<g>		<path class="st0" d="M236.41,116.3c0,22.22-6.51,42.92-17.73,60.3c-1.87-0.36-3.8-0.53-5.76-0.53   c-17.97,0-32.58,14.62-32.58,32.58c0,1.42,0.09,2.83,0.28,4.2c-16.36,9.45-35.37,14.85-55.62,14.85   c-20.27,0-39.25-5.44-55.62-14.91c0.2-1.35,0.28-2.74,0.28-4.14c0-17.96-14.61-32.58-32.58-32.58c-1.95,0-3.88,0.17-5.74,0.52   c-11.22-17.38-17.75-38.07-17.75-60.29C13.59,54.78,63.48,4.9,125,4.9C186.53,4.9,236.41,54.78,236.41,116.3z"></path>		<g>			<g>				<path class="st2" d="M104.66,107.78c-0.5-0.37-1.09-0.41-1.68-0.45c-0.81-0.06-1.59,0.3-2.18,0.84c-0.27-1.02-0.84-1.88-1.6-2.5     c-0.41-1.65-1.5-3.09-3.25-3.63c-2.77-0.85-5.08,0.44-6.42,2.51c-0.98,0.94-1.65,2.28-1.72,3.55c-0.07,1.18,0.3,2.32,0.96,3.25     c0.11,0.28,0.25,0.56,0.41,0.82c0.41,0.67,0.93,1.22,1.53,1.66c-2.34,0.85-2.88,4.31,0.09,5.39c5.89,2.16,13.87-1.32,15.4-7.68     C106.56,109.97,105.89,108.69,104.66,107.78z"></path>				<path class="st2" d="M175.53,131.89c-1.33-7.35-7.93-10.75-12.61-15.75c-1-1.07-1.9-2.33-2.3-3.68     c-0.54-1.81-0.6-3.65-0.57-5.52c0.07-4.29,0.74-10.09-2.98-13.09c1.13-2.53,1.32-5.85,1-8.25c-0.58-4.43-2.42-10.6-6.66-12.98     c-0.39-2.5-2.53-3.82-4.94-2.72c-0.27,0.12-0.52,0.29-0.75,0.46c-1.31,0.25-2.47,1.28-2.62,3.1c-0.22,2.85-0.42,5.53-1.27,8.29     c-0.86,2.79-2.19,5.39-3.88,7.77c-1.8,2.54-4.24,4.51-6.11,6.99c-0.79,1.05-1.53,2.36-1.93,3.72c-0.02,0-0.04,0-0.08,0.01     c-0.03,0-0.22,0.01-0.35,0.02l-0.05-0.02c-0.13-0.04-0.25-0.08-0.38-0.11c-0.04-0.01-0.07-0.01-0.1-0.02     c-0.16-0.08-0.88-0.43-0.41-0.19c-1.62-0.82-3.51,0.53-3.07,2.36c0.3,1.23,1.22,2.27,2.35,2.81c0.9,0.43,2.09,0.73,3.13,0.54     l0.02,0.01c-1.06,0.7-1.64,1.97-1.54,3.19c-0.29,0.81-0.71,1.6-1.04,2.37c-0.59,1.36-4.17,9.49-5.4,12.18     c-2.5,5.49-5.07,10.94-7.72,16.35c-2.55,5.2-5.04,10.46-7.82,15.54c-1.21,2.22-2.56,4.38-4.51,6.04     c-1.81,1.53-4.19,2.35-6.46,2.93c-2.38,0.61-2.01,3.71,0,4.47c6.2,2.35,12.11-3.17,15.32-7.94c1.59-2.36,3.02-4.87,4.35-7.43     c0.44,0.18,0.91,0.27,1.38,0.28c0.03,1.09,0.81,2.25,1.82,2.63c3.35,1.27,7.51-0.62,9.62-3.31c2.19-2.78,3.68-7.59,0.98-10.49     c-1.24-1.33-3.87-1.1-4.7,0.61c-0.31,0.64-0.46,1.32-0.57,2c-0.18-1.42-1-2.33-2.08-2.78c-0.18-0.27-0.38-0.51-0.61-0.73     c2.68-5.42,5.29-10.88,7.82-16.38c1.41-3.07,4.19-9.3,4.2-9.33c2.47-0.05,5-1.49,7.12-2.64c2.31-1.27,4.55-2.9,6.48-4.69     c1.79-1.66,3.36-3.6,4.74-5.62c0.27-0.39,0.53-0.78,0.79-1.19c0.01,1.57-0.13,3.14-0.24,4.71c-0.25,3.79-0.12,7.46,1.68,10.9     c1.45,2.77,3.8,4.98,6.14,6.99c2.05,1.75,4.78,3.88,6.06,5.82c3.75,5.68-0.32,12.37-4.79,16.46     c-5.59,5.12-13.05,7.81-20.32,9.47c-4.71,1.08-9.5,1.76-14.28,2.43c-2.53,0.35-5.07,0.66-7.58,1.09     c-2.43,0.42-4.99,0.78-7.01,2.29c-0.79,0.59-1.16,2.11,0,2.62c4.26,1.87,9.66,0.63,14.15,0.22c4.69-0.44,9.39-0.87,14.05-1.61     c8.52-1.36,16.92-4,23.85-9.31C171.56,148.69,177.13,140.69,175.53,131.89z M138.59,98.36c2.05-1.97,3.96-3.99,5.56-6.33     c-0.12,0.26-0.23,0.52-0.36,0.78c-1.29,2.53-3.17,4.32-5.52,5.86C138.37,98.57,138.48,98.47,138.59,98.36z M142.44,103.71     c-1.6,1.53-3.35,2.76-5.17,4.02c-0.26,0.18-0.52,0.35-0.79,0.53c-0.1-0.57-0.31-1.13-0.67-1.67c2.5-0.81,4.96-2.4,7.11-3.77     c0.45-0.29,0.88-0.6,1.3-0.93C143.65,102.51,143.06,103.12,142.44,103.71z"></path>				<path class="st2" d="M95.78,152.08c-0.32-0.97-1.21-1.52-2.13-1.41c-0.12-0.02-0.29-0.03-0.5-0.04     c-0.16-0.03-0.31-0.01-0.43,0.07c-0.21-0.08-0.42-0.24-0.63-0.4c-0.99-0.77-1.95-1.6-2.89-2.43c-0.87-0.77-1.73-1.55-2.64-2.28     c-1.05-0.85-2.21-1.48-3.26-2.28c-1.49-1.14-3.13,1-2.39,2.39c0.46,0.87,0.7,1.72,1.27,2.55c0.56,0.81,1.15,1.63,1.8,2.37     c1.25,1.45,2.68,2.81,4.16,4.03c1.43,1.18,3.08,2.26,5.02,1.87C95.32,156.09,96.46,154.18,95.78,152.08z"></path>				<path class="st2" d="M104.87,129.54c-0.32-1.46-1.16-1.95-2.25-2.8c-0.93-0.72-2.22-0.17-2.89,0.61     c-0.11,0.08-0.24,0.19-0.41,0.33c-0.4,0.41-0.67,0.89-0.84,1.44c-0.13,0.42-0.19,0.85-0.3,1.27c-0.25,0.96-0.49,1.89-0.96,2.7     c-0.41,0.71-0.93,1.34-1.6,1.84c-0.27,0.2-0.69,0.34-0.99,0.55c-1.45-0.67-3.32-0.08-3.85,1.7c-0.8,2.71,1.61,5.01,4.24,5.04     c2.41,0.02,4.74-1.43,6.39-3.07c1.56-1.56,2.82-3.64,3.36-5.78C105.08,132.15,105.14,130.77,104.87,129.54z"></path>				<path class="st2" d="M115.15,92.24c-0.58-1.02-1.78-1.73-2.96-1.7l-0.15,0c-1.09,0.03-2.24,0.57-2.76,1.58     c-0.37,0.71-0.37,1.17-0.51,1.91v-0.01c-0.1,0.27-0.14,0.4-0.13,0.39c-0.29,0.48-0.48,0.89-0.98,1.34     c-0.34,0.31-0.91,0.69-1.57,0.96c-0.41,0.17-1.73,0.54-2.42,0.89c-1.91,0.98-1.92,4.1,0,5.07c2.98,1.5,6.39,0.16,8.76-1.89     C114.69,98.84,116.8,95.14,115.15,92.24z"></path>				<path class="st2" d="M151.75,133.76c-2.24-1.48-5.56,1-4.65,3.58c0.46,1.31,0.72,2.53-0.21,3.98c-0.5,0.78-1.14,1.44-1.79,2.09     c-0.36,0.36-0.84,0.69-1.14,1.1c-0.05,0.07-0.09,0.12-0.13,0.16c-2.31-0.86-4.84,1.99-3.43,4.22c3.22,5.08,9,0.68,11.7-2.56     C155.19,142.62,156.28,136.76,151.75,133.76z"></path>				<path class="st2" d="M138.67,72.84c-1.42-0.21-2.85-0.13-4.27-0.35c-1.45-0.23-2.73-0.59-4.2-0.35     c-0.92,0.15-1.66,1.44-1.31,2.3c1.38,3.43,6.41,4.83,9.77,3.92C141.2,77.67,141.59,73.26,138.67,72.84z"></path>			</g>			<g>				<g>					<path class="st3" d="M99.46,167.87c-2.44,0-4.91-1.72-4.91-5.57c0-5.96,2.95-12.19,4.7-15.38l25.63-44.32      c0.09-0.15,0.23-0.25,0.39-0.29c0.17-0.04,0.34-0.01,0.48,0.08l8.23,5.2c0.27,0.17,0.37,0.52,0.23,0.8l-24.53,50.14      c-0.01,0.02-0.03,0.05-0.04,0.07l-0.05,0.07C107.19,162.33,103.53,167.87,99.46,167.87z M125.65,103.79l-25.3,43.75      c-1.69,3.07-4.54,9.09-4.54,14.77c0,3.18,1.97,4.31,3.66,4.31c3.4,0,6.97-5.41,9.1-8.64l0.03-0.04l24.26-49.6L125.65,103.79z"></path>				</g>				<g>					<path class="st3" d="M129.71,116.8c-0.1,0-0.21-0.03-0.3-0.08l-9.05-5.01c-0.3-0.17-0.41-0.55-0.24-0.85      c0.17-0.3,0.55-0.41,0.85-0.24l9.05,5.01c0.3,0.17,0.41,0.55,0.24,0.85C130.15,116.69,129.93,116.8,129.71,116.8z"></path>				</g>				<g>					<path class="st3" d="M133.34,109.4c-0.25,0-0.49-0.15-0.59-0.4c-0.12-0.32,0.04-0.68,0.36-0.81      c8.67-3.29,18.01-11.53,18.01-21.83c0-5.17-1.24-8.63-2.45-11.98c-0.87-2.43-1.7-4.75-1.89-7.44      c-3.22,6.5-7.75,9.62-11.8,12.42c-5.25,3.62-9.79,6.75-9.79,16.39c0,2.52,0.32,5.04,0.67,7.39c0.05,0.34-0.19,0.66-0.53,0.71      c-0.34,0.05-0.66-0.19-0.71-0.53c-0.36-2.4-0.68-4.98-0.68-7.58c0-10.3,5.02-13.76,10.33-17.42c4.44-3.06,9.47-6.53,12.55-14.6      c0.11-0.29,0.41-0.45,0.71-0.39c0.3,0.06,0.51,0.33,0.5,0.63c-0.02,0.55-0.03,1.2-0.03,1.82c0,2.97,0.86,5.37,1.86,8.16      c1.18,3.29,2.52,7.02,2.52,12.41c0,5.23-2.2,10.33-6.38,14.74c-3.32,3.51-7.85,6.52-12.44,8.26      C133.49,109.39,133.41,109.4,133.34,109.4z"></path>				</g>				<g>					<path class="st3" d="M90.61,151.8c-0.13,0-0.26-0.04-0.38-0.13c-9.89-7.49-16.04-20.84-16.04-34.83      c0-12.71,5.37-24.34,15.12-32.75c8.96-7.72,20.96-12.15,32.93-12.15c3.66,0,7.81,0.19,10.83,2.43c0.28,0.21,0.33,0.6,0.13,0.88      c-0.21,0.28-0.6,0.33-0.88,0.13c-2.71-2.01-6.62-2.18-10.08-2.18c-22.51,0-46.8,16.69-46.8,43.65      c0,13.61,5.96,26.57,15.54,33.83c0.28,0.21,0.33,0.6,0.12,0.88C90.98,151.71,90.8,151.8,90.61,151.8z"></path>				</g>				<g>					<path class="st3" d="M128.33,163.04c-5.66,0-11.21-0.89-16.48-2.63c-0.33-0.11-0.51-0.46-0.4-0.79      c0.11-0.33,0.46-0.51,0.79-0.4c5.14,1.7,10.55,2.57,16.08,2.57c8.82,0,19.34-2.88,27.46-7.52      c9.43-5.39,14.62-12.48,14.62-19.97c0-9.38-4.97-11.04-9.77-12.64c-3.88-1.3-7.9-2.63-7.9-8.37c0-2.21,0.65-4.18,1.34-6.27      c0.72-2.2,1.47-4.47,1.47-7.15c0-3.97-1.45-6.87-4.57-9.11c-0.28-0.2-0.35-0.59-0.14-0.87c0.2-0.28,0.59-0.35,0.87-0.14      c3.43,2.46,5.09,5.77,5.09,10.12c0,2.89-0.78,5.26-1.53,7.54c-0.66,1.99-1.27,3.87-1.27,5.88c0,4.83,3.11,5.87,7.05,7.18      c4.74,1.58,10.63,3.54,10.63,13.83C171.66,151.84,146,163.04,128.33,163.04z"></path>				</g>				<g>					<path class="st3" d="M106.86,100.06c-4.1,0-7.08-2.84-7.08-6.75c0-3.86,3.03-7.07,6.9-7.31c0.19-0.01,0.38-0.02,0.58-0.01      c4.08,0,7.17,2.76,7.17,6.41C114.43,96.1,111.39,100.06,106.86,100.06z M107.17,87.24c-0.14,0-0.28,0-0.41,0.01c0,0,0,0,0,0      c-3.21,0.19-5.73,2.86-5.73,6.06c0,3.19,2.45,5.5,5.83,5.5c3.78,0,6.32-3.31,6.32-6.41c0-2.99-2.49-5.16-5.93-5.16      C107.22,87.24,107.19,87.24,107.17,87.24z M106.72,86.62L106.72,86.62L106.72,86.62z"></path>				</g>				<g>					<path class="st3" d="M93.79,115.56c-3.36,0-7.11-2.88-7.11-7.01c0-2.59,1.45-4.92,3.98-6.39c0,0,0,0,0,0      c1.02-0.59,2.2-0.9,3.41-0.91c3.26,0,6.73,2.25,6.73,6.41C100.79,111.4,97.92,115.56,93.79,115.56z M91.29,103.24      c-2.13,1.24-3.35,3.18-3.35,5.31c0,3.39,3.09,5.76,5.85,5.76c3.39,0,5.76-3.5,5.76-6.65c0-3.35-2.82-5.15-5.47-5.15      C93.07,102.51,92.11,102.76,91.29,103.24L91.29,103.24z"></path>				</g>				<g>					<path class="st3" d="M94.25,138.61c-3.76,0-7.06-3.23-7.06-6.91c0-2.81,1.78-5.52,4.23-6.44c0,0,0,0,0,0      c1.3-0.48,2.54-0.73,3.68-0.73c3.64,0,6.38,2.66,6.38,6.18C101.49,134.45,98.52,138.61,94.25,138.61z M91.86,126.44      L91.86,126.44c-1.95,0.73-3.42,2.99-3.42,5.26c0,2.96,2.77,5.66,5.81,5.66c3.43,0,5.99-3.51,5.99-6.64      c0-2.86-2.16-4.93-5.13-4.93C94.12,125.79,93.02,126,91.86,126.44z"></path>				</g>				<g>					<path class="st3" d="M118.25,154.54c-2.52,0-4.78-1.03-6.22-2.82c-0.22-0.27-0.17-0.66,0.1-0.88c0.27-0.22,0.66-0.17,0.88,0.1      c1.2,1.5,3.11,2.35,5.24,2.35c3.73,0,6.64-2.98,6.64-6.78c0-3.76-2.72-6.76-6.34-6.98c-0.35-0.02-0.61-0.32-0.59-0.66      c0.02-0.35,0.32-0.61,0.66-0.59c4.28,0.26,7.51,3.8,7.51,8.23C126.15,151.01,122.68,154.54,118.25,154.54z"></path>				</g>				<g>					<path class="st3" d="M143.12,148.02c-4.56,0-8.27-3.7-8.27-8.24c0-4.39,3.17-7.68,8.09-8.38l0,0c0.38-0.05,0.78-0.08,1.18-0.09      c4.34,0,7.74,3.21,7.74,7.31C151.86,143.45,147.61,148.02,143.12,148.02z M144.12,132.56c-0.34,0-0.68,0.03-1.01,0.07l0,0      c-5.17,0.74-7.01,4.17-7.01,7.14c0,3.86,3.15,6.99,7.02,6.99c3.78,0,7.49-4.04,7.49-8.15      C150.61,135.16,147.82,132.56,144.12,132.56z M143.02,132.01L143.02,132.01L143.02,132.01z"></path>				</g>			</g>		</g>	</g></g></svg>