<svg xmlns="http://www.w3.org/2000/svg" xmlns:xlink="http://www.w3.org/1999/xlink" id="Layer_1" x="0px" y="0px" viewBox="0 0 250 250" style="enable-background:new 0 0 250 250;" xml:space="preserve"><style type="text/css">	.st0{fill:#661311;}	.st1{fill:#F07043;}	.st2{fill:#B4887C;}	.st3{fill:#FFFFFF;}	.st4{fill:none;stroke:#661311;stroke-width:6.3152;stroke-linecap:round;stroke-linejoin:round;stroke-miterlimit:10;}</style><g>	<path class="st0" d="M236.41,116.19c0,22.22-6.51,42.92-17.73,60.3c-1.87-0.36-3.8-0.53-5.76-0.53  c-17.97,0-32.58,14.62-32.58,32.58c0,1.42,0.09,2.83,0.28,4.2c-16.36,9.45-35.37,14.85-55.62,14.85  c-20.27,0-39.25-5.44-55.62-14.91c0.2-1.35,0.28-2.74,0.28-4.14c0-17.96-14.61-32.58-32.58-32.58c-1.95,0-3.88,0.17-5.74,0.52  c-11.22-17.38-17.75-38.07-17.75-60.29C13.59,54.67,63.48,4.78,125,4.78C186.53,4.78,236.41,54.67,236.41,116.19z"></path>	<g>		<g>			<circle class="st1" cx="37.08" cy="208.55" r="21.52"></circle>		</g>		<g>			<path class="st1" d="M214.26,202.44v-4.23v-0.04c-6.72,7.81-14.41,14.69-22.98,20.53c-1.27,0.86-2.54,1.69-3.83,2.51    c-1.75,1.09-3.51,2.14-5.29,3.12c-0.45,0.26-0.91,0.5-1.36,0.74c-1.01,0.54-2.03,1.07-3.06,1.58c-0.01,0.01-0.04,0.03-0.06,0.04    c-13.82,6.87-28.84,10.96-44.15,12.09c-1.08,0.07-2.16,0.14-3.24,0.18c-0.63,0.04-1.25,0.06-1.88,0.07    c-2.26,0.07-4.52,0.06-6.78,0c-0.63-0.03-1.25-0.05-1.88-0.07c-1.08-0.04-2.16-0.1-3.24-0.18c-15.31-1.13-30.33-5.22-44.15-12.09    c-0.03-0.03-0.05-0.04-0.06-0.04c-1.03-0.5-2.05-1.04-3.06-1.58l-1.36-0.74c-1.78-1-3.55-2.03-5.29-3.12    c-1.29-0.81-2.57-1.65-3.83-2.51c-8.57-5.83-16.27-12.71-22.98-20.53v0.04v4.23c0,1.41-0.3,2.76-0.8,4.01    c1.52,1.62,3.1,3.19,4.69,4.72c0.1,0.09,0.2,0.17,0.28,0.26c1.39,1.31,2.8,2.59,4.25,3.83c0.65,0.55,1.3,1.11,1.96,1.65    c0.76,0.64,1.54,1.27,2.32,1.88c0.06,0.05,0.12,0.1,0.18,0.15c0.06,0.05,0.12,0.1,0.18,0.14c0.76,0.6,1.52,1.19,2.31,1.76    c0.09,0.07,0.18,0.15,0.27,0.21c0.42,0.31,0.84,0.63,1.27,0.93c0.86,0.61,1.73,1.22,2.6,1.82c0.64,0.43,1.28,0.86,1.92,1.28    c0.7,0.47,1.4,0.91,2.11,1.35c0.6,0.38,1.2,0.75,1.81,1.11c1.18,0.71,2.37,1.39,3.56,2.06c0.54,0.3,1.09,0.6,1.65,0.9    c1.03,0.55,2.06,1.09,3.11,1.61c0.03,0.01,0.05,0.03,0.06,0.04c15.94,8.01,33.03,12.27,50.11,12.97    c0.63,0.03,1.24,0.05,1.85,0.06c0.54,0.03,1.07,0.04,1.6,0.04c1.3,0.04,2.6,0.04,3.91,0c0.53,0,1.06-0.01,1.6-0.04    c0.61-0.01,1.23-0.04,1.85-0.06c17.05-0.7,34.14-4.95,50.07-12.95c0.03-0.01,0.04-0.01,0.06-0.04c1.04-0.52,2.08-1.06,3.11-1.61    c0.04-0.01,0.07-0.03,0.11-0.06c0.53-0.28,1.06-0.58,1.57-0.86c1.12-0.61,2.22-1.25,3.33-1.92c0.69-0.42,1.36-0.82,2.04-1.25    c0.68-0.42,1.35-0.85,2.03-1.29c0.66-0.44,1.34-0.88,2-1.34c7.43-5.05,14.21-10.86,20.33-17.33    C214.55,205.21,214.26,203.85,214.26,202.44z"></path>		</g>		<g>			<circle class="st1" cx="212.92" cy="208.55" r="21.52"></circle>		</g>	</g>	<g>		<path class="st2" d="M111.1,132.82c-0.92,0.71-2.05,1.86-3.11,2.33c-1.66,0.73-3.67-0.02-5.4-0.15c-2.49-0.19-5,0.29-6.61,2.34   c-3.39,4.31,0.5,11.68,3.79,14.89c0.95,0.92,2.39,0.2,2.48-1.03c0.2-2.79-0.9-5.32-1.44-8.02c-0.22-1.13-0.53-1.69,0.29-2.23   c0.61-0.39,2.54,0.04,3.33-0.12c3.2-0.66,7.23-3.65,8.16-6.85C112.82,133.19,111.83,132.26,111.1,132.82z"></path>		<path class="st2" d="M115.06,113.23c-0.59-0.82-1.74-1.12-2.53-0.33c-2.45,2.5-2.36,5.86-2.97,9.13c-0.36,1.94-0.45,4.35-1.84,5.8   c-1.55,1.62-3.84,1.2-6.01,1.46c-4.32,0.53-11.38,3.17-10.76,8.67c0.05,0.41,0.59,0.78,0.93,0.39c2.99-3.57,5.86-4.45,10.42-4.4   c3.13,0.04,6.64,0.52,9.25-1.6c2.47-2,3.28-5.75,3.91-8.7C116.2,120.25,117.27,116.27,115.06,113.23z"></path>		<path class="st2" d="M120.07,90.77c-1-3.2-5.37-2.42-5.65,0.76c-0.21,2.43,0.33,5.02-1.66,6.89c-1.97,1.85-4.31,0.45-6.6,0.98   c-0.55,0.13-0.74,0.77-0.5,1.23c1.84,3.56,7.34,4.21,10.43,2.11C119.76,100.26,121.38,94.94,120.07,90.77z"></path>		<path class="st2" d="M144.74,78.67c-3.64-0.72-6.82,2.3-9.17,4.8c-2.67,2.82-5.26,6.33-5.02,10.39c0.11,1.96,0.93,3.66,1.6,5.47   c0.39,1.05,1,2.31,0.82,3.45c-0.23,1.56-1.54,2.23-2.57,3.06c-2.29,1.83-3.38,3.56-2.86,6.57c0.05,0.29,0.5,0.27,0.57,0   c1.01-4.33,4.96-3.4,7.24-6.16c1.74-2.11,1.61-4.99,1.07-7.51c-0.41-1.91-1.3-3.88-0.75-5.86c0.53-1.91,2.06-3.69,3.38-5.08   c2.27-2.39,5.69-3.79,6.95-6.91C146.35,80.03,145.62,78.84,144.74,78.67z"></path>		<path class="st2" d="M179.22,80.85c-0.33-0.97-1.08-1.95-2.15-2.15c-0.62-0.12-1.17-0.08-1.67,0.06   c-0.88-3.75-3.17-6.93-7.48-6.84c-0.88,0.02-1.09,1.32-0.21,1.56c3.93,1.07,1.31,10.13,0.24,12.21c-1.72,3.38-5.66,4.87-7.21,8.22   c-0.51,1.1-0.41,2.73,0.87,3.32c0.54,0.25,1.07,0.41,1.6,0.52c-2.23,0.8-4.59,1.1-6.74,2.1c-0.17,0.08-0.18,0.34-0.06,0.46   c4.13,4.14,12.31,1.49,16.26-1.56C177.64,94.91,181.35,87.1,179.22,80.85z"></path>		<path class="st2" d="M173.55,125.51c-0.26-0.9-1.01-1.34-1.79-1.34c1.18-2.88,1.66-6.88-0.86-8.95c-0.57-0.47-1.41-0.71-2.09-0.27   c-2.1,1.37-2.79,3.82-3.43,6.12c-0.27,0.98-0.44,2-0.84,2.94c-0.3,0.69-0.92,1.38-0.57,2.22c0.92,2.21,2.78,2.43,4.45,1.68   c-1.96,3.84-3.23,8.02-5.83,11.63c-3.18,4.42-7.16,8.32-11.48,11.63c-4.69,3.6-9.95,6.75-15.68,8.34   c-6.33,1.75-11.98,1.18-18.28-0.32c-0.12-0.03-0.27,0.11-0.18,0.23c3.71,4.9,10.34,6.55,16.37,6.37   c7.35-0.22,14.37-3.75,20.2-8.01c5.38-3.93,10.32-8.51,14.19-13.95C171.26,138.86,175.34,131.8,173.55,125.51z"></path>		<path class="st2" d="M172.43,109.17c-0.35-0.78-0.84-1.08-1.55-1.51c-0.56-0.34-1.02-0.78-1.46-1.26   c-0.87-0.95-2.58,0.32-1.82,1.4c0.5,0.7,1.05,1.34,1.7,1.89c0.8,0.68,1.54,1.08,2.59,0.77   C172.49,110.3,172.66,109.69,172.43,109.17z"></path>		<path class="st2" d="M149.04,119.33c-2.57,2.19-4.41,5.35-6.59,7.94c-2.08,2.47-4.27,4.85-6.46,7.24   c-1.41,1.53-4.47,6.02-6.56,6.17c-1,0.07-3-2.24-3.83-2.9c-1.22-0.97-2.42-1.93-3.78-2.7c-0.31-0.18-0.75,0.12-0.63,0.49   c1.06,3.18,3.69,6.3,6.44,8.2c2.7,1.87,4.66,0.28,6.85-1.62c3.42-2.97,6.61-6.19,9.62-9.58c2.82-3.17,6.55-6.75,8.25-10.68   C153.29,119.71,150.94,117.71,149.04,119.33z"></path>		<path class="st2" d="M139.06,117.98c-1.07-1.65-3.41-1.65-4.79-0.4c-0.68,0.61-1.33,1.48-1.81,2.25c-0.36,0.57-0.2,0.72-0.83,0.3   c-1.38-0.93-4.88-3.02-5.22,0.06c-0.04,0.35,0.28,0.7,0.6,0.79c0.29,0.08,0.68,1.17,0.83,1.43c0.36,0.65,0.77,1.33,1.28,1.88   c1.17,1.25,2.93,2.12,4.67,1.76C136.6,125.46,140.97,120.94,139.06,117.98z"></path>		<path class="st2" d="M150.4,136.27c-0.16-0.83-1.27-1.02-1.82-0.48c-1.7,1.68-2.43,4.18-3.31,6.36c-0.93,2.28-2.35,4.84-1.66,7.31   c0.42,1.52,2.19,1.8,3.29,0.87c1.89-1.6,2.18-4.67,2.68-6.99C150.1,141.03,150.86,138.64,150.4,136.27z"></path>		<g>			<g>				<path class="st3" d="M88.05,124.93c-0.54,0-1.07-0.14-1.57-0.42c-1.28-0.71-1.78-2.24-2.36-4.01     c-1.23-3.74-2.91-8.86-12.92-9.36c-0.6-0.03-1.06-0.54-1.03-1.14c0.03-0.6,0.55-1.05,1.14-1.03     c11.51,0.57,13.62,7.01,14.88,10.86c0.42,1.28,0.82,2.49,1.35,2.79c0.17,0.1,0.35,0.15,0.51,0.15c0.77,0,1.52-2.06,2.18-3.88     c1.41-3.87,3.34-9.17,9.24-9.41c0.01,0,0.07,0,0.09,0c0.75,0,1.35,0.37,1.89,0.7c0.24,0.15,0.49,0.3,0.67,0.36     c0.57,0.19,0.88,0.81,0.69,1.38c-0.19,0.57-0.81,0.88-1.38,0.69c-0.41-0.14-0.78-0.37-1.11-0.57c-0.23-0.14-0.61-0.38-0.75-0.38     c-4.45,0.18-5.96,4.32-7.28,7.98C91.28,122.34,90.35,124.93,88.05,124.93z"></path>			</g>			<g>				<path class="st3" d="M97.24,152.39c-0.49,0-0.93-0.33-1.06-0.82c-0.85-3.39-1.42-5.44-1.8-6.79c-0.62-2.2-0.78-2.79-0.78-4.42     c0-6.5,6.5-6.5,9.63-6.5l1.05,0c5.43,0,10.72-1.06,10.72-13.8c0-6.68-3.91-9.66-7.78-9.66c-2.05,0-4.3,0.73-6.35,2.06     c-0.5,0.33-1.18,0.18-1.5-0.32c-0.33-0.5-0.18-1.18,0.32-1.5c2.4-1.55,5.08-2.41,7.54-2.41c4.79,0,9.96,3.7,9.96,11.84     c0,14.08-6.52,15.97-12.9,15.97l-1.05,0c-5.57,0-7.45,1.09-7.45,4.32c0,1.34,0.11,1.72,0.7,3.84c0.38,1.37,0.96,3.43,1.82,6.85     c0.15,0.58-0.21,1.17-0.79,1.32C97.41,152.38,97.32,152.39,97.24,152.39z"></path>			</g>			<g>				<path class="st3" d="M89.61,141.09c-4.74,0-8.04-5.04-8.04-9.57c0-3.08,1.37-5.93,3.76-7.82c0.47-0.37,1.16-0.29,1.53,0.18     c0.37,0.47,0.29,1.16-0.18,1.53c-1.87,1.47-2.94,3.7-2.94,6.11c0,3.49,2.51,7.39,5.86,7.39c1.17,0,2.66-0.31,3.25-0.9     c0.43-0.43,1.11-0.43,1.54,0c0.43,0.43,0.43,1.11,0,1.54C92.93,141.01,90.15,141.09,89.61,141.09z"></path>			</g>			<g>				<path class="st3" d="M95.39,136.33c-0.11,0-0.23-0.02-0.34-0.06c-3.03-1.01-4.98-3.67-4.98-6.79c0-1.28,0.35-2.56,1.01-3.71     c0.3-0.52,0.96-0.7,1.48-0.4c0.52,0.3,0.7,0.96,0.4,1.48c-0.47,0.82-0.72,1.73-0.72,2.63c0,2.17,1.37,4.02,3.49,4.73     c0.57,0.19,0.88,0.81,0.69,1.38C96.27,136.04,95.84,136.33,95.39,136.33z"></path>			</g>			<g>				<path class="st3" d="M99.02,117.39c-0.21,0-0.42-0.06-0.6-0.18c-0.5-0.33-0.63-1.01-0.3-1.51c0.91-1.37,1.32-2.65,1.32-4.15     c0-0.6,0.49-1.09,1.09-1.09c0.6,0,1.09,0.49,1.09,1.09c0,1.93-0.54,3.63-1.68,5.35C99.72,117.22,99.37,117.39,99.02,117.39z"></path>			</g>			<g>				<path class="st3" d="M105.77,164.42c-0.49,0-0.93-0.33-1.06-0.82c-0.15-0.58,0.21-1.17,0.79-1.32c2-0.72,16.18-14.57,16.18-20.1     c0-1.33-0.56-3.05-1.15-3.05c-0.64,0-2.21,0.93-3.06,1.43c-1.13,0.67-1.61,0.94-2.12,0.94c-0.63,0-1.18-0.26-1.67-0.5     c-0.18-0.09-0.44-0.21-0.59-0.25c-1.34,1.11-1.38,1.84-1.45,3.05c-0.14,2.67-0.33,5.99-12.1,12.72c-0.52,0.3-1.19,0.12-1.48-0.4     c-0.3-0.52-0.12-1.19,0.4-1.48c10.75-6.14,10.89-8.81,11.01-10.95c0.07-1.39,0.16-2.95,2.36-4.72c0.33-0.27,0.74-0.41,1.18-0.41     c0.6,0,1.13,0.26,1.6,0.48c0.2,0.09,0.48,0.23,0.64,0.27c0.24-0.11,0.73-0.4,1.1-0.62c1.66-0.98,3.02-1.74,4.17-1.74     c2.44,0,3.33,3.12,3.33,5.23c0,6.49-15.03,21.51-17.83,22.21C105.95,164.41,105.86,164.42,105.77,164.42z"></path>			</g>			<g>				<path class="st3" d="M116.53,153.91c-0.12,0-0.25-0.02-0.37-0.06c-2.26-0.82-4.33-2.11-6.33-3.35     c-0.54-0.33-1.07-0.67-1.61-0.99c-0.51-0.31-0.68-0.98-0.37-1.49c0.31-0.51,0.98-0.68,1.49-0.37c0.55,0.33,1.09,0.67,1.64,1.01     c1.91,1.18,3.88,2.41,5.93,3.16c0.56,0.21,0.86,0.83,0.65,1.39C117.39,153.63,116.97,153.91,116.53,153.91z"></path>			</g>			<g>				<path class="st3" d="M83.3,109.83c-0.07,0-0.14-0.01-0.21-0.02c-0.59-0.12-0.97-0.69-0.85-1.28     c3.8-19.16,19.65-33.35,38.54-34.5c1.34-0.08,2.69-0.11,4.03-0.09c0.6,0.01,1.08,0.5,1.07,1.11c-0.01,0.59-0.5,1.07-1.09,1.07     c-1.3-0.02-2.6,0.01-3.88,0.09c-17.9,1.09-32.93,14.56-36.54,32.75C84.26,109.47,83.81,109.83,83.3,109.83z"></path>			</g>			<g>				<path class="st3" d="M125.15,161.04c-0.31,0-0.61,0-0.92-0.01c-0.34-0.01-0.67-0.02-1-0.03c-0.6-0.03-1.06-0.53-1.04-1.13     c0.03-0.6,0.54-1.06,1.13-1.04c0.32,0.01,0.64,0.02,0.96,0.03c19.72,0.42,38.18-13.25,42.98-31.76     c0.15-0.58,0.74-0.93,1.33-0.78c0.58,0.15,0.93,0.74,0.78,1.33c-2.43,9.35-8.25,17.88-16.39,24.01     C144.93,157.73,135.08,161.04,125.15,161.04z"></path>			</g>			<g>				<path class="st3" d="M126.24,113.89c-3.25,0-3.64-10.96-3.64-11.07c0-23.72,9-36.26,26.04-36.26c0.72,0,1.44,0.02,2.16,0.06     c0.6,0.04,1.06,0.55,1.02,1.15c-0.04,0.6-0.55,1.05-1.15,1.02c-0.68-0.04-1.36-0.06-2.03-0.06c-15.83,0-23.86,11.47-23.86,34.08     c0,1.77,0.77,7.32,1.58,8.73c0.2-0.41,0.29-1.38,0.34-2c0.14-1.48,0.3-3.16,1.17-4.53c0.73-1.15,1.9-1.41,2.85-1.62     c1.24-0.27,1.5-0.37,1.5-1.41c0-0.85-0.42-1.79-0.87-2.78c-0.53-1.17-1.07-2.38-1.07-3.71c0-3.14,3.36-15,14.03-17.4     c0.59-0.13,1.17,0.24,1.3,0.82c0.13,0.59-0.24,1.17-0.82,1.3c-9.25,2.08-12.33,12.63-12.33,15.28c0,0.87,0.43,1.82,0.88,2.82     c0.52,1.16,1.06,2.36,1.06,3.68c0,2.83-2.01,3.27-3.21,3.54c-0.77,0.17-1.25,0.29-1.48,0.65c-0.59,0.93-0.72,2.34-0.84,3.57     C128.7,111.5,128.48,113.89,126.24,113.89z"></path>			</g>			<g>				<path class="st3" d="M124.66,97.32c-0.6,0-1.09-0.49-1.09-1.09s0.49-1.09,1.09-1.09c0.7,0,1.44-0.06,2.22-0.11     c1.25-0.1,2.61-0.18,3.71-0.07c0.6,0.06,1.03,0.59,0.97,1.19c-0.06,0.6-0.6,1.04-1.19,0.97c-0.93-0.09-2.17-0.02-3.33,0.07     C126.26,97.25,125.45,97.32,124.66,97.32z"></path>			</g>			<g>				<path class="st3" d="M109.73,99.7c-0.06,0-0.12,0-0.18,0c-3.47-0.09-7.28-2.92-7.4-7.35c-0.06-2.12,0.78-4.23,2.28-5.76     c1.49-1.52,3.48-2.35,5.52-2.34c0.62,0,1.24,0.09,1.84,0.24c1.76,0.46,3.25,1.44,4.43,2.88c0.8,0.98,1.26,2.21,1.35,3.64     c0.15,2.28-0.68,4.55-2.29,6.23C113.78,98.8,111.76,99.7,109.73,99.7z M109.92,86.42c-1.46,0-2.85,0.6-3.92,1.69     c-1.1,1.12-1.7,2.64-1.66,4.18c0.08,3.05,2.79,5.17,5.28,5.23c1.5,0.05,2.98-0.61,4.11-1.79c1.19-1.24,1.8-2.9,1.69-4.58     c-0.06-0.97-0.36-1.78-0.87-2.41c-0.89-1.1-1.97-1.8-3.3-2.15C110.83,86.48,110.39,86.42,109.92,86.42z"></path>			</g>			<g>				<path class="st3" d="M109.52,95.06c-0.02,0-0.04,0-0.06,0c-0.93-0.02-1.76-0.37-2.35-0.98c-0.62-0.65-0.93-1.54-0.9-2.56     c0.01-0.27,0.04-0.54,0.1-0.81c0.1-0.45,0.36-0.78,0.53-0.99c0.04-0.05,0.08-0.1,0.11-0.15c0.25-0.57,0.86-1.02,1.55-1.15     c1.23-0.23,2.42,0.05,3.28,0.75c0.73,0.61,1.14,1.48,1.15,2.47c0.01,0.92-0.35,1.78-1,2.43     C111.28,94.7,110.4,95.06,109.52,95.06z M108.41,91.21c-0.02,0.12-0.04,0.24-0.04,0.36c-0.01,0.3,0.04,0.72,0.3,1     c0.24,0.25,0.58,0.31,0.82,0.31c0.33-0.01,0.65-0.13,0.89-0.36c0.17-0.16,0.36-0.45,0.36-0.86c0-0.35-0.12-0.61-0.36-0.81     c-0.35-0.29-0.92-0.4-1.5-0.29c-0.11,0.21-0.25,0.38-0.36,0.51C108.49,91.12,108.44,91.16,108.41,91.21z M108.4,91.24     L108.4,91.24L108.4,91.24z M108.42,91.17L108.42,91.17L108.42,91.17z"></path>			</g>			<g>				<path class="st3" d="M101.77,99.57c-0.37,0-0.73-0.19-0.93-0.53c-0.31-0.51-0.14-1.18,0.37-1.49c0.44-0.26,0.88-0.57,1.34-0.9     c0.48-0.33,0.97-0.68,1.47-0.98c0.51-0.31,1.18-0.14,1.49,0.37c0.31,0.51,0.14,1.18-0.37,1.49c-0.44,0.26-0.88,0.57-1.34,0.89     c-0.48,0.33-0.97,0.68-1.47,0.98C102.16,99.52,101.96,99.57,101.77,99.57z"></path>			</g>			<g>				<path class="st3" d="M159.37,98.62c-2.8,0-5.84-1.29-6.98-1.78c-0.09-0.04-0.17-0.07-0.23-0.1c-0.15,0.01-0.3,0.03-0.45,0.05     c-0.27,0.03-0.55,0.06-0.85,0.06c-2.89,0-6.02-10.77-6.02-11.33c0-3.41,3.45-14.2,14.02-16.96c1.25-0.33,2.54-0.49,3.94-0.49     c7.29,0,14.65,3.96,14.65,12.82C177.44,89.35,167.98,98.62,159.37,98.62z M152.33,94.56c0.26,0,0.41,0.06,0.91,0.28     c1.03,0.44,3.78,1.61,6.13,1.61c7.43,0,15.89-8.28,15.89-15.55c0-4.91-3.27-10.64-12.47-10.64c-1.21,0-2.32,0.13-3.39,0.41     c-9.99,2.61-12.35,13.13-12.39,14.81c0.22,1.34,2.84,8.22,4.01,9.19c0.14-0.01,0.29-0.03,0.43-0.04     C151.71,94.6,152.01,94.56,152.33,94.56z"></path>			</g>			<g>				<path class="st3" d="M165.66,95.82c-0.31,0-0.61-0.13-0.83-0.39c-1.18-1.39-2.95-1.6-5.01-1.83c-0.93-0.11-1.88-0.22-2.83-0.45     c-5.07-1.22-6.06-4.57-6.93-7.52c-0.54-1.81-1.04-3.53-2.46-4.71c-0.46-0.39-0.52-1.07-0.14-1.53c0.39-0.46,1.07-0.52,1.53-0.14     c1.92,1.6,2.58,3.81,3.15,5.76c0.84,2.85,1.5,5.1,5.35,6.03c0.82,0.2,1.71,0.3,2.57,0.4c2.3,0.26,4.68,0.54,6.42,2.59     c0.39,0.46,0.33,1.14-0.13,1.53C166.15,95.74,165.91,95.82,165.66,95.82z"></path>			</g>			<g>				<path class="st2" d="M174.19,108.57c-0.01,0-0.03,0-0.04,0c-5.47-0.22-9.28-5.46-9.67-10.19c-0.05-0.6,0.39-1.12,0.99-1.17     c0.6-0.04,1.12,0.39,1.17,1c0.32,3.81,3.31,8.02,7.59,8.19c0.6,0.02,1.07,0.53,1.04,1.13     C175.25,108.11,174.77,108.57,174.19,108.57z"></path>			</g>			<g>				<path class="st3" d="M165.54,124.8c-4.51,0-6.53-5.27-6.53-9c0-2.08,1.04-3.35,2.32-3.89c-0.4-0.51-0.69-1.17-0.69-2     c0-1.45,1.21-3.54,3.4-3.54c2.1,0,4.38,1.73,5.18,3.94c0.21,0.56-0.09,1.19-0.65,1.39c-0.56,0.21-1.19-0.09-1.39-0.65     c-0.49-1.36-1.93-2.5-3.13-2.5c-0.9,0-1.22,1.13-1.22,1.37c0,0.68,0.64,1.1,1.31,1.48c0.33,0.19,1.09,0.63,0.86,1.49     c-0.24,0.9-1.07,0.9-2.12,0.9c-0.39,0-1.68,0.15-1.68,2.02c0,2.75,1.39,6.83,4.36,6.83c0.98,0,2.69-1.51,2.69-2.38     c0-0.02,0-0.05-0.01-0.08c-0.15-0.58,0.21-1.17,0.79-1.32c0.58-0.15,1.17,0.21,1.32,0.79c0.05,0.2,0.07,0.4,0.07,0.61     C170.4,122.51,167.57,124.8,165.54,124.8z"></path>			</g>			<g>				<path class="st3" d="M161.43,121.14c-0.49,0-0.93-0.33-1.06-0.82c-0.15-0.58,0.21-1.17,0.79-1.32c0.56-0.14,1.05-0.48,1.61-0.87     c0.65-0.45,1.38-0.96,2.33-1.19c0.58-0.15,1.17,0.21,1.32,0.79c0.15,0.58-0.21,1.17-0.79,1.32c-0.56,0.14-1.05,0.48-1.61,0.87     c-0.65,0.45-1.38,0.96-2.33,1.19C161.6,121.13,161.52,121.14,161.43,121.14z"></path>			</g>			<g>				<path class="st3" d="M129.25,141.76c-0.26,0-0.51-0.09-0.72-0.27c-3.37-2.98-6.82-6.34-10.85-10.55     c-0.42-0.43-0.4-1.12,0.03-1.54c0.43-0.42,1.12-0.4,1.54,0.03c3.68,3.85,6.87,6.97,9.96,9.75c7.69-7.56,11.56-12.22,14.98-16.35     c1.02-1.23,2-2.42,3.04-3.62c-5.68-3.83-10.33-7.91-13.85-12.16c-0.38-0.46-0.32-1.15,0.14-1.53c0.46-0.38,1.15-0.32,1.53,0.14     c3.59,4.34,8.43,8.51,14.4,12.42c0.26,0.17,0.44,0.45,0.48,0.76c0.04,0.31-0.05,0.63-0.26,0.86c-1.33,1.52-2.54,2.97-3.82,4.52     c-3.56,4.29-7.6,9.16-15.86,17.23C129.8,141.65,129.53,141.76,129.25,141.76z"></path>			</g>			<g>				<path class="st3" d="M118.09,117.58c-0.28,0-0.56-0.11-0.77-0.32c-0.43-0.43-0.43-1.11,0-1.54c0.87-0.87,1.69-1.8,2.49-2.7     c1.06-1.19,2.15-2.43,3.36-3.53c0.45-0.4,1.13-0.37,1.54,0.07c0.4,0.45,0.37,1.13-0.07,1.54c-1.12,1.02-2.13,2.16-3.2,3.36     c-0.82,0.92-1.66,1.87-2.58,2.79C118.65,117.47,118.37,117.58,118.09,117.58z"></path>			</g>			<g>				<path class="st3" d="M132.62,127.56c-0.02,0-0.05,0-0.07,0c-3.93-0.04-7.23-3.44-7.21-7.42c0.02-3.82,2.85-7,6.44-7.24     c0.27-0.02,0.53-0.02,0.8,0c1.1,0.06,2.28,0.17,3.41,0.72c2.3,1.12,3.75,3.06,3.96,5.32c0.22,2.26-0.56,4.61-2.1,6.28     C136.47,126.73,134.62,127.56,132.62,127.56z M132.21,115.06c-0.1,0-0.19,0-0.29,0.01c-2.41,0.16-4.39,2.44-4.4,5.08     c-0.01,2.76,2.35,5.2,5.06,5.23c1.79-0.02,2.99-0.88,3.68-1.63c1.12-1.22,1.7-2.94,1.54-4.6c-0.14-1.49-1.15-2.79-2.75-3.57     c-0.7-0.34-1.5-0.45-2.58-0.51C132.37,115.07,132.29,115.06,132.21,115.06z"></path>			</g>			<g>				<path class="st3" d="M133.51,121.17c-0.19,0-0.39-0.05-0.56-0.16c-1.94-1.17-3.73-2.56-5.3-4.14c-0.43-0.43-0.43-1.11,0-1.54     c0.43-0.43,1.11-0.43,1.54,0c1.24,1.24,2.61,2.35,4.1,3.32c0.93-1.13,1.84-2.28,2.67-3.53c0.33-0.5,1.01-0.64,1.51-0.3     c0.5,0.33,0.63,1.01,0.3,1.51c-1.07,1.61-2.23,3.02-3.42,4.44C134.13,121.04,133.82,121.17,133.51,121.17z"></path>			</g>			<g>				<path class="st3" d="M143.61,148.72c-0.08,0-0.16-0.01-0.25-0.03c-0.59-0.14-0.95-0.72-0.82-1.3c0.7-3.04,1.83-5.94,2.92-8.74     c0.69-1.77,1.4-3.6,1.98-5.41c0.18-0.57,0.8-0.89,1.37-0.7c0.57,0.18,0.89,0.79,0.7,1.37c-0.6,1.88-1.33,3.74-2.03,5.54     c-1.06,2.73-2.16,5.56-2.83,8.44C144.55,148.38,144.1,148.72,143.61,148.72z"></path>			</g>		</g>	</g></g></svg>