<svg xmlns="http://www.w3.org/2000/svg" xmlns:xlink="http://www.w3.org/1999/xlink" id="Layer_1" x="0px" y="0px" viewBox="0 0 250 250" style="enable-background:new 0 0 250 250;" xml:space="preserve"><style type="text/css">	.st0{fill:#661311;}	.st1{fill:#F07043;}	.st2{fill:#B4887C;}	.st3{fill:#FFFFFF;}	.st4{fill:none;stroke:#661311;stroke-width:6.3152;stroke-linecap:round;stroke-linejoin:round;stroke-miterlimit:10;}</style><g>	<g>		<g>			<circle class="st1" cx="37.08" cy="208.55" r="21.52"></circle>		</g>		<g>			<path class="st1" d="M214.26,202.44v-4.23v-0.04c-6.72,7.81-14.41,14.69-22.98,20.53c-1.27,0.86-2.54,1.69-3.83,2.51    c-1.75,1.09-3.51,2.14-5.29,3.12c-0.45,0.26-0.91,0.5-1.36,0.74c-1.01,0.54-2.03,1.07-3.06,1.58c-0.01,0.01-0.04,0.03-0.06,0.04    c-13.82,6.87-28.84,10.96-44.15,12.09c-1.08,0.07-2.16,0.14-3.24,0.18c-0.63,0.04-1.25,0.06-1.88,0.07    c-2.26,0.07-4.52,0.06-6.78,0c-0.63-0.03-1.25-0.05-1.88-0.07c-1.08-0.04-2.16-0.1-3.24-0.18c-15.31-1.13-30.33-5.22-44.15-12.09    c-0.03-0.03-0.05-0.04-0.06-0.04c-1.03-0.5-2.05-1.04-3.06-1.58l-1.36-0.74c-1.78-1-3.55-2.03-5.29-3.12    c-1.29-0.81-2.57-1.65-3.83-2.51c-8.57-5.83-16.27-12.71-22.98-20.53v0.04v4.23c0,1.41-0.3,2.76-0.8,4.01    c1.52,1.62,3.1,3.19,4.69,4.72c0.1,0.09,0.2,0.17,0.28,0.26c1.39,1.31,2.8,2.59,4.25,3.83c0.65,0.55,1.3,1.11,1.96,1.65    c0.76,0.64,1.54,1.27,2.32,1.88c0.06,0.05,0.12,0.1,0.18,0.15c0.06,0.05,0.12,0.1,0.18,0.14c0.76,0.6,1.52,1.19,2.31,1.76    c0.09,0.07,0.18,0.15,0.27,0.21c0.42,0.31,0.84,0.63,1.27,0.93c0.86,0.61,1.73,1.22,2.6,1.82c0.64,0.43,1.28,0.86,1.92,1.28    c0.7,0.47,1.4,0.91,2.11,1.35c0.6,0.38,1.2,0.75,1.81,1.11c1.18,0.71,2.37,1.39,3.56,2.06c0.54,0.3,1.09,0.6,1.65,0.9    c1.03,0.55,2.06,1.09,3.11,1.61c0.03,0.01,0.05,0.03,0.06,0.04c15.94,8.01,33.03,12.27,50.11,12.97    c0.63,0.03,1.24,0.05,1.85,0.06c0.54,0.03,1.07,0.04,1.6,0.04c1.3,0.04,2.6,0.04,3.91,0c0.53,0,1.06-0.01,1.6-0.04    c0.61-0.01,1.23-0.04,1.85-0.06c17.05-0.7,34.14-4.95,50.07-12.95c0.03-0.01,0.04-0.01,0.06-0.04c1.04-0.52,2.08-1.06,3.11-1.61    c0.04-0.01,0.07-0.03,0.11-0.06c0.53-0.28,1.06-0.58,1.57-0.86c1.12-0.61,2.22-1.25,3.33-1.92c0.69-0.42,1.36-0.82,2.04-1.25    c0.68-0.42,1.35-0.85,2.03-1.29c0.66-0.44,1.34-0.88,2-1.34c7.43-5.05,14.21-10.86,20.33-17.33    C214.55,205.21,214.26,203.85,214.26,202.44z"></path>		</g>		<g>			<circle class="st1" cx="212.92" cy="208.55" r="21.52"></circle>		</g>	</g>	<g>		<path class="st0" d="M236.41,116.42c0,22.22-6.51,42.92-17.73,60.3c-1.87-0.36-3.8-0.53-5.76-0.53   c-17.97,0-32.58,14.62-32.58,32.58c0,1.42,0.09,2.83,0.28,4.2c-16.36,9.45-35.37,14.85-55.62,14.85   c-20.27,0-39.25-5.44-55.62-14.91c0.2-1.35,0.28-2.74,0.28-4.14c0-17.96-14.61-32.58-32.58-32.58c-1.95,0-3.88,0.17-5.74,0.52   c-11.22-17.38-17.75-38.07-17.75-60.29C13.59,54.9,63.48,5.01,125,5.01C186.53,5.01,236.41,54.9,236.41,116.42z"></path>		<g>			<g>				<path class="st2" d="M173.09,143.55c-0.11-0.6-0.24-1.2-0.38-1.8c0.05-0.21,0.09-0.41,0.14-0.62c0.47-2.05,1.3-4.26-0.02-6.16     c-1.36-1.96-3.85-1.77-5.51-0.34c-1.38,1.19-2.32,2.84-3.56,4.17c-0.68,0.73-1.4,1.41-2.16,2.04c-0.24,0.15-0.47,0.33-0.67,0.53     c-0.36,0.27-0.73,0.53-1.12,0.78c-1.05-1.37-3.67-1.42-4.02,0.63c-0.06,0.38-0.11,0.76-0.16,1.14c-0.15,0-0.29,0-0.44-0.02     c-3.18-0.35-4.06,4.34-1.57,5.79c0.64,0.37,1.28,0.6,1.92,0.72c0.03,0.57,0.07,1.15,0.12,1.72c-0.11,0.8-0.14,1.62-0.05,2.46     c0.05,0.45,0.17,0.86,0.34,1.22c0.02,0.3,0.04,0.6,0.06,0.9c0.16,2.4,0.72,4.92,3.63,5.11c2.32,0.15,3.57-1.42,4.94-3.01     c1.37-1.6,2.82-3.15,4.31-4.65c1.34-1.36,3.23-2.62,4.2-4.28C174.21,147.99,173.47,145.57,173.09,143.55z M163.4,151.28     c0.16-0.43,0.83-2.29,1.01-2.78c0.29,0.13,0.6,0.24,0.93,0.32c0.14,0.03,0.28,0.06,0.43,0.08     C164.96,149.67,164.17,150.46,163.4,151.28z"></path>				<path class="st2" d="M105.1,131.87l-0.23-0.37c-0.18-0.29-0.39-0.55-0.62-0.76c-2.03-2.65-4.29-5.15-6.46-7.67     c-1.86-2.17-3.68-4.41-5.59-6.55c1.3-2.41,2.73-4.79,4.39-6.99c1.45-1.93,3-3.78,4.49-5.68c1.13-1.43,1.39-3.37,0-4.77     c-1.2-1.2-3.59-1.4-4.77,0l-1.99,2.43c-3.22,3.53-6.03,7.45-8.98,11.19c-0.91,1.15-1.26,2.64-0.64,3.9     c-0.12,0.77-0.01,1.6,0.43,2.19c2.27,3.05,4.78,5.93,7.19,8.86c2.35,2.85,4.62,5.86,7.19,8.51     C102.32,139.03,107.22,135.33,105.1,131.87z"></path>				<path class="st2" d="M127.48,104.65c0.44-1.94,0.55-4.03-1.23-5c-0.19-0.1-0.37-0.18-0.55-0.24c-1.3-0.79-2.97-0.09-3.49,1.39     c-0.12,0.35-0.24,0.7-0.37,1.05c-1.26,2.24-2.14,5.5-2.71,7.93c-0.58,1.68-1.18,3.36-1.81,5.03c-1.74,4.59-4.33,9.39-4.18,14.42     c0.1,3.42,5.02,5.14,6.74,1.83c2.54-4.88,3.97-10.22,5.09-15.58l0.59-2.85c0.53-1.64,1.02-3.3,1.36-4.98     C127.12,106.7,127.36,105.67,127.48,104.65z"></path>				<path class="st2" d="M151.31,110.87c-2.28-1.71-3.67-4.7-5.44-6.92c-1.93-2.42-4.09-5.52-6.91-6.93c-1.86-0.92-4.81,0.66-3.9,3     c1.24,3.22,3.96,5.96,5.94,8.78c0.97,1.39,1.91,2.8,2.86,4.2c0.63,0.92,1.28,1.66,2.01,2.33c-0.24,0.36-0.5,0.71-0.72,1.05     c-0.59,0.91-1.19,1.82-1.81,2.71c-1.3,1.86-2.75,3.61-4.08,5.46c-2.27,3.15,2.76,6.97,5.36,4.14c2.25-2.46,4.18-5.29,6.04-8.06     c0.93-1.38,2.12-2.87,2.57-4.5C153.79,114.07,152.98,112.12,151.31,110.87z"></path>				<path class="st2" d="M137.82,148.16c0.44-0.44,0.74-1.03,0.83-1.77c0.17-1.45-0.72-3.34-2.34-3.59     c-2.48-0.38-5.03-0.26-7.53-0.28c-2.33-0.01-4.65-0.01-6.98,0.02c-4.76,0.07-9.51,0.19-14.27,0.36     c-9.53,0.34-19.14,0.67-28.53,2.42c-0.13,0.02-0.25,0.06-0.36,0.1c-0.32-0.12-0.64-0.24-0.95-0.36c-2.24-0.9-4.08,2.5-2.34,4.02     c7.39,6.47,17.77,6.09,27,5.93c5.5-0.1,11-0.18,16.5-0.32c5.48-0.14,11.03-0.05,16.5-0.44l0-0.03c1.73-0.02,3.25-1.23,3.49-3.06     C139,149.99,138.58,148.91,137.82,148.16z"></path>				<path class="st2" d="M170.82,122.73c-0.51-9.23-0.98-18.45-1.57-27.67c-0.28-4.38-0.54-8.75-1.13-13.09     c-0.27-1.99-0.68-3.96-1.19-5.9c-0.6-2.26-1.57-4.1-2.86-6.01c-0.91-1.35-2.42-1.23-3.26-0.35c-0.3-0.4-0.67-0.74-1.1-1.01     c-1.08-0.68-2.73-0.26-3.33,0.87c-0.5,0.95-0.38,1.94,0.21,2.71c0,0.02,0,0.05,0,0.07c0.05,0.38,0.1,0.75,0.27,1.09     c0.2,1.3,0.34,2.62,0.45,3.94c-0.93,0.08-39.45,3.47-41.76,3.81c0.68-0.41,1.27-0.95,1.8-1.63c0.75-0.97,0.43-2.59-0.24-3.46     c-0.73-0.94-2.09-1.51-3.28-1.12c-0.57,0.19-1.06,0.45-1.58,0.73c-0.07,0.04-0.48,0.23-0.54,0.27c-0.23,0.08-0.47,0.15-0.72,0.2     l-0.12,0.01c-0.21,0.01-0.41,0.01-0.62-0.01c-3.26-0.12-4.07,5.13-0.78,5.78c0.57,0.11,1.13,0.18,1.7,0.2     c-0.54,0.17-1.08,0.37-1.61,0.59c-0.62,0.26-0.94,0.81-1,1.41c-1.71,0.09-3.41,0.18-5.12,0.28c-6.27,0.37-12.65,0.43-18.82,1.74     c-2,0.42-1.25,3.04,0.44,3.26c6.28,0.82,12.69,0.4,19.01,0.35c6.13-0.05,52.8-0.67,53.85-0.73c0.07,1.58,1,20.6,1.45,28.52     c0.16,2.75,3.13,3.64,4.93,2.64l0.14,2.2C163.71,126.37,171.08,127.27,170.82,122.73z"></path>				<path class="st2" d="M91.88,76.39c-1.43-1.52-3.71-1.01-5.26,0.05c-1.18,0.81-2.02,1.93-2.61,3.22     c-0.44,0.96-0.42,2.04,0.36,2.82c0.73,0.73,1.93,0.88,2.82,0.36c0.19-0.11,0.38-0.21,0.58-0.31c-0.02,0.02,0.4-0.16,0.47-0.18     c0.2-0.08,0.4-0.16,0.6-0.25c0.43-0.18,0.47-0.2,0.14-0.06c0.42-0.18,0.83-0.35,1.23-0.56c-0.35,0.14-0.31,0.11,0.14-0.07     c0.21-0.08,0.42-0.17,0.61-0.28c0.51-0.3,1-0.71,1.3-1.22C92.92,78.79,92.76,77.34,91.88,76.39z"></path>				<path class="st2" d="M104.11,77.13c-1.28-0.12-2.32,0.51-3.5,0.86c-0.97,0.29-1.94,0.54-2.95,0.58     c-3.03,0.13-4.02,4.9-0.75,5.55c3.07,0.61,8.02,0.58,9.66-2.71C107.58,79.38,106.31,77.33,104.11,77.13z"></path>			</g>			<g>				<g>					<path class="st3" d="M136.93,150.03H78.92c-2.02,0-3.69-1.65-3.72-3.67L74.15,74.6c-0.05-3.21,2.53-5.86,5.73-5.92l78.79-1.32      c0.03,0,0.07,0,0.1,0c3.07,0,5.6,2.47,5.66,5.55l0.96,50.44c0.01,0.56-0.43,1.02-0.99,1.03c-0.67-0.04-1.02-0.44-1.03-0.99      l-0.96-50.44c-0.04-2-1.74-3.56-3.7-3.57l-78.79,1.32c-2.09,0.03-3.77,1.77-3.74,3.86l1.05,71.75c0.01,0.93,0.78,1.68,1.7,1.68      h58.01c0.56,0,1.01,0.45,1.01,1.01S137.49,150.03,136.93,150.03z"></path>				</g>				<g>					<path class="st3" d="M75.33,87.39c-0.55,0-1-0.44-1.01-0.99c-0.01-0.56,0.43-1.02,0.99-1.04l88.3-2.13      c0.58-0.05,1.02,0.43,1.04,0.99c0.01,0.56-0.43,1.02-0.99,1.04l-88.3,2.13C75.35,87.39,75.34,87.39,75.33,87.39z"></path>				</g>				<g>					<path class="st3" d="M88.07,81.83c-2.16,0-3.79-1.36-3.79-3.17c0-1.73,1.45-3.36,3.1-3.49c0.03,0,0.05,0,0.08,0h0.03      c1.99,0,3.61,1.59,3.61,3.54C91.11,80.52,89.83,81.83,88.07,81.83z M87.51,77.2c-0.58,0.07-1.2,0.82-1.2,1.47      c0,0.72,0.9,1.14,1.76,1.14c0.94,0,1.02-0.83,1.02-1.09C89.09,77.77,88.29,77.21,87.51,77.2z"></path>				</g>				<g>					<path class="st3" d="M98.94,81.83c-1.95,0-3.42-1.41-3.42-3.29c0-2.02,0.75-3.15,2.42-3.66c0.08-0.02,0.17-0.04,0.25-0.04      c0.01,0,0.23,0,0.24,0c2.33,0,3.96,1.35,3.96,3.28C102.39,79.91,101,81.83,98.94,81.83z M98.43,76.85      c-0.55,0.18-0.89,0.41-0.89,1.7c0,0.93,0.75,1.26,1.4,1.26c0.87,0,1.43-1,1.43-1.69C100.37,76.89,98.63,76.85,98.43,76.85      L98.43,76.85z"></path>				</g>				<g>					<path class="st3" d="M110.68,80.94c-1.85,0-3.92-1.35-3.92-3.28c0-1.75,1.98-2.83,3.32-3.13l0,0c0.22-0.05,0.45-0.07,0.72-0.07      c1.96,0,3.38,1.25,3.38,2.97C114.18,79.11,112.84,80.94,110.68,80.94z M110.8,76.47c-0.12,0-0.21,0.01-0.28,0.02l0,0      c-0.92,0.21-1.74,0.82-1.74,1.16c0,0.61,0.97,1.26,1.89,1.26c1.02,0,1.48-0.88,1.48-1.5C112.15,76.5,110.94,76.47,110.8,76.47z       M110.3,75.51h0.02H110.3z"></path>				</g>				<g>					<path class="st3" d="M155.88,165.47c-0.17,0-0.34-0.04-0.49-0.13l-18.56-10.22c-0.29-0.16-0.48-0.45-0.52-0.78      c-0.26-2.58-0.55-5.98-0.55-13.65c0-2.95,0.05-5.91,0.09-8.86l0.03-1.97c0.01-0.36,0.2-0.69,0.51-0.87      c5.95-3.35,13.38-7.87,18.94-11.51c0.33-0.21,0.74-0.22,1.07-0.02l18.06,10.76c0.29,0.18,0.48,0.49,0.49,0.83l0.89,21.07      c0.02,0.36-0.16,0.7-0.46,0.89c-0.43,0.28-0.85,0.57-1.26,0.88c-5.7,4.35-7.05,5.5-7.95,6.27c-1.19,1.01-1.55,1.32-9.71,7.13      C156.29,165.41,156.09,165.47,155.88,165.47z M138.27,153.61l17.54,9.66c7.59-5.41,7.94-5.71,9.05-6.66      c0.91-0.78,2.3-1.96,8.04-6.34c0.29-0.22,0.59-0.44,0.9-0.64l-0.85-19.96l-17.04-10.16c-5.37,3.5-12.31,7.72-18.02,10.95      l-0.02,1.39c-0.05,2.94-0.09,5.89-0.09,8.83C137.79,147.75,138.03,151.13,138.27,153.61z"></path>				</g>				<g>					<path class="st3" d="M156.48,143.28c-0.2,0-0.41-0.06-0.58-0.18l-18.47-13.02c-0.46-0.32-0.57-0.95-0.24-1.41      c0.32-0.46,0.95-0.57,1.41-0.24L156.44,141c4.88-3.87,11.69-9.1,16.64-12.87c0.44-0.34,1.08-0.25,1.42,0.19      c0.34,0.44,0.25,1.08-0.19,1.42c-5.14,3.92-12.3,9.42-17.2,13.32C156.92,143.2,156.7,143.28,156.48,143.28z"></path>				</g>				<g>					<path class="st3" d="M155.96,165.41c-0.56,0-1.01-0.45-1.01-1.01v-22.5c0-0.56,0.45-1.01,1.01-1.01c0.56,0,1.01,0.45,1.01,1.01      v22.5C156.97,164.96,156.52,165.41,155.96,165.41z"></path>				</g>				<g>					<path class="st3" d="M101.45,136.77c-0.08,0-0.16,0-0.24-0.01l0,0c-1.14-0.05-2.22-0.46-3.1-1.19      c-2.17-1.79-3.49-3.72-5.01-5.96c-1.73-2.54-3.89-5.71-8.45-10.25c-1.94-1.93-2.06-5.07-0.26-7.14      c3.54-4.1,7.16-8.85,11.4-14.94c1.65-2.37,4.92-2.96,7.29-1.32c2.37,1.65,2.96,4.92,1.32,7.29c-3.27,4.7-6.22,8.69-9.03,12.17      c3.13,3.5,5.01,6.25,6.4,8.29c1.21,1.77,2,2.94,3.02,3.78c1.08,0.89,1.75,2.15,1.88,3.54c0.13,1.39-0.28,2.76-1.18,3.83      C104.48,136.08,103.02,136.77,101.45,136.77z M101.29,134.74c1.04,0.03,1.98-0.38,2.63-1.17c1.13-1.37,0.93-3.4-0.43-4.53      c-1.24-1.03-2.1-2.29-3.4-4.2c-1.52-2.24-3.41-5.01-6.81-8.71c-0.34-0.37-0.36-0.93-0.04-1.32c2.93-3.59,6.04-7.76,9.48-12.72      c1.01-1.46,0.65-3.46-0.81-4.48c-1.46-1.01-3.46-0.65-4.47,0.81c-4.28,6.16-7.94,10.96-11.53,15.11      c-1.1,1.27-1.03,3.2,0.16,4.38c4.7,4.68,6.91,7.93,8.69,10.55c1.44,2.11,2.68,3.93,4.62,5.54      C99.94,134.46,100.59,134.71,101.29,134.74L101.29,134.74z"></path>				</g>				<g>					<path class="st3" d="M117.28,134.64c-0.24,0-0.48-0.02-0.73-0.05c-2.86-0.39-4.87-3.05-4.47-5.91      c0.81-5.88,4.92-18.83,8.22-28.65c0.92-2.74,3.89-4.21,6.64-3.3c1.33,0.45,2.4,1.38,3.02,2.63c0.62,1.25,0.72,2.68,0.28,4      c-4.4,13.1-7.23,22.85-7.78,26.75C122.1,132.69,119.87,134.64,117.28,134.64z M125.27,98.48c-1.34,0-2.6,0.85-3.05,2.19      c-3.28,9.75-7.35,22.57-8.14,28.28c-0.12,0.85,0.1,1.7,0.62,2.38c0.52,0.69,1.27,1.13,2.12,1.24c1.78,0.24,3.39-1.02,3.63-2.74      c0.56-4.02,3.42-13.9,7.86-27.12c0.27-0.82,0.21-1.69-0.17-2.46c-0.38-0.77-1.04-1.34-1.85-1.62      C125.96,98.54,125.61,98.48,125.27,98.48z"></path>				</g>				<g>					<path class="st3" d="M136.31,135.38c-2.5-1.51-3.29-4.74-1.79-7.21c2.76-4.56,5.94-8.78,9.02-12.87l0.54-0.71      c-3.13-3.93-6.34-8.21-8.99-12.9c-0.69-1.22-0.86-2.63-0.48-3.98c0.38-1.35,1.26-2.47,2.47-3.16c1.22-0.69,2.63-0.87,3.98-0.48      c1.35,0.38,2.47,1.25,3.16,2.47c2.93,5.19,6.99,10.21,10.56,14.63c1.5,1.85,1.56,4.48,0.15,6.4c-1,1.36-3.39,4.54-3.58,4.79      c-0.34,0.44-0.97,0.54-1.42,0.2c-0.44-0.34-0.53-0.97-0.2-1.42c0.19-0.25,2.57-3.42,3.57-4.77c0.87-1.18,0.83-2.79-0.09-3.93      c-3.63-4.49-7.74-9.57-10.75-14.91c-0.42-0.75-1.11-1.29-1.94-1.52c-0.83-0.24-1.69-0.13-2.44,0.3      c-0.75,0.42-1.29,1.11-1.52,1.94c-0.23,0.83-0.13,1.7,0.3,2.44c2.71,4.81,6.07,9.21,9.3,13.24c0.29,0.36,0.3,0.87,0.02,1.24      l-1.01,1.34c-3.05,4.05-6.19,8.23-8.9,12.7c-0.92,1.52-0.43,3.5,1.08,4.42L136.31,135.38z"></path>				</g>			</g>		</g>	</g></g></svg>