<svg xmlns="http://www.w3.org/2000/svg" xmlns:xlink="http://www.w3.org/1999/xlink" id="Layer_1" x="0px" y="0px" viewBox="0 0 256.67 269.62" style="enable-background:new 0 0 256.67 269.62;" xml:space="preserve"><style type="text/css">	.st0{fill:#EA4824;}	.st1{fill:#651313;}	.st2{fill:#F7B393;}	.st3{fill:#FFFFFF;}	.st4{fill:#EB4824;}	.st5{fill:#FCD7C3;}	.st6{fill:#D4BBB3;}</style><g>	<g>		<circle class="st0" cx="76.83" cy="156.9" r="12.46"></circle>		<path class="st1" d="M192.25,103.42c0,12.87-3.77,24.86-10.26,34.92c-1.08-0.21-2.2-0.31-3.34-0.31   c-10.41,0-18.87,8.47-18.87,18.87c0,0.83,0.05,1.64,0.16,2.43c-9.48,5.47-20.48,8.6-32.21,8.6c-11.74,0-22.73-3.15-32.21-8.64   c0.11-0.78,0.16-1.59,0.16-2.4c0-10.4-8.46-18.87-18.87-18.87c-1.13,0-2.25,0.1-3.32,0.3c-6.49-10.07-10.28-22.05-10.28-34.91   c0-35.63,28.89-64.51,64.51-64.51C163.37,38.91,192.25,67.8,192.25,103.42z"></path>		<path class="st0" d="M179.43,153.37v-2.45v-0.02c-3.89,4.52-8.34,8.51-13.31,11.89c-0.73,0.5-1.47,0.98-2.22,1.45   c-1.01,0.63-2.03,1.24-3.07,1.81c-0.26,0.15-0.53,0.29-0.79,0.43c-0.58,0.31-1.17,0.62-1.77,0.92c-0.01,0.01-0.02,0.01-0.04,0.02   c-8,3.98-16.7,6.35-25.57,7c-0.63,0.04-1.25,0.08-1.88,0.11c-0.36,0.02-0.73,0.04-1.09,0.04c-1.31,0.04-2.62,0.04-3.93,0   c-0.36-0.01-0.73-0.03-1.09-0.04c-0.63-0.02-1.25-0.06-1.88-0.11c-8.86-0.65-17.56-3.02-25.57-7c-0.01-0.01-0.03-0.02-0.04-0.02   c-0.6-0.29-1.19-0.6-1.77-0.92l-0.79-0.43c-1.03-0.58-2.06-1.17-3.07-1.81c-0.75-0.47-1.49-0.95-2.22-1.45   c-4.97-3.38-9.42-7.36-13.31-11.89v0.02v2.45c0,0.82-0.17,1.6-0.46,2.32c0.88,0.94,1.79,1.85,2.72,2.73   c0.06,0.05,0.11,0.1,0.16,0.15c0.8,0.76,1.62,1.5,2.46,2.22c0.38,0.32,0.75,0.64,1.14,0.95c0.44,0.37,0.89,0.73,1.34,1.09   c0.04,0.03,0.07,0.06,0.11,0.09c0.04,0.03,0.07,0.06,0.11,0.08c0.44,0.35,0.88,0.69,1.34,1.02c0.05,0.04,0.11,0.09,0.16,0.12   c0.24,0.18,0.48,0.36,0.73,0.54c0.5,0.36,1,0.7,1.51,1.05c0.37,0.25,0.74,0.5,1.11,0.74c0.41,0.27,0.81,0.53,1.22,0.78   c0.35,0.22,0.7,0.43,1.05,0.64c0.68,0.41,1.37,0.8,2.06,1.2c0.31,0.17,0.63,0.35,0.95,0.52c0.6,0.32,1.2,0.63,1.8,0.93   c0.01,0.01,0.03,0.01,0.04,0.02c9.23,4.64,19.13,7.11,29.02,7.51c0.36,0.01,0.72,0.03,1.07,0.04c0.31,0.01,0.62,0.02,0.92,0.02   c0.75,0.02,1.51,0.02,2.26,0c0.31,0,0.61-0.01,0.92-0.02c0.36-0.01,0.71-0.02,1.07-0.04c9.87-0.41,19.77-2.87,29-7.5   c0.01-0.01,0.02-0.01,0.04-0.02c0.6-0.3,1.2-0.61,1.8-0.93c0.02-0.01,0.04-0.01,0.06-0.04c0.31-0.16,0.61-0.33,0.91-0.5   c0.65-0.36,1.29-0.73,1.93-1.11c0.4-0.24,0.79-0.48,1.18-0.73c0.39-0.24,0.78-0.49,1.17-0.75c0.38-0.26,0.78-0.51,1.16-0.78   c4.3-2.92,8.23-6.29,11.77-10.04C179.6,154.97,179.43,154.19,179.43,153.37z"></path>		<circle class="st0" cx="178.65" cy="156.9" r="12.46"></circle>		<g>			<path class="st2" d="M143.68,112.12c-1.27,0-2.3,1.03-2.3,2.3c0,2.15-1.75,3.9-3.9,3.9h-3.99c2.15,0,3.89-1.75,3.9-3.9    c0-1.27,1.03-2.3,2.3-2.3H143.68z"></path>			<path class="st2" d="M105.95,130.81v-18.69h-3.99v18.69c0,1.52,1.23,2.74,2.75,2.75h3.99    C107.18,133.55,105.95,132.32,105.95,130.81z"></path>			<path class="st3" d="M108.61,100.81l-1.35-0.82l-0.25,0.41v3.07l1.59-2.62l0.02-0.03L108.61,100.81z M107.02,110.53v0.12h1.59    v-0.12H107.02z M148.18,101.49l-1.3,0.92l1.58,2.23v-2.76L148.18,101.49z"></path>			<path class="st3" d="M102.72,110.53l4.29-7.06v-3.07c0,0-6.64,10.62-6.64,10.92v19.48c0,2.4,1.94,4.34,4.34,4.34h46.05    c2.4,0,4.34-1.94,4.34-4.34v-19.48c0-0.32-6.64-9.44-6.64-9.44v2.76l4.17,5.88h-12.94c-2.15,0-3.89,1.75-3.9,3.9    c0,1.27-1.03,2.3-2.3,2.3h-11.51c-1.27,0-2.3-1.03-2.3-2.3c0-2.15-1.75-3.89-3.9-3.9 M153.51,130.81c0,1.52-1.23,2.74-2.75,2.74    h-46.05c-1.52,0-2.74-1.23-2.75-2.74v-18.69h13.82c1.27,0,2.3,1.03,2.3,2.3c0,2.15,1.75,3.9,3.9,3.9h11.51    c2.15,0,3.89-1.75,3.9-3.9c0-1.27,1.03-2.3,2.3-2.3h13.82V130.81z"></path>			<path class="st3" d="M118.88,126.29h17.71c0.44,0,0.8-0.36,0.8-0.8v-3.54c0-0.44-0.36-0.8-0.8-0.8h-17.71    c-0.44,0-0.8,0.36-0.8,0.8v3.54C118.09,125.93,118.44,126.29,118.88,126.29z M119.68,122.75h16.12v1.95h-16.12V122.75z"></path>			<g>				<path class="st4" d="M136.64,79.65v-5.23l9.12,9.1h-5.25C138.38,83.52,136.64,81.79,136.64,79.65z M129.88,85.65v-5.23l9.12,9.1     h-5.25C131.62,89.52,129.89,87.78,129.88,85.65z M148.23,83.73l-11.79-11.77c-0.13-0.13-0.3-0.21-0.48-0.23l-0.25-0.03     c-0.03,0-0.05,0-0.08,0h-16.38c-3.02,0-5.46,2.45-5.47,5.47v0.53h-1.3c-3.02,0-5.46,2.45-5.47,5.47v27.35h1.59V83.16     c0-2.14,1.73-3.87,3.87-3.87h15.81v6.35c0,3.02,2.45,5.46,5.47,5.47h6.35v19.41h1.59V90.29c0-0.21-0.08-0.41-0.23-0.56     l-11.79-11.77c-0.13-0.13-0.3-0.21-0.48-0.23l-0.25-0.03c-0.03,0-0.05,0-0.08,0h-13.49v-0.53c0-2.14,1.73-3.87,3.87-3.87h15.81     v6.35c0,3.02,2.45,5.46,5.47,5.47h6.35v25.41h1.59V84.29C148.46,84.08,148.38,83.88,148.23,83.73L148.23,83.73z"></path>				<path class="st4" d="M123.67,102.48c-0.44,0-0.8,0.36-0.8,0.8c0,0.44,0.36,0.8,0.8,0.8H126c0.44,0,0.8-0.36,0.8-0.8     c0-0.44-0.36-0.8-0.8-0.8H123.67z"></path>				<path class="st4" d="M134.84,97.44c0-0.44-0.36-0.8-0.8-0.8h-19.37c-0.44,0-0.8,0.36-0.8,0.8c0,0.44,0.36,0.8,0.8,0.8h19.37     C134.49,98.24,134.84,97.88,134.84,97.44z"></path>				<path class="st4" d="M114.67,102.48c-0.44,0-0.8,0.36-0.8,0.8c0,0.44,0.36,0.8,0.8,0.8h6.04c0.44,0,0.8-0.36,0.8-0.8     c0-0.44-0.36-0.8-0.8-0.8H114.67z"></path>			</g>		</g>	</g>	<g>		<path class="st1" d="M66.08,230.37v-29.43h9.31c3.23,0,5.96,0.56,8.18,1.69c2.23,1.13,3.92,2.78,5.07,4.97   c1.15,2.19,1.73,4.86,1.73,8.04c0,3.17-0.58,5.86-1.73,8.06c-1.15,2.2-2.85,3.86-5.07,4.99c-2.23,1.13-4.95,1.69-8.18,1.69H66.08z    M68.67,228.08h6.51c4.2,0,7.33-1.04,9.39-3.11c2.06-2.07,3.09-5.18,3.09-9.33c0-4.18-1.03-7.29-3.09-9.35   c-2.06-2.06-5.19-3.09-9.39-3.09h-6.51V228.08z"></path>		<path class="st1" d="M105.53,230.71c-3.17,0-5.68-0.95-7.53-2.84c-1.85-1.89-2.78-4.52-2.78-7.89c0-2.23,0.41-4.15,1.23-5.76   c0.82-1.61,1.97-2.87,3.44-3.78c1.48-0.9,3.19-1.36,5.14-1.36c1.86,0,3.44,0.4,4.72,1.19c1.28,0.79,2.27,1.92,2.96,3.38   c0.7,1.46,1.04,3.19,1.04,5.2v1.17h-16.7v-1.84h15.11l-0.71,0.54c0-2.37-0.54-4.22-1.63-5.57c-1.09-1.35-2.7-2.03-4.84-2.03   c-2.28,0-4.06,0.79-5.34,2.36c-1.28,1.57-1.92,3.65-1.92,6.24v0.29c0,2.78,0.69,4.9,2.07,6.35c1.38,1.45,3.3,2.17,5.78,2.17   c1.28,0,2.48-0.19,3.59-0.58c1.11-0.39,2.19-1.06,3.21-2l1.04,1.88c-0.89,0.92-2.05,1.63-3.46,2.13   C108.54,230.46,107.06,230.71,105.53,230.71z"></path>		<path class="st1" d="M119.22,230.37v-30.73h2.55v30.73H119.22z"></path>		<path class="st1" d="M128.32,204.32v-3.17h3.42v3.17H128.32z M128.74,230.37v-20.92h2.55v20.92H128.74z"></path>		<path class="st1" d="M144.44,230.37l-8.89-20.92h2.84l7.93,19.33h-1.08l8.02-19.33h2.71l-8.89,20.92H144.44z"></path>		<path class="st1" d="M168.9,230.71c-3.17,0-5.68-0.95-7.53-2.84c-1.85-1.89-2.78-4.52-2.78-7.89c0-2.23,0.41-4.15,1.23-5.76   c0.82-1.61,1.97-2.87,3.44-3.78c1.48-0.9,3.19-1.36,5.14-1.36c1.86,0,3.44,0.4,4.72,1.19c1.28,0.79,2.27,1.92,2.96,3.38   c0.7,1.46,1.04,3.19,1.04,5.2v1.17h-16.7v-1.84h15.11l-0.71,0.54c0-2.37-0.54-4.22-1.63-5.57c-1.09-1.35-2.7-2.03-4.84-2.03   c-2.28,0-4.06,0.79-5.34,2.36c-1.28,1.57-1.92,3.65-1.92,6.24v0.29c0,2.78,0.69,4.9,2.07,6.35c1.38,1.45,3.3,2.17,5.78,2.17   c1.28,0,2.48-0.19,3.59-0.58c1.11-0.39,2.19-1.06,3.21-2l1.04,1.88c-0.89,0.92-2.05,1.63-3.46,2.13   C171.91,230.46,170.43,230.71,168.9,230.71z"></path>		<path class="st1" d="M182.55,230.37v-16.03c0-0.81-0.02-1.62-0.06-2.44c-0.04-0.82-0.12-1.63-0.23-2.44h2.51l0.33,4.8l-0.5,0.04   c0.28-1.17,0.78-2.14,1.5-2.9c0.72-0.76,1.56-1.34,2.51-1.73c0.95-0.39,1.92-0.59,2.92-0.59c0.36,0,0.7,0.02,1.02,0.06   c0.32,0.04,0.62,0.1,0.9,0.19l-0.08,2.3c-0.33-0.11-0.67-0.18-1-0.21c-0.33-0.03-0.7-0.04-1.08-0.04c-1.25,0-2.35,0.31-3.28,0.92   c-0.93,0.61-1.65,1.39-2.15,2.34c-0.5,0.95-0.75,1.91-0.75,2.88v12.86H182.55z"></path>	</g></g></svg>