<svg xmlns="http://www.w3.org/2000/svg" xmlns:xlink="http://www.w3.org/1999/xlink" id="Layer_1" x="0px" y="0px" viewBox="0 0 125 125" style="enable-background:new 0 0 125 125;" xml:space="preserve"><style type="text/css">	.st0{fill:#FCD7C3;}	.st1{fill:#660E0D;}	.st2{fill:#EA4824;}	.st3{fill:#231F20;}	.st4{fill:#ED4623;}</style><g>	<g>		<g>			<g>				<path class="st0" d="M83.4,39.6l-0.1,0.1l-12.6,8.6c-2,1-4.2,1.3-6.4,0.9l-9.1-1.7c-1-0.2-2-0.1-2.9,0.4c0,0,0,0,0,0l-3.8,2.4     l0.8,2.5l4.2-2.6c0,0,0,0,0,0c0.9-0.5,2-0.6,2.9-0.4l9.1,1.7c2.2,0.4,4.4,0.1,6.4-0.9L87,40.1C86,39.2,84.6,38.9,83.4,39.6z"></path>			</g>			<g>				<path class="st1" d="M82,38.6l-0.2,0.1c-1.1-1.3-2.9-1.8-4.3-1.1c0,0,0,0,0,0L76.9,38c-1.5-1.3-3.6-1.5-5.3-0.5l-3.3,1.8h-4.4     c-0.9,0-1.9-0.2-2.7-0.6l-0.6-0.3c-3.5-1.7-7.7-1.3-10.8,1.1c0,0,0,0,0,0l-1.5,1.3c-0.5,0.5-1.2,0.8-1.9,1.1l-0.8-2.7     c-0.1-0.3-0.4-0.5-0.6-0.5h-7c-0.2,0-0.4,0.1-0.5,0.2c-0.1,0.2-0.2,0.3-0.2,0.5l2.4,19.2c0,0.3,0.3,0.6,0.7,0.6h10.6     c0.2,0,0.4-0.1,0.5-0.3c0.1-0.2,0.2-0.4,0.1-0.6l-1.4-4.5l4.3-2.7c0.6-0.3,1.2-0.4,1.9-0.2c0,0,0,0,0,0l8.8,1.6     c2.4,0.4,4.9,0.1,7-1c0,0,0.1,0,0.1,0L87.4,41c0.3-0.2,0.4-0.6,0.2-0.9C86.5,38.2,84,37.5,82,38.6z M78.2,38.8     c0.8-0.4,1.8-0.1,2.4,0.5l-5.7,3.1l-0.3,0.2c-0.2-0.5-0.4-1-0.8-1.4L78.2,38.8z M72.3,38.7L72.3,38.7c1.1-0.6,2.3-0.6,3.3,0     l-2.9,1.6c-0.5-0.4-1.2-0.7-1.8-0.8L72.3,38.7z M40.9,57.9L38.7,40h5.8l5.5,17.9H40.9z M71.5,50.3c-1.9,0.9-4.1,1.2-6.2,0.9     l-8.8-1.6c-1-0.2-2-0.1-2.9,0.4c0,0,0,0,0,0l-4,2.5l-2.9-9.4c0.9-0.3,1.7-0.7,2.4-1.3l1.4-1.3c2.7-2,6.3-2.4,9.4-0.9l0.6,0.3     c1,0.5,2.2,0.8,3.3,0.8h5.8c1.8,0,3.3,1.2,3.6,2.9l-4.2-0.2c-1.5-0.1-3.1,0-4.6,0.2C64.2,43.7,64,44,64,44.4     c0,0.4,0.4,0.6,0.8,0.6c1.5-0.2,2.9-0.3,4.4-0.2l5,0.2c0,0,0,0,0,0c0.4,0,0.7-0.3,0.7-0.7c0-0.1,0-0.2,0-0.3l0.7-0.4l7.2-3.9     c1.1-0.6,2.5-0.4,3.4,0.5L71.5,50.3z"></path>			</g>			<g>				<path class="st1" d="M42.9,55.2c0,1.1,0.9,2.1,2.1,2.1c1.1,0,2.1-0.9,2.1-2.1c0-1.1-0.9-2.1-2.1-2.1     C43.9,53.1,42.9,54,42.9,55.2z M45,54.4c0.4,0,0.7,0.3,0.7,0.7c0,0.4-0.3,0.7-0.7,0.7c-0.4,0-0.7-0.3-0.7-0.7     C44.3,54.8,44.6,54.4,45,54.4L45,54.4z"></path>			</g>			<g>				<g>					<path class="st2" d="M78.3,18.9c-0.2-0.3-0.5-0.5-0.9-0.5l-9.7-1.2c-0.7-0.1-1.4,0.4-1.5,1.1c-0.3,1.6-0.4,3.3-0.5,5H48.5      c-0.2,0-0.4,0.1-0.6,0.3l-1.4,2.1c-0.2,0.2-0.2,0.5,0,0.7l1.4,2.1c0.1,0.2,0.3,0.3,0.6,0.3h1.8l1,1.3c0.1,0.2,0.3,0.2,0.5,0.3      c0.2,0,0.4-0.1,0.5-0.2l0.8-1l0.9,1c0.1,0.2,0.3,0.2,0.5,0.2c0.2,0,0.4-0.1,0.5-0.3l0.9-1.3h9.6c0.1,1.7,0.3,3.4,0.5,5      c0.1,0.7,0.7,1.2,1.3,1.2c0.1,0,0.1,0,0.2,0l9.7-1.2c0.4,0,0.7-0.2,0.9-0.5c0.2-0.3,0.3-0.7,0.2-1.1c-0.2-1.3-0.6-3.7-0.6-5.9      c0-2.3,0.5-5.2,0.7-6.4C78.6,19.5,78.5,19.2,78.3,18.9z M77.2,32.4l-9.7,1.2l0,0c-0.3-1.8-0.5-3.7-0.5-5.5      c0-0.4-0.3-0.7-0.7-0.7H55.7c-0.2,0-0.4,0.1-0.5,0.3l-0.6,0.9l-0.9-0.9c-0.1-0.1-0.3-0.2-0.5-0.2c-0.2,0-0.4,0.1-0.5,0.2      l-0.8,0.9l-0.7-0.9c-0.1-0.2-0.3-0.3-0.5-0.3h-1.7L47.9,26l0.9-1.4h17.4c0.4,0,0.7-0.3,0.7-0.7c0.1-1.8,0.3-3.7,0.5-5.5      l9.7,1.2c-0.3,1.5-0.7,4.3-0.7,6.6C76.5,28.5,76.9,31.1,77.2,32.4z"></path>				</g>				<g>					<path class="st2" d="M75,21.9c0-0.4-0.2-0.7-0.6-0.7l-2.2-0.3c-0.3,0-0.6,0.2-0.7,0.5l-1.4,4.4c0,0.1,0,0.3,0,0.4l1.4,4.4      c0.1,0.3,0.4,0.5,0.6,0.5c0,0,0.1,0,0.1,0l2.2-0.3c0.4,0,0.6-0.4,0.6-0.7l-0.1-2c-0.1-1.4-0.1-2.9,0-4.3L75,21.9z M73.5,28.3      l0.1,1.3l-1,0.1L71.4,26l1.2-3.7l1,0.1l-0.1,1.3C73.4,25.3,73.4,26.8,73.5,28.3z"></path>				</g>			</g>		</g>		<g>			<g>				<path class="st3" d="M38.7,90.8v-8.2h1.1v3.6h4.8v-3.6h1.1v8.2h-1.1v-3.7h-4.8v3.7H38.7z"></path>			</g>			<g>				<path class="st3" d="M50,90.9c-0.6,0-1.1-0.1-1.5-0.4c-0.4-0.2-0.7-0.6-1-1c-0.2-0.5-0.4-1-0.4-1.6c0-0.6,0.1-1.2,0.4-1.6     c0.2-0.5,0.5-0.8,1-1c0.4-0.2,0.9-0.4,1.5-0.4c0.6,0,1.1,0.1,1.5,0.4c0.4,0.2,0.7,0.6,1,1c0.2,0.5,0.3,1,0.3,1.6     c0,0.6-0.1,1.2-0.3,1.6c-0.2,0.5-0.5,0.8-1,1C51.1,90.8,50.6,90.9,50,90.9z M50,90.1c0.5,0,0.9-0.2,1.3-0.5     c0.3-0.4,0.5-0.9,0.5-1.6s-0.2-1.3-0.5-1.6c-0.3-0.4-0.7-0.5-1.3-0.5c-0.5,0-1,0.2-1.3,0.5c-0.3,0.4-0.5,0.9-0.5,1.6     s0.2,1.3,0.5,1.6C49,89.9,49.5,90.1,50,90.1z"></path>			</g>			<g>				<path class="st3" d="M54.2,90.8v-4.5c0-0.2,0-0.5,0-0.7c0-0.2,0-0.5-0.1-0.7h1l0.1,1.3h-0.1c0.2-0.4,0.5-0.8,0.8-1     c0.4-0.2,0.8-0.4,1.3-0.4c0.7,0,1.2,0.2,1.6,0.6c0.4,0.4,0.5,1,0.5,1.7v3.6h-1.1v-3.6c0-0.5-0.1-0.9-0.3-1.2     c-0.2-0.2-0.5-0.4-1-0.4c-0.5,0-0.9,0.2-1.3,0.5c-0.3,0.3-0.5,0.7-0.5,1.3v3.3L54.2,90.8L54.2,90.8z"></path>			</g>			<g>				<path class="st3" d="M63.7,90.9c-0.9,0-1.7-0.3-2.2-0.8s-0.8-1.3-0.8-2.2c0-0.6,0.1-1.2,0.4-1.6c0.2-0.5,0.6-0.8,1-1.1     c0.4-0.2,0.9-0.4,1.5-0.4c0.5,0,1,0.1,1.4,0.3s0.7,0.5,0.9,1c0.2,0.4,0.3,0.9,0.3,1.5V88h-4.5v-0.6h3.8l-0.2,0.2     c0-0.6-0.1-1.1-0.4-1.4c-0.3-0.3-0.7-0.5-1.2-0.5c-0.6,0-1,0.2-1.3,0.6c-0.3,0.4-0.5,0.9-0.5,1.6V88c0,0.7,0.2,1.3,0.5,1.6     c0.4,0.4,0.8,0.5,1.5,0.5c0.4,0,0.7,0,1-0.2c0.3-0.1,0.6-0.3,0.9-0.5l0.4,0.7c-0.3,0.2-0.6,0.4-1,0.5     C64.6,90.9,64.1,90.9,63.7,90.9z"></path>			</g>			<g>				<path class="st3" d="M69.4,90.9c-0.5,0-0.9-0.1-1.3-0.2c-0.4-0.1-0.7-0.3-1-0.5l0.3-0.7c0.3,0.2,0.6,0.4,0.9,0.5     c0.4,0.1,0.7,0.2,1.1,0.2c0.4,0,0.8-0.1,1-0.2c0.2-0.2,0.3-0.4,0.3-0.7c0-0.2-0.1-0.4-0.2-0.5c-0.2-0.1-0.4-0.2-0.7-0.3     l-1.1-0.2c-0.5-0.1-0.9-0.3-1.1-0.6c-0.2-0.3-0.4-0.6-0.4-1c0-0.3,0.1-0.6,0.3-0.9c0.2-0.3,0.5-0.5,0.8-0.6s0.7-0.2,1.2-0.2     c0.4,0,0.8,0.1,1.2,0.2c0.4,0.1,0.7,0.3,0.9,0.5l-0.4,0.7c-0.2-0.2-0.5-0.4-0.8-0.5c-0.3-0.1-0.6-0.2-0.9-0.2     c-0.4,0-0.8,0.1-1,0.3c-0.2,0.2-0.3,0.4-0.3,0.7c0,0.2,0.1,0.4,0.2,0.5s0.4,0.2,0.6,0.3l1.1,0.2c0.5,0.1,0.9,0.3,1.2,0.5     c0.3,0.2,0.4,0.6,0.4,1c0,0.4-0.1,0.7-0.3,0.9c-0.2,0.3-0.5,0.5-0.8,0.6C70.3,90.9,69.8,90.9,69.4,90.9z"></path>			</g>			<g>				<path class="st3" d="M75.3,90.9c-0.6,0-1.1-0.2-1.4-0.5c-0.3-0.3-0.5-0.8-0.5-1.5v-3.1h-1.1V85h1.1v-1.6l1.1-0.3V85h1.6v0.8     h-1.6v3c0,0.4,0.1,0.8,0.2,1c0.2,0.2,0.4,0.3,0.7,0.3c0.2,0,0.3,0,0.4,0c0.1,0,0.2-0.1,0.3-0.1v0.9c-0.1,0-0.2,0.1-0.4,0.1     C75.6,90.9,75.4,90.9,75.3,90.9z"></path>			</g>			<g>				<path class="st3" d="M87,90.9c-0.4-0.2-0.7-0.4-1-0.6c-0.3-0.2-0.6-0.5-0.8-0.7h0.3c-0.3,0.4-0.7,0.7-1.2,0.9s-1,0.3-1.5,0.3     c-0.6,0-1.1-0.1-1.5-0.3c-0.4-0.2-0.7-0.4-0.9-0.7c-0.2-0.3-0.3-0.7-0.3-1.1c0-0.5,0.2-1,0.5-1.4c0.3-0.4,0.7-0.7,1.3-1.1     l0.4-0.2L82,86.3c-0.4-0.4-0.6-0.7-0.8-1C81,85,81,84.7,81,84.3c0-0.4,0.1-0.7,0.3-0.9c0.2-0.3,0.4-0.5,0.7-0.6     c0.3-0.2,0.7-0.2,1.1-0.2c0.5,0,1,0.2,1.4,0.5c0.4,0.3,0.5,0.7,0.5,1.2c0,0.3-0.1,0.5-0.2,0.8c-0.1,0.2-0.3,0.5-0.5,0.7     c-0.3,0.2-0.6,0.5-1.1,0.7l0-0.2l2.2,2.4h-0.2c0.2-0.3,0.4-0.7,0.5-1.2c0.1-0.5,0.2-0.9,0.2-1.5h0.9c0,0.6-0.1,1.2-0.3,1.8     c-0.2,0.5-0.4,1-0.7,1.5l0-0.3c0.2,0.2,0.4,0.4,0.7,0.6c0.3,0.2,0.6,0.4,0.9,0.5L87,90.9z M82.7,90.1c0.4,0,0.8-0.1,1.2-0.3     c0.4-0.2,0.7-0.4,0.9-0.8l0,0.3l-2.5-2.6h0.4l-0.4,0.2c-0.3,0.2-0.6,0.4-0.8,0.6c-0.2,0.2-0.4,0.4-0.4,0.6     c-0.1,0.2-0.2,0.4-0.2,0.7c0,0.4,0.2,0.7,0.4,1C81.8,90,82.2,90.1,82.7,90.1z M83.1,83.3c-0.3,0-0.6,0.1-0.8,0.3     c-0.2,0.2-0.3,0.4-0.3,0.8c0,0.2,0,0.3,0.1,0.5c0.1,0.1,0.2,0.3,0.3,0.5c0.1,0.2,0.3,0.4,0.5,0.6l-0.3,0     c0.5-0.3,0.9-0.6,1.1-0.9c0.2-0.2,0.4-0.5,0.4-0.8c0-0.3-0.1-0.5-0.3-0.7C83.6,83.4,83.4,83.3,83.1,83.3z"></path>			</g>			<g>				<path class="st3" d="M41.9,104.8v-8.2h0.7v8.2H41.9z"></path>			</g>			<g>				<path class="st3" d="M44.6,104.8v-4.5c0-0.2,0-0.4,0-0.6c0-0.2,0-0.4-0.1-0.7h0.7l0.1,1.3h-0.1c0.2-0.5,0.4-0.8,0.8-1.1     c0.4-0.2,0.8-0.4,1.3-0.4c0.7,0,1.2,0.2,1.6,0.5c0.4,0.4,0.5,0.9,0.5,1.7v3.7h-0.7v-3.6c0-0.6-0.1-1-0.4-1.3     c-0.2-0.3-0.6-0.4-1.1-0.4c-0.6,0-1.1,0.2-1.4,0.5c-0.4,0.4-0.5,0.8-0.5,1.4v3.3L44.6,104.8L44.6,104.8z"></path>			</g>			<g>				<path class="st3" d="M53.2,104.9c-0.5,0-0.9-0.2-1.2-0.5c-0.3-0.3-0.4-0.8-0.4-1.4v-3.5h-1.2V99h1.2v-1.6l0.7-0.2V99H54v0.6     h-1.7v3.3c0,0.5,0.1,0.8,0.2,1.1c0.2,0.2,0.4,0.3,0.7,0.3c0.2,0,0.3,0,0.4,0c0.1,0,0.2-0.1,0.3-0.1v0.6c-0.1,0-0.2,0.1-0.4,0.1     C53.5,104.8,53.4,104.9,53.2,104.9z"></path>			</g>			<g>				<path class="st3" d="M57.7,104.9c-0.9,0-1.6-0.3-2.1-0.8c-0.5-0.5-0.8-1.3-0.8-2.2c0-0.6,0.1-1.2,0.3-1.6s0.5-0.8,1-1.1     c0.4-0.3,0.9-0.4,1.4-0.4c0.5,0,1,0.1,1.3,0.3c0.4,0.2,0.6,0.5,0.8,0.9c0.2,0.4,0.3,0.9,0.3,1.5v0.3h-4.6v-0.5h4.2l-0.2,0.2     c0-0.7-0.2-1.2-0.5-1.6c-0.3-0.4-0.7-0.6-1.3-0.6c-0.6,0-1.1,0.2-1.5,0.7c-0.4,0.4-0.5,1-0.5,1.7v0.1c0,0.8,0.2,1.4,0.6,1.8     c0.4,0.4,0.9,0.6,1.6,0.6c0.4,0,0.7-0.1,1-0.2c0.3-0.1,0.6-0.3,0.9-0.5l0.3,0.5c-0.2,0.3-0.6,0.5-1,0.6     C58.5,104.8,58.1,104.9,57.7,104.9z"></path>			</g>			<g>				<path class="st3" d="M64,107.3c-0.5,0-0.9-0.1-1.4-0.2c-0.4-0.1-0.8-0.3-1.1-0.6l0.2-0.5c0.2,0.2,0.5,0.3,0.7,0.4     c0.2,0.1,0.5,0.2,0.7,0.2s0.5,0.1,0.8,0.1c0.6,0,1-0.2,1.3-0.5c0.3-0.3,0.5-0.8,0.5-1.4v-1.8h0.1c-0.1,0.5-0.4,0.9-0.8,1.1     c-0.4,0.3-0.9,0.4-1.4,0.4c-0.5,0-1-0.1-1.4-0.4c-0.4-0.2-0.7-0.6-0.9-1c-0.2-0.4-0.3-0.9-0.3-1.5c0-0.6,0.1-1.1,0.3-1.5     s0.5-0.8,0.9-1c0.4-0.2,0.9-0.4,1.4-0.4c0.5,0,1,0.1,1.4,0.4c0.4,0.3,0.7,0.7,0.8,1.2l-0.1-0.1l0.1-1.3h0.7     c0,0.2-0.1,0.4-0.1,0.7s0,0.4,0,0.6v4.6c0,0.8-0.2,1.5-0.6,1.9C65.4,107.1,64.8,107.3,64,107.3z M63.8,104     c0.6,0,1.1-0.2,1.4-0.6c0.4-0.4,0.5-1,0.5-1.7c0-0.7-0.2-1.3-0.5-1.7c-0.4-0.4-0.8-0.6-1.4-0.6c-0.6,0-1.1,0.2-1.4,0.6     c-0.4,0.4-0.5,1-0.5,1.7c0,0.7,0.2,1.3,0.5,1.7C62.7,103.8,63.2,104,63.8,104z"></path>			</g>			<g>				<path class="st3" d="M68.4,104.8v-4.5c0-0.2,0-0.5,0-0.7c0-0.2,0-0.5-0.1-0.7H69l0.1,1.3l-0.1,0c0.1-0.3,0.2-0.6,0.4-0.8     s0.4-0.4,0.7-0.5c0.3-0.1,0.5-0.2,0.8-0.2c0.1,0,0.2,0,0.3,0c0.1,0,0.2,0,0.2,0l0,0.6c-0.1,0-0.2,0-0.3-0.1c-0.1,0-0.2,0-0.3,0     c-0.4,0-0.7,0.1-0.9,0.3c-0.3,0.2-0.5,0.4-0.6,0.7c-0.1,0.3-0.2,0.5-0.2,0.8v3.6L68.4,104.8L68.4,104.8z"></path>			</g>			<g>				<path class="st3" d="M72.3,97.5v-0.9h0.9v0.9H72.3z M72.5,104.8v-5.8h0.7v5.8H72.5z"></path>			</g>			<g>				<path class="st3" d="M77,104.9c-0.5,0-0.9-0.2-1.2-0.5c-0.3-0.3-0.4-0.8-0.4-1.4v-3.5h-1.2V99h1.2v-1.6l0.7-0.2V99h1.7v0.6h-1.7     v3.3c0,0.5,0.1,0.8,0.2,1.1c0.2,0.2,0.4,0.3,0.7,0.3c0.2,0,0.3,0,0.4,0c0.1,0,0.2-0.1,0.3-0.1v0.6c-0.1,0-0.2,0.1-0.4,0.1     C77.3,104.8,77.1,104.9,77,104.9z"></path>			</g>			<g>				<path class="st3" d="M78.8,107.4l-0.2-0.6c0.4-0.1,0.7-0.2,0.9-0.3c0.2-0.1,0.4-0.3,0.6-0.5c0.2-0.2,0.3-0.4,0.4-0.7l0.3-0.7     l0,0.3l-2.6-6h0.8l2.2,5.4H81l2.2-5.4H84l-2.7,6.4c-0.2,0.4-0.3,0.7-0.5,0.9c-0.2,0.2-0.4,0.4-0.6,0.6c-0.2,0.2-0.4,0.3-0.7,0.4     C79.4,107.3,79.1,107.3,78.8,107.4z"></path>			</g>		</g>	</g>	<g>		<g>			<g>				<g>					<path class="st1" d="M79.1-11.3C58.9-11.2,18.3-11-1.9-11l0.3-0.2C-2-10.4-2.9-10-3.7-10c-0.8,0-1.7-0.4-2.2-1l0.4,0.2      c-2.5,0.7-4.6,2.7-5.3,5.3L-10.9-6c0.7,0.5,1,1.3,1,2.2c0,0.8-0.5,1.6-1.2,2L-11-2l-0.1,22.5L-11.2,43      c-0.1-11.2-0.2-33.8-0.3-45v-0.1c0.6-0.4,0.9-1,0.9-1.7c0-0.7-0.4-1.3-1-1.7l0.1-0.2c0.7-2.9,3.1-5.3,6.1-5.9l0.2,0.2      c0.4,0.5,0.9,0.8,1.6,0.8c0.7,0,1.3-0.4,1.7-1h0.2C18.3-11.6,58.9-11.5,79.1-11.3L79.1-11.3z"></path>				</g>			</g>		</g>		<g>			<path class="st4" d="M122.5,127.2H2.5c-2.6,0-4.7-2.1-4.7-4.7V2.5c0-2.6,2.1-4.7,4.7-4.7h119.9c2.6,0,4.7,2.1,4.7,4.7v119.9    C127.2,125.1,125.1,127.2,122.5,127.2z M2.5-1.6c-2.3,0-4.1,1.9-4.1,4.1v119.9c0,2.3,1.9,4.1,4.1,4.1h119.9    c2.3,0,4.1-1.9,4.1-4.1V2.5c0-2.3-1.9-4.1-4.1-4.1C122.4-1.6,2.5-1.6,2.5-1.6z"></path>		</g>		<g>			<g>				<g>					<path class="st1" d="M45.9,136.3c20.2-0.1,60.8-0.3,81-0.4l-0.3,0.2c0.5-0.7,1.3-1.1,2.1-1.2c0.8,0,1.7,0.4,2.2,1l-0.4-0.2      c2.5-0.7,4.6-2.7,5.3-5.3l0.1,0.4c-0.7-0.5-1-1.3-1-2.2c0-0.8,0.5-1.6,1.2-2L136,127l0.1-22.5l0.2-22.5      c0.1,11.2,0.2,33.8,0.3,45v0.1c-0.6,0.4-0.9,1-0.9,1.7c0,0.7,0.4,1.3,1,1.7l-0.1,0.2c-0.7,2.9-3.1,5.3-6.1,5.9l-0.2-0.2      c-0.4-0.5-0.9-0.8-1.6-0.8c-0.7,0-1.3,0.4-1.7,1h-0.2C106.7,136.6,66.1,136.5,45.9,136.3L45.9,136.3z"></path>				</g>			</g>		</g>	</g></g></svg>