<svg xmlns="http://www.w3.org/2000/svg" xmlns:xlink="http://www.w3.org/1999/xlink" id="Layer_1" x="0px" y="0px" viewBox="0 0 125 125" style="enable-background:new 0 0 125 125;" xml:space="preserve"><style type="text/css">	.st0{fill:#FCD7C3;}	.st1{fill:#660E0D;}	.st2{fill:#EA4824;}	.st3{fill:#231F20;}	.st4{fill:#ED4623;}</style><g>	<g>		<g>			<g>				<polygon class="st0" points="41.9,53.9 47.2,53.9 46.8,52.8 40.7,52.8 43,71.6 44,71.6     "></polygon>			</g>			<g>				<path class="st0" d="M67.3,58c-0.1,0-0.3,0-0.4-0.1c-0.4,0.2-0.5,0.6-0.4,0.9c0.1,0.3,0.4,0.5,0.8,0.4c1.5-0.2,3.1-0.3,4.6-0.2     l5.3,0.2c0,0,0,0,0,0c0.4,0,0.7-0.3,0.7-0.7l0,0c0-0.1,0-0.2,0-0.3l0.7-0.4l7.6-4.1c0.8-0.4,1.8-0.5,2.6-0.1l0.9-0.7     c-0.9-1-2.4-1.2-3.6-0.6l-7.6,4.1L77.9,57c0,0.1,0,0.2,0,0.3c0,0.4-0.3,0.7-0.7,0.7l0,0c0,0,0,0,0,0l-5.3-0.2     C70.4,57.8,68.8,57.8,67.3,58z"></path>			</g>			<g>				<path class="st0" d="M50.9,56l1.5-1.4c2.9-2.1,6.7-2.5,9.9-0.9l0.6,0.3c1.1,0.5,2.3,0.8,3.5,0.8h6.2c1.3,0,2.6,0.7,3.3,1.8     l0.5,0c-0.4-1.8-1.9-3.1-3.8-3.1h-6.2c-1.2,0-2.4-0.3-3.5-0.8l-0.6-0.3c-3.2-1.6-7-1.2-9.9,0.9l-1.5,1.4     c-0.7,0.6-1.6,1.1-2.5,1.4l0.4,1.2C49.5,57,50.3,56.5,50.9,56z"></path>			</g>			<g>				<path class="st1" d="M85.4,51.5l-0.3,0.1c-1.1-1.3-2.9-1.8-4.4-1.1c0,0,0,0,0,0l-0.6,0.3c-1.5-1.3-3.7-1.5-5.5-0.5l-3.4,1.9     h-4.5c-1,0-1.9-0.2-2.8-0.7l-0.6-0.3c-3.6-1.8-7.9-1.3-11.1,1.1c0,0,0,0,0,0l-1.5,1.3c-0.6,0.5-1.2,0.9-2,1.1L47.8,52     c-0.1-0.3-0.3-0.5-0.7-0.5h-7.3c-0.4,0-0.7,0.3-0.7,0.7c0,0,0,0.1,0,0.1l2.4,19.9c0,0.3,0.3,0.6,0.7,0.6h10.9     c0.4,0,0.7-0.3,0.7-0.7c0-0.1,0-0.1,0-0.2l-1.4-4.7l4.5-2.8c0.6-0.3,1.3-0.4,2-0.3c0,0,0,0,0,0l9.1,1.7c2.5,0.4,5,0.1,7.3-1     c0,0,0.1,0,0.1,0l15.7-10.8c0.3-0.2,0.4-0.6,0.2-0.9C90,51.1,87.5,50.4,85.4,51.5z M81.4,51.7c0.8-0.4,1.9-0.1,2.5,0.6L78,55.5     l-0.3,0.2c-0.2-0.5-0.5-1-0.8-1.5L81.4,51.7z M75.3,51.6C75.3,51.6,75.3,51.6,75.3,51.6c1.1-0.6,2.4-0.6,3.5,0l-3,1.6     c-0.6-0.4-1.2-0.7-1.9-0.9L75.3,51.6z M42.9,71.4l-2.3-18.5h6l5.6,18.5H42.9z M74.6,63.6c-2,1-4.2,1.3-6.4,0.9l-9-1.7     c-1-0.2-2.1-0.1-2.9,0.4c0,0,0,0,0,0L52,65.8l-3-9.7c0.9-0.3,1.8-0.7,2.5-1.4l1.5-1.3c2.8-2.1,6.5-2.5,9.7-0.9l0.6,0.3     c1.1,0.5,2.2,0.8,3.4,0.8h6c1.8,0,3.4,1.3,3.7,3.1l-4.4-0.2c-1.6-0.1-3.2,0-4.8,0.2c-0.4,0.1-0.6,0.4-0.6,0.8     c0.1,0.4,0.4,0.6,0.8,0.6c1.5-0.2,3-0.3,4.5-0.2l5.1,0.2c0,0,0,0,0,0c0.4,0,0.7-0.3,0.7-0.7c0-0.1,0-0.2,0-0.3l0.7-0.4l7.5-4     c1.2-0.6,2.6-0.4,3.6,0.6L74.6,63.6z"></path>			</g>			<g>				<path class="st1" d="M45.1,68.6c0,1.2,1,2.1,2.1,2.1c1.2,0,2.1-1,2.1-2.1c0-1.2-1-2.1-2.1-2.1C46,66.5,45.1,67.4,45.1,68.6z      M47.2,67.8c0.4,0,0.8,0.3,0.8,0.8s-0.3,0.8-0.8,0.8c-0.4,0-0.8-0.3-0.8-0.8S46.8,67.8,47.2,67.8L47.2,67.8z"></path>			</g>			<g>				<path class="st2" d="M65.3,20.7c-2.8,0-5.1,2.3-5.1,5.1V28c0,2.8,2.3,5.1,5.2,5.1c2.8,0,5.1-2.3,5.1-5.1v-2.2     C70.4,23,68.1,20.7,65.3,20.7z M69,28c0,2.1-1.7,3.8-3.8,3.8c-2.1,0-3.7-1.7-3.8-3.8v-2.2c0-2.1,1.7-3.8,3.8-3.8     c2.1,0,3.7,1.7,3.8,3.8V28z"></path>			</g>			<g>				<path class="st2" d="M73.7,28.1v1.9c0,2.5,2.1,4.6,4.6,4.6s4.6-2.1,4.6-4.6v-1.9c0-2.5-2.1-4.6-4.6-4.6     C75.8,23.5,73.7,25.6,73.7,28.1z M81.5,28.1v1.9c0,1.8-1.4,3.2-3.2,3.2c-1.8,0-3.2-1.4-3.2-3.2l0,0v-1.9c0-1.8,1.4-3.2,3.2-3.2     S81.5,26.3,81.5,28.1L81.5,28.1z"></path>			</g>			<g>				<path class="st2" d="M81.5,34.8c-0.4,0-0.5,0.2-0.7,0.4c-1.1,1.3-3,1.5-4.4,0.4c-0.2-0.2-0.4-0.3-0.5-0.6     c-0.1-0.2-0.3-0.3-0.6-0.3c-0.9,0-1.7,0.3-2.5,0.7c-1-1.2-2.4-1.9-4-2c-0.3,0-0.5,0.2-0.7,0.4c-1.3,1.6-3.6,1.8-5.1,0.5     c-0.2-0.2-0.4-0.4-0.6-0.7c-0.1-0.2-0.3-0.3-0.6-0.3c-1.5,0-2.9,0.7-3.9,1.7c-0.1,0.1-0.2,0.2-0.2,0.3c-0.7-0.4-1.5-0.7-2.3-0.7     c-0.4,0-0.5,0.2-0.7,0.4c-1.1,1.3-3,1.5-4.4,0.4c-0.2-0.2-0.4-0.3-0.5-0.6c-0.1-0.2-0.3-0.3-0.6-0.3c-2.8,0.1-4.9,2.3-4.9,5.1     v4.4c0,0.4,0.3,0.7,0.7,0.7h11.3v1.6c0,0.4,0.3,0.7,0.7,0.7h16.5c0.4,0,0.7-0.3,0.7-0.7l0,0v-1.6h11.3c0.4,0,0.7-0.3,0.7-0.7     v-4.4C86.2,37.1,84.1,34.9,81.5,34.8z M45.7,43.5v-3.7c0-1.9,1.4-3.5,3.3-3.7c1.6,1.8,4.4,2,6.3,0.4c0.1-0.1,0.3-0.2,0.4-0.4     c0.5,0.1,0.9,0.2,1.3,0.5c-0.4,0.8-0.6,1.7-0.6,2.6v4.3H45.7z M72.9,45.7H57.7v-6.6c0-2.2,1.7-4.1,3.9-4.3c1.8,2.1,5,2.3,7,0.5     c0.2-0.2,0.3-0.3,0.5-0.5c2.1,0.3,3.7,2.1,3.7,4.3V45.7z M84.9,43.5H74.2v-4.3c0-0.9-0.2-1.8-0.6-2.6c0.4-0.3,0.9-0.4,1.4-0.5     c1.6,1.8,4.4,2,6.3,0.4c0.1-0.1,0.3-0.2,0.4-0.4c1.8,0.3,3.2,1.8,3.2,3.7L84.9,43.5L84.9,43.5z"></path>			</g>			<g>				<path class="st2" d="M52.2,34.6c2.5,0,4.6-2.1,4.6-4.6v-1.9c0-2.5-2.1-4.6-4.6-4.6s-4.6,2.1-4.6,4.6v1.9     C47.6,32.6,49.7,34.6,52.2,34.6z M49,28.1c0-1.8,1.4-3.2,3.2-3.2s3.2,1.4,3.2,3.2l0,0v1.9c0,1.8-1.4,3.2-3.2,3.2     S49,31.8,49,30.1l0,0V28.1z"></path>			</g>		</g>		<g>			<g>				<path class="st3" d="M37.5,104.3c-0.8,0-1.5-0.2-2.1-0.5s-1-0.8-1.3-1.4c-0.3-0.6-0.5-1.4-0.5-2.2c0-0.9,0.2-1.6,0.5-2.2     c0.3-0.6,0.8-1.1,1.3-1.4c0.6-0.3,1.3-0.5,2.1-0.5c0.6,0,1.1,0.1,1.6,0.3c0.5,0.2,0.9,0.4,1.2,0.8l-0.4,0.9     c-0.4-0.3-0.7-0.6-1.1-0.7C38.4,97,38,97,37.5,97c-0.9,0-1.6,0.3-2.1,0.8c-0.5,0.5-0.7,1.3-0.7,2.4c0,1,0.2,1.8,0.7,2.4     c0.5,0.5,1.2,0.8,2.1,0.8c0.5,0,0.9-0.1,1.2-0.2c0.4-0.1,0.7-0.4,1.1-0.7l0.4,0.9c-0.3,0.3-0.7,0.6-1.2,0.8     C38.6,104.2,38,104.3,37.5,104.3z"></path>			</g>			<g>				<path class="st3" d="M41.7,104.2v-8.5h1v8.5H41.7z"></path>			</g>			<g>				<path class="st3" d="M44.4,97.1V96h1.2v1.1H44.4z M44.5,104.2v-5.8h1v5.8H44.5z"></path>			</g>			<g>				<path class="st3" d="M50,104.3c-0.9,0-1.7-0.3-2.2-0.8c-0.5-0.5-0.8-1.3-0.8-2.2c0-0.6,0.1-1.2,0.3-1.6c0.2-0.5,0.6-0.8,1-1     c0.4-0.2,0.9-0.4,1.5-0.4c0.5,0,1,0.1,1.4,0.3c0.4,0.2,0.7,0.5,0.9,1c0.2,0.4,0.3,0.9,0.3,1.5v0.3h-4.5v-0.6h3.7l-0.2,0.2     c0-0.6-0.1-1.1-0.4-1.4s-0.7-0.5-1.2-0.5c-0.6,0-1,0.2-1.3,0.6c-0.3,0.4-0.5,0.9-0.5,1.6v0.1c0,0.7,0.2,1.2,0.5,1.6     s0.8,0.5,1.5,0.5c0.3,0,0.7,0,1-0.2c0.3-0.1,0.6-0.3,0.9-0.5l0.3,0.7c-0.3,0.2-0.6,0.4-1,0.5C50.8,104.3,50.4,104.3,50,104.3z"></path>			</g>			<g>				<path class="st3" d="M53.6,104.2v-4.4c0-0.2,0-0.5,0-0.7c0-0.2,0-0.5-0.1-0.7h1l0.1,1.2h-0.1c0.2-0.4,0.5-0.8,0.8-1     c0.4-0.2,0.8-0.3,1.3-0.3c0.7,0,1.2,0.2,1.6,0.6c0.3,0.4,0.5,1,0.5,1.7v3.6h-1v-3.5c0-0.5-0.1-0.9-0.3-1.2     c-0.2-0.2-0.5-0.3-1-0.3c-0.5,0-0.9,0.2-1.2,0.5c-0.3,0.3-0.5,0.7-0.5,1.3v3.3L53.6,104.2L53.6,104.2z"></path>			</g>			<g>				<path class="st3" d="M62.6,104.3c-0.6,0-1.1-0.2-1.4-0.5s-0.5-0.8-0.5-1.5v-3.1h-1.1v-0.8h1.1v-1.6l1-0.3v1.9h1.6v0.8h-1.6v3     c0,0.4,0.1,0.8,0.2,1c0.2,0.2,0.4,0.3,0.7,0.3c0.2,0,0.3,0,0.4,0c0.1,0,0.2-0.1,0.3-0.1v0.9c-0.1,0-0.2,0.1-0.4,0.1     C62.9,104.3,62.7,104.3,62.6,104.3z"></path>			</g>			<g>				<path class="st3" d="M71.3,104.3c-0.8,0-1.5-0.2-2.1-0.5s-1-0.8-1.3-1.4c-0.3-0.6-0.5-1.4-0.5-2.2c0-0.9,0.2-1.6,0.5-2.2     c0.3-0.6,0.8-1.1,1.3-1.4c0.6-0.3,1.3-0.5,2.1-0.5c0.6,0,1.1,0.1,1.6,0.3c0.5,0.2,0.9,0.4,1.2,0.8l-0.4,0.9     c-0.4-0.3-0.7-0.6-1.1-0.7S71.8,97,71.3,97c-0.9,0-1.6,0.3-2.1,0.8c-0.5,0.5-0.7,1.3-0.7,2.4c0,1,0.2,1.8,0.7,2.4     c0.5,0.5,1.2,0.8,2.1,0.8c0.5,0,0.9-0.1,1.2-0.2c0.4-0.1,0.7-0.4,1.1-0.7l0.4,0.9c-0.3,0.3-0.7,0.6-1.2,0.8     C72.4,104.2,71.9,104.3,71.3,104.3z"></path>			</g>			<g>				<path class="st3" d="M77.5,104.3c-0.5,0-1-0.1-1.3-0.4c-0.4-0.2-0.7-0.6-0.9-1c-0.2-0.5-0.3-1-0.3-1.6c0-0.6,0.1-1.2,0.3-1.6     c0.2-0.5,0.5-0.8,0.9-1c0.4-0.2,0.8-0.4,1.3-0.4c0.5,0,1,0.1,1.4,0.4c0.4,0.2,0.6,0.6,0.8,1.1h-0.1l0.1-1.3h1     c0,0.2,0,0.5-0.1,0.7c0,0.2,0,0.5,0,0.7v4.4h-1v-1.3h0.1c-0.1,0.4-0.4,0.8-0.8,1C78.5,104.2,78,104.3,77.5,104.3z M77.8,103.5     c0.5,0,0.9-0.2,1.3-0.5c0.3-0.4,0.5-0.9,0.5-1.6c0-0.7-0.2-1.3-0.5-1.6c-0.3-0.4-0.7-0.5-1.3-0.5c-0.5,0-0.9,0.2-1.3,0.5     c-0.3,0.4-0.5,0.9-0.5,1.6c0,0.7,0.2,1.3,0.5,1.6C76.8,103.3,77.2,103.5,77.8,103.5z"></path>			</g>			<g>				<path class="st3" d="M82.3,104.2v-4.4c0-0.2,0-0.5,0-0.7c0-0.2,0-0.5-0.1-0.7h1l0.1,1.5l-0.2,0c0.1-0.3,0.2-0.7,0.4-0.9     c0.2-0.2,0.4-0.4,0.7-0.5c0.3-0.1,0.5-0.2,0.8-0.2c0.1,0,0.2,0,0.3,0c0.1,0,0.2,0,0.3,0.1l0,0.9c-0.1,0-0.2-0.1-0.3-0.1     c-0.1,0-0.2,0-0.3,0c-0.3,0-0.6,0.1-0.9,0.2c-0.2,0.2-0.4,0.4-0.5,0.6c-0.1,0.3-0.2,0.5-0.2,0.8v3.4L82.3,104.2L82.3,104.2z"></path>			</g>			<g>				<path class="st3" d="M89.1,104.3c-0.9,0-1.7-0.3-2.2-0.8c-0.5-0.5-0.8-1.3-0.8-2.2c0-0.6,0.1-1.2,0.3-1.6c0.2-0.5,0.6-0.8,1-1     c0.4-0.2,0.9-0.4,1.5-0.4c0.5,0,1,0.1,1.4,0.3s0.7,0.5,0.9,1c0.2,0.4,0.3,0.9,0.3,1.5v0.3H87v-0.6h3.7l-0.2,0.2     c0-0.6-0.1-1.1-0.4-1.4c-0.3-0.3-0.7-0.5-1.2-0.5c-0.6,0-1,0.2-1.3,0.6c-0.3,0.4-0.5,0.9-0.5,1.6v0.1c0,0.7,0.2,1.2,0.5,1.6     c0.3,0.4,0.8,0.5,1.5,0.5c0.3,0,0.7,0,1-0.2s0.6-0.3,0.9-0.5l0.3,0.7c-0.3,0.2-0.6,0.4-1,0.5C90,104.3,89.6,104.3,89.1,104.3z"></path>			</g>		</g>	</g>	<g>		<g>			<g>				<g>					<path class="st1" d="M79-11c-20.1,0.1-60.5,0.3-80.6,0.3l0.3-0.2c-0.5,0.7-1.3,1.1-2.1,1.2c-0.8,0-1.7-0.3-2.2-1l0.4,0.2      c-2.5,0.7-4.6,2.7-5.3,5.2l-0.1-0.4c0.7,0.5,1,1.3,1,2.2c0,0.8-0.5,1.6-1.2,2l0.1-0.2l-0.1,22.4l-0.2,22.4      C-11,32-11.1,9.5-11.2-1.7v-0.1c0.6-0.4,0.9-1,0.9-1.7c0-0.7-0.4-1.3-1-1.7l0.1-0.2c0.7-2.9,3.1-5.3,6-5.9l0.2,0.2      c0.3,0.5,0.9,0.8,1.6,0.8c0.7,0,1.3-0.4,1.7-1h0.2C18.5-11.3,58.9-11.1,79-11L79-11z"></path>				</g>			</g>		</g>		<g>			<path class="st4" d="M122.2,126.9H2.8c-2.6,0-4.7-2.1-4.7-4.7V2.8c0-2.6,2.1-4.7,4.7-4.7h119.4c2.6,0,4.7,2.1,4.7,4.7v119.4    C126.9,124.8,124.8,126.9,122.2,126.9z M2.8-1.3c-2.3,0-4.1,1.9-4.1,4.1v119.4c0,2.3,1.9,4.1,4.1,4.1h119.4    c2.3,0,4.1-1.9,4.1-4.1V2.8c0-2.3-1.9-4.1-4.1-4.1C122.2-1.3,2.8-1.3,2.8-1.3z"></path>		</g>		<g>			<g>				<g>					<path class="st1" d="M46,136c20.1-0.1,60.5-0.3,80.6-0.3l-0.3,0.2c0.5-0.7,1.3-1.1,2.1-1.2c0.8,0,1.7,0.3,2.2,1l-0.4-0.2      c2.5-0.7,4.6-2.7,5.3-5.2l0.1,0.4c-0.7-0.5-1-1.3-1-2.2c0-0.8,0.5-1.6,1.2-2l-0.1,0.2l0.1-22.4l0.2-22.4      c0.1,11.2,0.2,33.6,0.3,44.8v0.1c-0.6,0.4-0.9,1-0.9,1.7c0,0.7,0.4,1.3,1,1.7l-0.1,0.2c-0.7,2.9-3.1,5.3-6,5.9l-0.2-0.2      c-0.3-0.5-0.9-0.8-1.6-0.8c-0.7,0-1.3,0.4-1.7,1h-0.2C106.5,136.3,66.1,136.1,46,136L46,136z"></path>				</g>			</g>		</g>	</g></g></svg>