<svg xmlns="http://www.w3.org/2000/svg" xmlns:xlink="http://www.w3.org/1999/xlink" id="Layer_1" x="0px" y="0px" viewBox="0 0 180 180" style="enable-background:new 0 0 180 180;" xml:space="preserve"><style type="text/css">	.st0{fill:#EA4824;}	.st1{fill:#FFFFFF;}	.st2{fill:#D4BBB0;}	.st3{fill:#ED4623;}</style><g>	<g>		<g>			<circle class="st0" cx="31.2" cy="146.53" r="14.35"></circle>		</g>		<g>			<path class="st1" d="M89.97,160.55c-13.29,0-26.32-3.49-37.77-10.13l-0.72-0.46l0.13-0.86c0.13-0.79,0.2-1.65,0.2-2.57    c0-11.32-9.21-20.47-20.47-20.47c-1.25,0-2.43,0.13-3.62,0.33l-0.86,0.13l-0.46-0.72c-7.9-12.24-12.04-26.39-12.04-41    c0-41.72,33.96-75.74,75.74-75.74s75.55,34.02,75.55,75.81c0,14.61-4.15,28.76-12.04,41l-0.46,0.72l-0.86-0.13    c-1.12-0.2-2.37-0.33-3.62-0.33c-11.32,0-20.47,9.21-20.47,20.47c0,0.92,0.07,1.78,0.2,2.63l0.13,0.86l-0.72,0.46    C116.29,157.06,103.26,160.55,89.97,160.55z M54.17,148.63c10.92,6.12,23.23,9.34,35.8,9.34s24.94-3.22,35.8-9.34    c-0.07-0.66-0.07-1.38-0.07-2.11c0-12.7,10.33-23.03,23.03-23.03c1.12,0,2.17,0.07,3.22,0.2c7.3-11.65,11.19-25.07,11.19-38.89    c0-40.34-32.84-73.18-73.18-73.18S16.79,44.46,16.79,84.8c0,13.82,3.88,27.24,11.19,38.89c1.05-0.13,2.11-0.2,3.22-0.2    c12.7,0,23.03,10.33,23.03,23.03C54.23,147.25,54.23,147.98,54.17,148.63z"></path>		</g>		<g>			<path class="st0" d="M149.59,142.45v-2.83l0,0c-4.47,5.2-9.61,9.81-15.33,13.69c-0.86,0.59-1.71,1.12-2.57,1.65    c-1.18,0.72-2.37,1.45-3.55,2.11c-0.33,0.2-0.59,0.33-0.92,0.46c-0.66,0.33-1.38,0.72-2.04,1.05c0,0,0,0-0.07,0    c-9.21,4.61-19.28,7.3-29.48,8.09c-0.72,0.07-1.45,0.07-2.17,0.13c-0.39,0-0.86,0.07-1.25,0.07c-1.51,0.07-3.03,0.07-4.54,0    c-0.39,0-0.86,0-1.25-0.07c-0.72,0-1.45-0.07-2.17-0.13c-10.2-0.72-20.27-3.49-29.48-8.09c0,0,0,0-0.07,0    c-0.66-0.33-1.38-0.72-2.04-1.05l-0.92-0.46c-1.18-0.66-2.37-1.38-3.55-2.11c-0.86-0.53-1.71-1.12-2.57-1.65    c-5.73-3.88-10.86-8.49-15.33-13.69l0,0v2.83c0,0.92-0.2,1.84-0.53,2.7c0.99,1.05,2.04,2.11,3.16,3.16    c0.07,0.07,0.13,0.13,0.2,0.2c0.92,0.86,1.84,1.71,2.83,2.57c0.46,0.39,0.86,0.72,1.32,1.12c0.53,0.39,1.05,0.86,1.58,1.25    c0.07,0,0.07,0.07,0.13,0.07c0.07,0,0.07,0.07,0.13,0.07c0.53,0.39,0.99,0.79,1.51,1.18c0.07,0.07,0.13,0.07,0.2,0.13    c0.26,0.2,0.53,0.39,0.86,0.59c0.59,0.39,1.18,0.79,1.71,1.18c0.39,0.26,0.86,0.59,1.25,0.86c0.46,0.33,0.92,0.59,1.38,0.92    c0.39,0.26,0.79,0.53,1.18,0.72c0.79,0.46,1.58,0.92,2.37,1.38c0.33,0.2,0.72,0.39,1.12,0.59c0.66,0.39,1.38,0.72,2.11,1.05    c0,0,0,0,0.07,0c10.66,5.33,22.05,8.23,33.5,8.69c0.39,0,0.86,0,1.25,0.07c0.33,0,0.72,0,1.05,0c0.86,0,1.71,0,2.63,0    c0.33,0,0.72,0,1.05,0c0.39,0,0.79,0,1.25-0.07c11.38-0.46,22.84-3.29,33.43-8.62c0,0,0,0,0.07,0c0.72-0.33,1.38-0.72,2.11-1.05    c0,0,0.07,0,0.07-0.07c0.33-0.2,0.72-0.39,1.05-0.59c0.72-0.39,1.51-0.86,2.24-1.25c0.46-0.26,0.92-0.53,1.38-0.86    c0.46-0.26,0.92-0.59,1.38-0.86c0.46-0.26,0.92-0.59,1.32-0.92c4.94-3.36,9.48-7.24,13.56-11.58    C149.79,144.29,149.59,143.44,149.59,142.45z"></path>		</g>		<g>			<circle class="st0" cx="148.67" cy="146.53" r="14.35"></circle>		</g>		<g>			<g>				<path class="st2" d="M107.08,65.39h-10.2v-9.28h-6.45c-0.26,0-0.53,0.2-0.53,0.53V69.2h19.08c0.2,0,0.39-0.13,0.46-0.26     c0.07-0.2,0.07-0.39-0.07-0.53L107.08,65.39z"></path>			</g>			<g>				<path class="st2" d="M75.49,109.81l16.78-27.24l-2.3-3.75l-21.45,34.81h42.91l-2.3-3.75H75.49V109.81z"></path>			</g>			<g>				<path class="st3" d="M84.9,105.86c-0.39,0-0.79-0.13-1.05-0.46l-6.71-6.51l2.11-2.17l5.66,5.46l7.11-6.91     c0.59-0.59,1.51-0.59,2.11,0l3.82,3.69l2.11-2.76l2.43,1.84l-3.09,4.15c-0.26,0.33-0.66,0.59-1.12,0.59     c-0.46,0-0.86-0.13-1.18-0.39l-4.01-3.88l-7.11,6.91C85.69,105.66,85.29,105.86,84.9,105.86z"></path>			</g>			<g>				<path class="st3" d="M89.97,81.71c-0.86,0-1.51-0.66-1.51-1.51V56.64c0-1.12,0.92-2.04,2.04-2.04h18.62     c0.79,0,1.51,0.46,1.84,1.12c0.33,0.72,0.26,1.51-0.26,2.17l-3.88,4.74l3.82,4.74c0.46,0.59,0.59,1.45,0.26,2.17     c-0.33,0.72-1.05,1.12-1.84,1.12H91.48v9.54C91.48,81.05,90.76,81.71,89.97,81.71z M91.48,67.69h15.53l-3.22-4.08     c-0.46-0.53-0.46-1.32,0-1.91l3.22-4.08H91.48V67.69z"></path>			</g>			<g>				<path class="st1" d="M111.35,115.07H68.45c-0.53,0-1.05-0.33-1.32-0.79c-0.26-0.46-0.26-1.05,0.07-1.51l21.45-34.81     c0.26-0.46,0.79-0.72,1.32-0.72s0.99,0.26,1.32,0.72l21.45,34.81c0.26,0.46,0.33,1.05,0.07,1.51     C112.41,114.81,111.95,115.07,111.35,115.07z M71.21,112.05h37.44L89.9,81.64L71.21,112.05z"></path>			</g>		</g>	</g></g></svg>