<?xml version="1.0" encoding="UTF-8"?>
<svg xmlns="http://www.w3.org/2000/svg" version="1.1" viewBox="0 0 1200 1200">
  <!-- Generator: Adobe Illustrator 30.1.0, SVG Export Plug-In . SVG Version: 2.1.1 Build 136)  -->
  <defs>
    <style>
      .st0 {
        fill: #fff;
      }
    </style>
  </defs>
  <rect class="st0" width="1200" height="1200"/>
  <g id="Layer_1">
    <g>
      <g>
        <path class="st0" d="M806.26,546.51c-30.36,9.55-52.56,37.75-53.09,71.07,0,.41-.02.83-.02,1.24s0,.79,0,1.18c0,7.54,2.25,15.25,5.85,21.83,3.56,6.51,8.63,12.17,14.71,16.43,12.97,9.09,31.49,10.94,46.76,7.71,3.87-.82,7.62-2.15,11.13-3.96,3.47-1.79,6.45-4.08,9.46-6.53.15-.12.3-.26.44-.39,8.9-8.16,14.49-19.93,14.49-32.97,0-9.14-2.73-17.64-7.45-24.73-.07-.14-.13-.28-.2-.41-.02,0-.03.03-.05.04-1,.83-2.01,1.59-3.03,2.27-13.15,8.77-28.25,5.47-43,1.89-4.19-1-7.33-6.53-11.79-10.85,3.4-2.27,4.33-3.13,5.46-3.59,6.02-2.65,11.62-5.76,16.76-9.4,1.7-1.19,3.34-2.44,4.95-3.75,7.23-5.91,13.47-13,18.71-21.41.26-.41.51-.81.78-1.2,1.65-2.46,3.46-4.68,5.42-6.69,8.53-8.8,19.83-13.68,32.09-16.95,5.93-1.59,11.99-3.19,17.85-5.06,2.07-.72,4.13-1.52,6.19-2.32,10.92-4.47,18.05-10.05,21.64-17.31,3.74-7.33,3.94-16.39.93-27.71,8.53,10.2,9.99,22.31,4.19,33.24-.87,1.79-2.06,3.59-3.39,5.33-6.06,7.72-13.85,12.32-22.37,15.78-3.47,1.47-7.13,2.73-10.79,3.99-8.26,2.67-16.66,5.47-24.04,9.8-2.44,1.44-4.46,3.64-6.36,6.04-1.77,2.24-3.46,4.65-5.3,6.75.79.99,1.66,1.92,2.46,2.93,3.72-1.84,7.41-3.68,11.1-5.53,2.98-1.5,5.96-3.01,8.95-4.53.8.6,1.6,1.13,2.39,1.67-1.28,2.58-2.56,5.17-3.87,7.79-2.13,4.33-4.33,8.75-6.65,13.44,3.4,4.19,6.73,8.93,9.93,14.25.69,1.15,1.35,2.32,1.98,3.47,4.78,9.93,7.45,21.06,7.45,32.8,0,7.48-1.09,14.72-3.12,21.55-3.94,13.3-11.44,25.08-21.39,34.19-8.12,7.48-17.85,13.21-28.61,16.58-7.16,2.25-14.77,3.46-22.66,3.46-5.46,0-10.79-.6-15.91-1.67-34.17-7.32-59.87-37.75-59.87-74.11,0-40.11,31.39-73.07,70.86-75.62ZM825.78,577.34c5.19.4,8.19-2.07,10.65-8.26-5.26.07-8.45,2.07-10.65,8.26Z"/>
        <path class="st0" d="M811.14,526.9h0c0,7.01-5.16,12.89-12.08,13.92-39.63,5.86-70.15,40.11-70.15,81.34v61.68c0,7.77-6.3,14.07-14.07,14.07h0c-7.77,0-14.07-6.3-14.07-14.07v-61.68c0-28.22,10.64-53.99,28.13-73.52,16.85-18.83,40.05-31.85,66.2-35.67,8.46-1.24,16.03,5.39,16.03,13.94Z"/>
        <path class="st0" d="M297.19,450.79v154.54c0,3.66-.21,7.26-.63,10.81h0c-3.73,32.25-24.04,59.42-52.17,72.82-12.05,5.75-25.53,8.96-39.77,8.96-51.14,0-92.58-41.44-92.58-92.58s41.44-92.58,92.58-92.58c14.24,0,27.73,3.22,39.77,8.97-5.05-.94-10.26-1.43-15.58-1.43-46.43,0-84.16,37.2-85.02,83.42,0,.54-.02,1.08-.02,1.62s0,1.08.02,1.62c.87,32.8,27.82,59.22,60.83,59.22s60.84-27.3,60.84-60.84v-154.54c0-4.38,1.77-8.35,4.65-11.23,2.87-2.87,6.83-4.65,11.22-4.65,8.77,0,15.87,7.11,15.87,15.87Z"/>
        <path class="st0" d="M390.33,589.45h71.96c-6.99-25.88-30.67-44.97-58.74-44.97-10.54,0-20.45,2.69-29.1,7.42-18.9,10.33-31.74,30.4-31.74,53.42,0,14.36,5,27.59,13.36,38.01,5.03,6.27,11.27,11.53,18.37,15.42,8.65,4.73,18.56,7.42,29.1,7.42,33.73,0,64.57-12.35,88.25-32.76-11.88,37.41-46.9,64.51-88.25,64.51s-76.35-27.1-88.24-64.5c-2.32-7.3-3.76-14.99-4.19-22.94-.1-1.71-.15-3.42-.15-5.15,0-51.13,41.45-92.58,92.58-92.58,45.73,0,83.71,33.15,91.23,76.72.9,5.15,1.36,10.45,1.36,15.86,0,1.73-.05,3.44-.15,5.15-3.26,3.79-6.75,7.37-10.44,10.72h-95.22c-4.38,0-8.35-1.77-11.23-4.65-2.87-2.87-4.65-6.84-4.65-11.23,0-8.76,7.11-15.86,15.87-15.86Z"/>
        <path class="st0" d="M585.23,589.45h71.96c-6.99-25.88-30.67-44.97-58.74-44.97-10.54,0-20.45,2.69-29.1,7.42-18.9,10.33-31.74,30.4-31.74,53.42,0,14.36,5,27.59,13.36,38.01,5.03,6.27,11.27,11.53,18.37,15.42,8.65,4.73,18.56,7.42,29.1,7.42,33.73,0,64.57-12.35,88.25-32.76-11.88,37.41-46.9,64.51-88.25,64.51s-76.35-27.1-88.24-64.5c-2.32-7.3-3.76-14.99-4.19-22.94-.1-1.71-.15-3.42-.15-5.15,0-51.13,41.45-92.58,92.58-92.58,45.73,0,83.71,33.15,91.23,76.72.9,5.15,1.36,10.45,1.36,15.86,0,1.73-.05,3.44-.15,5.15-3.26,3.79-6.75,7.37-10.44,10.72h-95.22c-4.38,0-8.35-1.77-11.23-4.65-2.87-2.87-4.65-6.84-4.65-11.23,0-8.76,7.11-15.86,15.87-15.86Z"/>
      </g>
      <g>
        <path class="st0" d="M473.97,750.06c.37.71.42,1.43.15,2.18-.27.74-.77,1.3-1.52,1.67-.71.37-1.43.42-2.18.15-.74-.27-1.3-.76-1.67-1.47l-3.85-7.89h-16.24l-3.79,7.89c-.37.71-.93,1.2-1.67,1.47-.74.27-1.49.22-2.23-.15-.71-.37-1.2-.93-1.47-1.67-.27-.74-.22-1.47.15-2.18l14.52-29.95c.27-.51.63-.9,1.09-1.19.46-.29.97-.43,1.54-.43s1.09.14,1.54.43c.46.28.8.68,1.04,1.19l14.58,29.95ZM462.08,738.87l-5.26-10.88-5.31,10.88h10.57Z"/>
        <path class="st0" d="M497.9,718.48c.81,0,1.5.28,2.08.83.57.56.86,1.24.86,2.05v20.09c0,1.76-.34,3.41-1.01,4.96-.68,1.55-1.59,2.9-2.73,4.05-1.15,1.14-2.5,2.06-4.05,2.73-1.55.68-3.22,1.01-5.01,1.01s-3.41-.34-4.96-1.01c-1.55-.67-2.9-1.59-4.05-2.73-1.15-1.15-2.06-2.5-2.73-4.05-.68-1.55-1.01-3.21-1.01-4.96s.33-3.46,1.01-5.01c.68-1.55,1.59-2.9,2.73-4.05,1.15-1.14,2.5-2.06,4.05-2.73,1.55-.67,3.21-1.01,4.96-1.01,1.28,0,2.52.18,3.72.53,1.2.35,2.29.87,3.26,1.54v-9.36c0-.81.28-1.49.86-2.05.57-.55,1.25-.83,2.02-.83ZM488.03,748.44c.98,0,1.89-.18,2.73-.56.84-.37,1.58-.87,2.2-1.49.62-.63,1.12-1.37,1.49-2.23.37-.86.56-1.76.56-2.71s-.18-1.89-.56-2.73c-.37-.84-.87-1.58-1.49-2.2-.63-.63-1.36-1.12-2.2-1.49-.84-.37-1.76-.55-2.73-.55s-1.85.18-2.71.55c-.86.37-1.6.87-2.23,1.49-.63.63-1.12,1.36-1.49,2.2-.37.84-.55,1.75-.55,2.73s.18,1.85.55,2.71c.37.86.87,1.6,1.49,2.23.62.63,1.37,1.12,2.23,1.49.86.37,1.76.56,2.71.56Z"/>
        <path class="st0" d="M527.04,728.96c.71.37,1.2.94,1.47,1.69.27.76.22,1.49-.15,2.2l-9.92,19.73c-.23.51-.58.9-1.04,1.19-.46.29-.97.43-1.54.43-.54,0-1.04-.14-1.49-.43-.46-.28-.82-.68-1.09-1.19l-9.87-19.73c-.37-.71-.43-1.44-.18-2.2.25-.76.75-1.32,1.49-1.69.71-.37,1.43-.42,2.18-.15.74.27,1.3.76,1.67,1.47l7.29,14.57,7.29-14.57c.37-.71.94-1.2,1.7-1.47.76-.27,1.49-.22,2.2.15Z"/>
        <path class="st0" d="M553.86,742.87c-.41.47-.89.83-1.44,1.09-.56.25-1.14.38-1.75.38h-14.77c.57,1.22,1.42,2.2,2.53,2.96,1.11.76,2.38,1.14,3.8,1.14.87,0,1.71-.15,2.5-.46.79-.31,1.49-.73,2.1-1.27.61-.54,1.31-.78,2.1-.73.79.05,1.46.38,2,.99.51.61.73,1.31.68,2.1-.05.79-.38,1.46-.99,2-1.11.98-2.39,1.75-3.82,2.3-1.43.55-2.96.83-4.58.83-1.76,0-3.41-.34-4.96-1.01-1.55-.67-2.9-1.59-4.05-2.73-1.14-1.15-2.06-2.5-2.73-4.05-.68-1.55-1.01-3.21-1.01-4.96s.34-3.46,1.01-5.01c.67-1.55,1.59-2.9,2.73-4.05,1.15-1.14,2.5-2.06,4.05-2.73,1.55-.67,3.21-1.01,4.96-1.01,1.59,0,3.09.28,4.53.83,1.43.56,2.71,1.32,3.82,2.28,1.11.96,2.05,2.1,2.81,3.41.76,1.32,1.26,2.73,1.49,4.25.17,1.32-.17,2.46-1.01,3.44ZM548.6,738.57c-.57-1.22-1.42-2.2-2.55-2.96-1.13-.76-2.4-1.14-3.82-1.14s-2.68.38-3.8,1.14c-1.11.76-1.96,1.74-2.53,2.96h12.7Z"/>
        <path class="st0" d="M570.05,728.91c.77,0,1.45.28,2.02.83.58.56.86,1.24.86,2.05s-.28,1.49-.86,2.05c-.57.56-1.25.84-2.02.84h-3.75c-.64,0-1.25.25-1.82.76-.5.58-.76,1.18-.76,1.82v14.07c0,.77-.28,1.45-.83,2.02-.56.58-1.24.86-2.05.86s-1.45-.28-2.03-.86c-.57-.57-.86-1.25-.86-2.02v-14.07c0-1.11.21-2.18.63-3.21.42-1.03,1.02-1.93,1.8-2.71.77-.77,1.68-1.37,2.71-1.8,1.03-.42,2.1-.63,3.21-.63h3.75Z"/>
        <path class="st0" d="M588.98,748.19c.81,0,1.49.29,2.05.86.56.57.84,1.25.84,2.02s-.28,1.49-.84,2.05c-.55.56-1.24.84-2.05.84h-1.27c-1.15,0-2.23-.22-3.24-.66-1.01-.44-1.9-1.03-2.66-1.77-.76-.74-1.36-1.62-1.8-2.63-.44-1.01-.66-2.09-.66-3.24v-11.18h-1.72c-.77,0-1.45-.29-2.02-.86-.58-.57-.86-1.25-.86-2.03s.28-1.5.86-2.07c.57-.58,1.25-.86,2.02-.86h1.72v-7.29c0-.81.29-1.49.86-2.05.58-.55,1.25-.83,2.03-.83s1.5.28,2.07.83c.58.56.86,1.24.86,2.05v7.29h4.1c.81,0,1.49.28,2.05.86.55.57.83,1.27.83,2.07s-.28,1.45-.83,2.03c-.56.57-1.24.86-2.05.86h-4.1v11.18c0,.71.25,1.31.73,1.8.49.49,1.09.73,1.8.73h1.27Z"/>
        <path class="st0" d="M599.09,726.13c-1.08,0-1.99-.37-2.73-1.11-.74-.74-1.11-1.65-1.11-2.73s.37-1.98,1.11-2.71c.74-.73,1.65-1.09,2.73-1.09s1.94.36,2.68,1.09c.74.73,1.11,1.63,1.11,2.71s-.37,1.99-1.11,2.73c-.74.74-1.64,1.11-2.68,1.11ZM599.09,728.66c.77,0,1.45.28,2.03.86s.86,1.27.86,2.07v19.74c0,.77-.29,1.45-.86,2.02-.58.58-1.25.86-2.03.86s-1.49-.28-2.05-.86c-.55-.57-.83-1.25-.83-2.02v-19.74c0-.81.28-1.5.83-2.07.56-.58,1.24-.86,2.05-.86Z"/>
        <path class="st0" d="M621.46,739.08c.95.14,1.81.41,2.61.84.79.42,1.47.96,2.05,1.62.57.66,1.02,1.41,1.34,2.25.32.85.48,1.74.48,2.68s-.19,1.93-.56,2.86c-.37.93-.91,1.74-1.62,2.45-.71.71-1.53,1.26-2.45,1.64-.93.39-1.9.58-2.91.58h-10.78c-.78,0-1.45-.28-2.03-.86-.57-.57-.86-1.25-.86-2.02s.29-1.5.86-2.08c.58-.57,1.25-.86,2.03-.86h10.78c.51,0,.93-.17,1.27-.51.34-.33.51-.74.51-1.21,0-.41-.14-.76-.41-1.06-.27-.31-.61-.49-1.01-.56-1.28-.17-2.67-.34-4.15-.53-1.49-.18-2.87-.36-4.15-.53-.91-.1-1.76-.37-2.55-.81-.79-.44-1.49-.99-2.08-1.65-.59-.66-1.05-1.4-1.37-2.23-.32-.83-.48-1.71-.48-2.66,0-1.05.2-2.02.61-2.94.41-.91.94-1.71,1.62-2.4.68-.69,1.47-1.23,2.38-1.62.91-.39,1.89-.58,2.94-.58h10.02c.81,0,1.5.28,2.08.83.57.56.86,1.24.86,2.05s-.29,1.49-.86,2.05c-.58.56-1.27.84-2.08.84h-10.02c-.47,0-.88.18-1.24.53-.36.35-.53.77-.53,1.24,0,.41.14.76.41,1.06.27.3.61.49,1.01.56l8.3,1.01Z"/>
        <path class="st0" d="M634.87,726.13c-1.08,0-1.99-.37-2.73-1.11-.74-.74-1.11-1.65-1.11-2.73s.37-1.98,1.11-2.71c.74-.73,1.65-1.09,2.73-1.09s1.94.36,2.68,1.09c.74.73,1.11,1.63,1.11,2.71s-.37,1.99-1.11,2.73c-.74.74-1.64,1.11-2.68,1.11ZM634.87,728.66c.77,0,1.45.28,2.03.86.57.57.86,1.27.86,2.07v19.74c0,.77-.29,1.45-.86,2.02-.58.58-1.25.86-2.03.86s-1.49-.28-2.05-.86c-.55-.57-.83-1.25-.83-2.02v-19.74c0-.81.28-1.5.83-2.07.56-.58,1.24-.86,2.05-.86Z"/>
        <path class="st0" d="M655.01,728.66c1.79,0,3.46.34,5.01,1.01,1.55.68,2.9,1.59,4.05,2.73,1.15,1.15,2.06,2.5,2.73,4.05.68,1.55,1.01,3.22,1.01,5.01v9.87c0,.77-.29,1.45-.86,2.02-.58.58-1.27.86-2.08.86s-1.45-.28-2.02-.86c-.58-.57-.86-1.25-.86-2.02v-9.87c0-.98-.18-1.89-.55-2.73-.37-.84-.87-1.58-1.49-2.2-.62-.63-1.36-1.12-2.2-1.49-.85-.37-1.76-.55-2.73-.55s-1.85.18-2.71.55c-.86.37-1.6.87-2.23,1.49-.62.63-1.12,1.36-1.49,2.2-.37.84-.56,1.75-.56,2.73v9.87c0,.77-.28,1.45-.83,2.02-.56.58-1.24.86-2.05.86s-1.45-.28-2.03-.86c-.57-.57-.86-1.25-.86-2.02v-9.87c0-1.79.34-3.46,1.01-5.01.68-1.55,1.59-2.9,2.73-4.05,1.14-1.14,2.5-2.06,4.05-2.73,1.55-.67,3.2-1.01,4.96-1.01Z"/>
        <path class="st0" d="M693.26,728c.81,0,1.5.28,2.07.86.58.57.86,1.25.86,2.02v21.45c0,1.76-.34,3.41-1.01,4.96-.68,1.55-1.59,2.9-2.73,4.05-1.15,1.15-2.5,2.06-4.05,2.73-1.55.68-3.22,1.01-5.01,1.01-2.03,0-3.89-.42-5.59-1.27-1.7-.84-3.15-1.99-4.33-3.44-.5-.64-.72-1.36-.63-2.15.08-.79.45-1.44,1.09-1.95.61-.47,1.31-.68,2.1-.61.79.07,1.44.42,1.95,1.06.64.77,1.44,1.4,2.38,1.87.95.47,1.96.71,3.04.71.98,0,1.89-.18,2.73-.56.84-.37,1.58-.87,2.2-1.49.63-.63,1.12-1.37,1.49-2.23.37-.86.55-1.76.55-2.71v-.2c-.98.68-2.07,1.19-3.26,1.54-1.2.36-2.44.53-3.72.53-1.76,0-3.41-.34-4.96-1.01-1.55-.67-2.9-1.59-4.05-2.73-1.14-1.15-2.06-2.5-2.73-4.05-.68-1.55-1.01-3.21-1.01-4.96s.34-3.46,1.01-5.01c.67-1.55,1.59-2.9,2.73-4.05,1.15-1.14,2.5-2.06,4.05-2.73,1.55-.67,3.21-1.01,4.96-1.01,1.28,0,2.52.18,3.72.55,1.2.37,2.29.88,3.26,1.52.07-.77.37-1.42.91-1.95.54-.52,1.2-.78,1.98-.78ZM683.39,748.44c.98,0,1.89-.18,2.73-.56.84-.37,1.58-.87,2.2-1.49.63-.63,1.12-1.37,1.49-2.23.37-.86.55-1.76.55-2.71s-.18-1.89-.55-2.73c-.37-.84-.87-1.58-1.49-2.2-.63-.63-1.36-1.12-2.2-1.49-.84-.37-1.75-.55-2.73-.55s-1.85.18-2.71.55c-.86.37-1.6.87-2.23,1.49-.63.63-1.12,1.36-1.49,2.2-.37.84-.56,1.75-.56,2.73s.18,1.85.56,2.71c.37.86.87,1.6,1.49,2.23.62.63,1.37,1.12,2.23,1.49.86.37,1.76.56,2.71.56Z"/>
        <path class="st0" d="M748.82,750.06c.37.71.42,1.43.15,2.18-.27.74-.77,1.3-1.52,1.67-.71.37-1.43.42-2.18.15s-1.3-.76-1.67-1.47l-3.85-7.89h-16.24l-3.79,7.89c-.37.71-.93,1.2-1.67,1.47-.74.27-1.49.22-2.23-.15-.71-.37-1.2-.93-1.47-1.67-.27-.74-.22-1.47.15-2.18l14.52-29.95c.27-.51.63-.9,1.09-1.19.46-.29.97-.43,1.54-.43s1.09.14,1.54.43c.46.28.8.68,1.04,1.19l14.58,29.95ZM736.93,738.87l-5.26-10.88-5.31,10.88h10.57Z"/>
        <path class="st0" d="M772.8,728c.81,0,1.5.28,2.07.86.58.57.86,1.25.86,2.02v21.45c0,1.76-.34,3.41-1.01,4.96-.68,1.55-1.59,2.9-2.73,4.05-1.15,1.15-2.5,2.06-4.05,2.73-1.55.68-3.22,1.01-5.01,1.01-2.03,0-3.89-.42-5.59-1.27-1.7-.84-3.15-1.99-4.33-3.44-.5-.64-.72-1.36-.63-2.15.08-.79.45-1.44,1.09-1.95.61-.47,1.31-.68,2.1-.61s1.44.42,1.95,1.06c.64.77,1.44,1.4,2.38,1.87.95.47,1.96.71,3.04.71.98,0,1.89-.18,2.73-.56.84-.37,1.58-.87,2.2-1.49.63-.63,1.12-1.37,1.49-2.23.37-.86.55-1.76.55-2.71v-.2c-.98.68-2.07,1.19-3.26,1.54-1.2.36-2.44.53-3.72.53-1.76,0-3.41-.34-4.96-1.01-1.55-.67-2.9-1.59-4.05-2.73-1.14-1.15-2.06-2.5-2.73-4.05-.68-1.55-1.01-3.21-1.01-4.96s.34-3.46,1.01-5.01c.67-1.55,1.59-2.9,2.73-4.05,1.15-1.14,2.5-2.06,4.05-2.73,1.55-.67,3.21-1.01,4.96-1.01,1.28,0,2.52.18,3.72.55,1.2.37,2.29.88,3.26,1.52.07-.77.37-1.42.91-1.95.54-.52,1.2-.78,1.98-.78ZM762.93,748.44c.98,0,1.89-.18,2.73-.56.84-.37,1.58-.87,2.2-1.49.63-.63,1.12-1.37,1.49-2.23.37-.86.55-1.76.55-2.71s-.18-1.89-.55-2.73c-.37-.84-.87-1.58-1.49-2.2-.63-.63-1.36-1.12-2.2-1.49-.84-.37-1.75-.55-2.73-.55s-1.85.18-2.71.55c-.86.37-1.6.87-2.23,1.49-.63.63-1.12,1.36-1.49,2.2-.37.84-.56,1.75-.56,2.73s.18,1.85.56,2.71c.37.86.87,1.6,1.49,2.23.62.63,1.37,1.12,2.23,1.49.86.37,1.76.56,2.71.56Z"/>
        <path class="st0" d="M803.21,742.87c-.41.47-.89.83-1.44,1.09-.56.25-1.14.38-1.75.38h-14.77c.57,1.22,1.42,2.2,2.53,2.96,1.11.76,2.38,1.14,3.8,1.14.87,0,1.71-.15,2.5-.46.79-.31,1.49-.73,2.1-1.27.61-.54,1.31-.78,2.1-.73.79.05,1.46.38,2,.99.51.61.73,1.31.68,2.1-.05.79-.38,1.46-.99,2-1.11.98-2.39,1.75-3.82,2.3-1.43.55-2.96.83-4.58.83-1.76,0-3.41-.34-4.96-1.01-1.55-.67-2.9-1.59-4.05-2.73-1.14-1.15-2.06-2.5-2.73-4.05-.68-1.55-1.01-3.21-1.01-4.96s.34-3.46,1.01-5.01c.67-1.55,1.59-2.9,2.73-4.05,1.15-1.14,2.5-2.06,4.05-2.73,1.55-.67,3.21-1.01,4.96-1.01,1.59,0,3.09.28,4.53.83,1.43.56,2.71,1.32,3.82,2.28,1.11.96,2.05,2.1,2.81,3.41.76,1.32,1.26,2.73,1.49,4.25.17,1.32-.17,2.46-1.01,3.44ZM797.95,738.57c-.57-1.22-1.42-2.2-2.55-2.96-1.13-.76-2.4-1.14-3.82-1.14s-2.68.38-3.8,1.14c-1.11.76-1.96,1.74-2.53,2.96h12.7Z"/>
        <path class="st0" d="M819.3,728.66c1.79,0,3.46.34,5.01,1.01,1.55.68,2.9,1.59,4.05,2.73,1.15,1.15,2.06,2.5,2.73,4.05.68,1.55,1.01,3.22,1.01,5.01v9.87c0,.77-.29,1.45-.86,2.02-.58.58-1.27.86-2.08.86s-1.45-.28-2.02-.86c-.58-.57-.86-1.25-.86-2.02v-9.87c0-.98-.18-1.89-.55-2.73-.37-.84-.87-1.58-1.49-2.2-.62-.63-1.36-1.12-2.2-1.49-.85-.37-1.76-.55-2.73-.55s-1.85.18-2.71.55c-.86.37-1.6.87-2.23,1.49-.62.63-1.12,1.36-1.49,2.2-.37.84-.56,1.75-.56,2.73v9.87c0,.77-.28,1.45-.83,2.02-.56.58-1.24.86-2.05.86s-1.45-.28-2.03-.86c-.57-.57-.86-1.25-.86-2.02v-9.87c0-1.79.34-3.46,1.01-5.01.68-1.55,1.59-2.9,2.73-4.05,1.14-1.14,2.5-2.06,4.05-2.73,1.55-.67,3.2-1.01,4.96-1.01Z"/>
        <path class="st0" d="M852.95,745.96c.54-.57,1.21-.89,2-.96.79-.07,1.49.15,2.1.66.61.54.94,1.21.99,2,.05.79-.18,1.49-.68,2.1-1.18,1.39-2.61,2.47-4.28,3.26-1.67.79-3.48,1.19-5.44,1.19-1.75,0-3.41-.34-4.96-1.01-1.55-.67-2.9-1.59-4.05-2.73-1.15-1.15-2.06-2.5-2.73-4.05-.68-1.55-1.01-3.21-1.01-4.96s.33-3.46,1.01-5.01c.68-1.55,1.59-2.9,2.73-4.05,1.15-1.14,2.5-2.06,4.05-2.73,1.55-.67,3.21-1.01,4.96-1.01,1.96,0,3.77.4,5.44,1.21,1.67.81,3.09,1.89,4.28,3.24.5.61.73,1.31.68,2.1-.05.79-.38,1.46-.99,2s-1.31.77-2.1.71c-.79-.07-1.46-.41-2-1.01-.64-.77-1.41-1.37-2.33-1.8-.91-.42-1.91-.63-2.99-.63-.95,0-1.85.18-2.71.55-.86.37-1.6.87-2.23,1.49-.63.63-1.12,1.36-1.49,2.2-.37.84-.55,1.75-.55,2.73s.18,1.85.55,2.71c.37.86.87,1.6,1.49,2.23.62.63,1.37,1.12,2.23,1.49.86.37,1.76.56,2.71.56,1.08,0,2.08-.22,2.99-.66.91-.44,1.69-1.05,2.33-1.82Z"/>
        <path class="st0" d="M886.9,755.17c0,1.28-.25,2.52-.73,3.72-.49,1.2-1.19,2.25-2.1,3.16-.91.91-1.96,1.61-3.16,2.1-1.2.49-2.44.73-3.72.73h-11.59c-.77,0-1.45-.29-2.02-.86-.58-.58-.86-1.25-.86-2.03s.28-1.5.86-2.07c.57-.58,1.25-.86,2.02-.86h11.59c1.05,0,1.98-.37,2.78-1.12.74-.81,1.11-1.73,1.11-2.78v-3.39c-.87.27-1.72.41-2.53.41h-8.86c-1.11,0-2.18-.22-3.21-.66-1.03-.44-1.93-1.05-2.71-1.82-1.62-1.62-2.43-3.58-2.43-5.87v-12.25c0-.81.29-1.5.86-2.07s1.25-.86,2.03-.86,1.49.28,2.05.86c.55.57.83,1.27.83,2.07v12.25c0,.68.25,1.26.76,1.77.5.5,1.11.76,1.82.76h8.86c.74,0,1.33-.25,1.77-.76.5-.47.76-1.06.76-1.77v-12.25c0-.81.29-1.5.86-2.07.57-.58,1.24-.86,2.02-.86s1.5.28,2.08.86c.57.57.86,1.27.86,2.07v23.58Z"/>
      </g>
    </g>
  </g>
</svg>