<svg xmlns="http://www.w3.org/2000/svg" xmlns:xlink="http://www.w3.org/1999/xlink" id="Layer_1" x="0px" y="0px" viewBox="0 0 125 125" style="enable-background:new 0 0 125 125;" xml:space="preserve"><style type="text/css">	.st0{fill:#FCD7C3;}	.st1{fill:#EA4824;}	.st2{fill:#660E0D;}	.st3{fill:#231F20;}	.st4{fill:#ED4623;}</style><g>	<g>		<g>			<g>				<polygon class="st0" points="44,60.7 42.2,45.8 39.6,45.8 41.7,62.9 50.4,62.9 49.7,60.7     "></polygon>			</g>			<g>				<path class="st0" d="M73.4,53.4c-1.8,0.9-3.9,1.2-5.9,0.8l-8.4-1.6c-0.9-0.2-1.9-0.1-2.8,0.4c0,0,0,0,0,0l-3.8,2.4l-2.5-8.2     l-0.2,0.2c-0.7,0.6-1.4,1-2.3,1.3l2.7,9l3.8-2.4c0,0,0,0,0,0c0.8-0.5,1.8-0.6,2.8-0.4l8.4,1.6c2,0.4,4.1,0.1,5.9-0.8l14-9.6     c-0.1-0.2-0.3-0.3-0.5-0.4L73.4,53.4z"></path>			</g>			<g>				<path class="st1" d="M75,22.8l-2.2-0.2c-0.2-0.9-0.6-1.8-1.1-2.6l1.4-1.7c0.2-0.3,0.2-0.7,0-0.9l-2.5-2.6     c-0.2-0.2-0.6-0.3-0.9,0l-1.7,1.4c-0.8-0.5-1.7-0.9-2.6-1.1L65,12.8c0-0.3-0.3-0.6-0.7-0.6h-3.6c-0.4,0-0.6,0.2-0.7,0.6     l-0.2,2.2c-0.9,0.2-1.8,0.6-2.6,1.1l-1.7-1.4c-0.3-0.2-0.7-0.2-0.9,0L52,17.4c-0.2,0.2-0.3,0.6,0,0.9l1.4,1.7     c-0.5,0.8-0.9,1.7-1.1,2.6L50,22.8c-0.4,0-0.6,0.3-0.6,0.7v3.6c0,0.4,0.3,0.6,0.6,0.7l2.2,0.2c0.2,0.9,0.6,1.8,1.1,2.6l-1.4,1.7     c-0.2,0.3-0.2,0.7,0,0.9l2.6,2.6c0.2,0.2,0.6,0.3,0.9,0l1.7-1.4c0.8,0.5,1.7,0.9,2.6,1.1l0.2,2.2c0,0.4,0.3,0.6,0.7,0.6h3.6     c0.4,0,0.6-0.3,0.7-0.6l0.2-2.2c0.9-0.2,1.8-0.6,2.6-1.1l1.7,1.4c0.3,0.2,0.7,0.2,0.9,0l2.6-2.6c0.2-0.2,0.3-0.6,0-0.9l-1.4-1.7     c0.5-0.8,0.9-1.7,1.1-2.6l2.2-0.2c0.4,0,0.6-0.3,0.6-0.7v-3.6C75.6,23.1,75.3,22.9,75,22.8z M74.2,26.5l-2.1,0.2     c-0.3,0-0.5,0.2-0.6,0.5c-0.2,1.1-0.7,2.1-1.3,3.1c-0.2,0.2-0.1,0.6,0,0.8l1.3,1.6l-1.7,1.7l-1.6-1.3c-0.2-0.2-0.6-0.2-0.8,0     c-0.9,0.6-2,1.1-3.1,1.3c-0.3,0.1-0.5,0.3-0.5,0.6l-0.2,2.1h-2.4L61.1,35c0-0.3-0.2-0.5-0.5-0.6c-1.1-0.2-2.1-0.7-3.1-1.3     c-0.2-0.2-0.6-0.1-0.8,0l-1.6,1.3l-1.7-1.7l1.3-1.6c0.2-0.2,0.2-0.6,0-0.8c-0.6-0.9-1.1-2-1.3-3.1c-0.1-0.3-0.3-0.5-0.6-0.5     l-2.1-0.2v-2.4l2.1-0.2c0.3,0,0.5-0.2,0.6-0.5c0.2-1.1,0.7-2.1,1.3-3.1c0.2-0.2,0.1-0.6,0-0.8l-1.3-1.6l1.7-1.7l1.6,1.3     c0.2,0.2,0.6,0.2,0.8,0c0.9-0.6,2-1.1,3.1-1.3c0.3,0,0.5-0.3,0.5-0.6l0.2-2.1h2.4l0.2,2.1c0,0.3,0.2,0.5,0.5,0.6     c1.1,0.2,2.1,0.7,3.1,1.3c0.2,0.2,0.6,0.1,0.8,0l1.6-1.3l1.7,1.7l-1.3,1.6c-0.2,0.2-0.2,0.6,0,0.8c0.6,0.9,1.1,2,1.3,3.1     c0.1,0.3,0.3,0.5,0.6,0.5l2.1,0.2L74.2,26.5L74.2,26.5z"></path>			</g>			<g>				<path class="st1" d="M62.5,17.6c-4.3,0-7.8,3.5-7.8,7.8c0,4.3,3.5,7.8,7.8,7.8s7.8-3.5,7.8-7.8C70.3,21,66.8,17.6,62.5,17.6z      M62.5,31.7c-3.5,0-6.4-2.9-6.4-6.4c0-3.5,2.9-6.4,6.4-6.4c3.5,0,6.4,2.9,6.4,6.4l0,0C68.9,28.9,66.1,31.7,62.5,31.7L62.5,31.7z     "></path>			</g>			<g>				<path class="st1" d="M65,23l-3.3,3.2L60,24.6c-0.3-0.3-0.7-0.3-1,0c-0.3,0.3-0.3,0.7,0,1l0,0l2.1,2.1c0.3,0.3,0.7,0.3,0.9,0     l3.8-3.7c0.3-0.3,0.3-0.7,0-1C65.7,22.7,65.2,22.7,65,23L65,23L65,23z"></path>			</g>			<g>				<path class="st2" d="M81.3,44.3l-0.2,0.1c-1-1.2-2.8-1.7-4.1-1c0,0,0,0,0,0l-0.6,0.3c-1.4-1.2-3.5-1.4-5.1-0.4L68.1,45h-4.2     c-0.9,0-1.8-0.2-2.6-0.6l-0.6-0.3c-3.4-1.6-7.4-1.2-10.4,1c0,0,0,0,0,0l-1.4,1.2c-0.5,0.5-1.1,0.8-1.8,1l-0.8-2.6     c-0.1-0.3-0.4-0.5-0.7-0.5h-6.8c-0.4,0-0.7,0.4-0.7,0.7c0,0,0,0,0,0l2.3,18.5c0,0.3,0.3,0.6,0.7,0.6h10.2c0.4,0,0.7-0.3,0.7-0.6     c0-0.1,0-0.2,0-0.2L50.6,59l4.1-2.6c0.5-0.3,1.2-0.4,1.8-0.2c0,0,0,0,0,0l8.5,1.6c2.3,0.4,4.7,0.1,6.8-1c0,0,0.1,0,0.1,0     l14.6-10c0.3-0.2,0.4-0.6,0.2-0.9C85.6,43.9,83.2,43.3,81.3,44.3z M77.6,44.6c0.7-0.4,1.6-0.1,2.3,0.5l-5.5,3l-0.3,0.2     c-0.2-0.5-0.4-0.9-0.7-1.3L77.6,44.6z M71.9,44.5C71.9,44.5,71.9,44.5,71.9,44.5c1-0.6,2.2-0.6,3.2,0l-2.7,1.5     c-0.5-0.4-1.1-0.6-1.7-0.8L71.9,44.5z M41.7,62.8l-2.1-17.2h5.5l5.2,17.2H41.7z M71.2,55.6c-1.8,0.9-3.9,1.2-5.9,0.8l-8.4-1.6     c-0.9-0.2-1.9-0.1-2.8,0.4c0,0,0,0,0,0l-3.8,2.4l-2.7-9c0.8-0.3,1.6-0.7,2.3-1.3l1.4-1.2c2.6-1.9,6.1-2.3,9-0.9l0.6,0.3     c1,0.5,2.1,0.7,3.2,0.7h5.6c1.7,0,3.1,1.2,3.4,2.8l-4-0.2c-1.5-0.1-3,0-4.4,0.2c-0.4,0-0.6,0.4-0.6,0.7c0,0.4,0.4,0.6,0.7,0.6h0     c1.4-0.2,2.8-0.3,4.2-0.2l4.8,0.2c0,0,0,0,0,0c0.4,0,0.7-0.3,0.7-0.7c0-0.1,0-0.2,0-0.3l0.6-0.3l6.9-3.7     c1.1-0.6,2.4-0.4,3.2,0.5L71.2,55.6z"></path>			</g>			<g>				<path class="st2" d="M43.6,60.3c0,1.1,0.9,2,2,2c1.1,0,2-0.9,2-2c0-1.1-0.9-2-2-2C44.6,58.3,43.6,59.2,43.6,60.3z M45.7,59.6     c0.4,0,0.7,0.3,0.7,0.7c0,0.4-0.3,0.7-0.7,0.7S45,60.7,45,60.3C45,59.9,45.3,59.6,45.7,59.6z"></path>			</g>		</g>		<g>			<g>				<path class="st3" d="M31,95.8c-0.8,0-1.5-0.2-2.1-0.5c-0.6-0.3-1-0.8-1.3-1.4c-0.3-0.6-0.5-1.4-0.5-2.2c0-0.9,0.2-1.6,0.5-2.2     c0.3-0.6,0.8-1.1,1.3-1.4c0.6-0.3,1.3-0.5,2.1-0.5c0.6,0,1.1,0.1,1.6,0.3c0.5,0.2,0.9,0.4,1.2,0.8l-0.4,0.9     c-0.4-0.3-0.7-0.6-1.1-0.7c-0.4-0.1-0.8-0.2-1.2-0.2c-0.9,0-1.6,0.3-2.1,0.8c-0.5,0.5-0.7,1.3-0.7,2.4c0,1,0.2,1.8,0.7,2.4     c0.5,0.6,1.2,0.8,2.1,0.8c0.5,0,0.9-0.1,1.2-0.2c0.4-0.1,0.7-0.4,1.1-0.7l0.4,0.9c-0.3,0.3-0.7,0.6-1.2,0.8     C32.1,95.7,31.6,95.8,31,95.8z"></path>			</g>			<g>				<path class="st3" d="M37.3,95.8c-0.6,0-1.1-0.1-1.5-0.4c-0.4-0.2-0.7-0.6-1-1c-0.2-0.5-0.4-1-0.4-1.6s0.1-1.2,0.4-1.6     c0.2-0.5,0.5-0.8,1-1c0.4-0.2,0.9-0.4,1.5-0.4c0.6,0,1.1,0.1,1.5,0.4c0.4,0.2,0.7,0.6,1,1c0.2,0.5,0.3,1,0.3,1.6     c0,0.6-0.1,1.2-0.3,1.6c-0.2,0.5-0.5,0.8-1,1C38.3,95.7,37.8,95.8,37.3,95.8z M37.3,95c0.5,0,0.9-0.2,1.3-0.5     c0.3-0.4,0.5-0.9,0.5-1.6c0-0.7-0.2-1.3-0.5-1.6c-0.3-0.4-0.7-0.5-1.3-0.5c-0.5,0-1,0.2-1.3,0.5c-0.3,0.4-0.5,0.9-0.5,1.6     c0,0.7,0.2,1.3,0.5,1.6C36.3,94.8,36.7,95,37.3,95z"></path>			</g>			<g>				<path class="st3" d="M41.5,95.7v-8.5h1.1v8.5H41.5z"></path>			</g>			<g>				<path class="st3" d="M44.3,95.7v-8.5h1.1v8.5H44.3z"></path>			</g>			<g>				<path class="st3" d="M49.3,95.8c-0.5,0-1-0.1-1.3-0.4c-0.4-0.2-0.7-0.6-0.9-1c-0.2-0.5-0.3-1-0.3-1.6c0-0.6,0.1-1.2,0.3-1.6     c0.2-0.5,0.5-0.8,0.9-1c0.4-0.2,0.8-0.4,1.3-0.4c0.5,0,1,0.1,1.4,0.4c0.4,0.3,0.6,0.6,0.8,1.1h-0.1l0.1-1.3h1     c0,0.2,0,0.5-0.1,0.7c0,0.2,0,0.5,0,0.7v4.4h-1.1v-1.3h0.1c-0.1,0.4-0.4,0.8-0.8,1.1C50.3,95.7,49.9,95.8,49.3,95.8z M49.6,95     c0.5,0,0.9-0.2,1.3-0.5c0.3-0.4,0.5-0.9,0.5-1.6c0-0.7-0.2-1.3-0.5-1.6c-0.3-0.4-0.7-0.5-1.3-0.5c-0.5,0-0.9,0.2-1.3,0.5     c-0.3,0.4-0.5,0.9-0.5,1.6c0,0.7,0.2,1.3,0.5,1.6C48.6,94.8,49.1,95,49.6,95z"></path>			</g>			<g>				<path class="st3" d="M57.2,95.8c-0.5,0-1-0.1-1.3-0.4c-0.4-0.3-0.6-0.6-0.7-1.1h0.1v1.4h-1.1v-8.5h1.1v4h-0.1     c0.1-0.4,0.4-0.8,0.8-1.1c0.4-0.3,0.8-0.4,1.3-0.4c0.5,0,1,0.1,1.4,0.4c0.4,0.2,0.7,0.6,0.9,1c0.2,0.4,0.3,1,0.3,1.6     s-0.1,1.2-0.3,1.6c-0.2,0.5-0.5,0.8-0.9,1C58.1,95.7,57.7,95.8,57.2,95.8z M56.9,95c0.5,0,0.9-0.2,1.3-0.5     c0.3-0.4,0.5-0.9,0.5-1.6c0-0.7-0.2-1.3-0.5-1.6c-0.3-0.4-0.7-0.5-1.3-0.5c-0.5,0-1,0.2-1.3,0.5s-0.5,0.9-0.5,1.6     c0,0.7,0.2,1.3,0.5,1.6C56,94.8,56.4,95,56.9,95z"></path>			</g>			<g>				<path class="st3" d="M63.6,95.8c-0.6,0-1.1-0.1-1.5-0.4c-0.4-0.2-0.7-0.6-1-1c-0.2-0.5-0.4-1-0.4-1.6s0.1-1.2,0.4-1.6     c0.2-0.5,0.5-0.8,1-1c0.4-0.2,0.9-0.4,1.5-0.4c0.6,0,1.1,0.1,1.5,0.4c0.4,0.2,0.7,0.6,1,1c0.2,0.5,0.3,1,0.3,1.6     c0,0.6-0.1,1.2-0.3,1.6c-0.2,0.5-0.5,0.8-1,1C64.7,95.7,64.2,95.8,63.6,95.8z M63.6,95c0.5,0,0.9-0.2,1.3-0.5     c0.3-0.4,0.5-0.9,0.5-1.6c0-0.7-0.2-1.3-0.5-1.6c-0.3-0.4-0.7-0.5-1.3-0.5c-0.5,0-1,0.2-1.3,0.5c-0.3,0.4-0.5,0.9-0.5,1.6     c0,0.7,0.2,1.3,0.5,1.6C62.6,94.8,63.1,95,63.6,95z"></path>			</g>			<g>				<path class="st3" d="M67.8,95.7v-4.4c0-0.2,0-0.5,0-0.7c0-0.2,0-0.5-0.1-0.7h1l0.1,1.5l-0.2,0c0.1-0.4,0.2-0.7,0.4-0.9     c0.2-0.2,0.4-0.4,0.7-0.5c0.3-0.1,0.5-0.2,0.8-0.2c0.1,0,0.2,0,0.3,0s0.2,0,0.3,0.1l0,0.9c-0.1,0-0.2-0.1-0.3-0.1     c-0.1,0-0.2,0-0.4,0c-0.3,0-0.6,0.1-0.9,0.2c-0.2,0.2-0.4,0.4-0.5,0.6c-0.1,0.3-0.2,0.5-0.2,0.8v3.4L67.8,95.7L67.8,95.7z"></path>			</g>			<g>				<path class="st3" d="M74.3,95.8c-0.5,0-1-0.1-1.3-0.4c-0.4-0.2-0.7-0.6-0.9-1c-0.2-0.5-0.3-1-0.3-1.6c0-0.6,0.1-1.2,0.3-1.6     c0.2-0.5,0.5-0.8,0.9-1s0.8-0.4,1.3-0.4c0.5,0,1,0.1,1.4,0.4c0.4,0.3,0.6,0.6,0.8,1.1h-0.1l0.1-1.3h1c0,0.2,0,0.5-0.1,0.7     c0,0.2,0,0.5,0,0.7v4.4h-1.1v-1.3h0.1c-0.1,0.4-0.4,0.8-0.8,1.1C75.2,95.7,74.8,95.8,74.3,95.8z M74.5,95c0.5,0,0.9-0.2,1.3-0.5     s0.5-0.9,0.5-1.6c0-0.7-0.2-1.3-0.5-1.6c-0.3-0.4-0.7-0.5-1.3-0.5c-0.5,0-0.9,0.2-1.3,0.5s-0.5,0.9-0.5,1.6     c0,0.7,0.2,1.3,0.5,1.6C73.5,94.8,74,95,74.5,95z"></path>			</g>			<g>				<path class="st3" d="M81.2,95.8c-0.6,0-1.1-0.2-1.4-0.5c-0.3-0.3-0.5-0.8-0.5-1.5v-3.1h-1.1v-0.8h1.1v-1.6l1.1-0.3v1.9h1.6v0.8     h-1.6v3c0,0.4,0.1,0.8,0.2,1c0.2,0.2,0.4,0.3,0.7,0.3c0.2,0,0.3,0,0.4,0c0.1,0,0.2-0.1,0.3-0.1v0.9c-0.1,0-0.2,0.1-0.4,0.1     C81.5,95.8,81.4,95.8,81.2,95.8z"></path>			</g>			<g>				<path class="st3" d="M83.1,88.6v-1.1h1.2v1.1H83.1z M83.2,95.7v-5.8h1.1v5.8H83.2z"></path>			</g>			<g>				<path class="st3" d="M88.4,95.8c-0.6,0-1.1-0.1-1.5-0.4c-0.4-0.2-0.7-0.6-1-1c-0.2-0.5-0.4-1-0.4-1.6s0.1-1.2,0.4-1.6     c0.2-0.5,0.5-0.8,1-1c0.4-0.2,0.9-0.4,1.5-0.4c0.6,0,1.1,0.1,1.5,0.4c0.4,0.2,0.7,0.6,1,1c0.2,0.5,0.3,1,0.3,1.6     c0,0.6-0.1,1.2-0.3,1.6c-0.2,0.5-0.5,0.8-1,1C89.5,95.7,89,95.8,88.4,95.8z M88.4,95c0.5,0,0.9-0.2,1.3-0.5s0.5-0.9,0.5-1.6     c0-0.7-0.2-1.3-0.5-1.6c-0.3-0.4-0.7-0.5-1.3-0.5c-0.5,0-1,0.2-1.3,0.5c-0.3,0.4-0.5,0.9-0.5,1.6c0,0.7,0.2,1.3,0.5,1.6     C87.5,94.8,87.9,95,88.4,95z"></path>			</g>			<g>				<path class="st3" d="M92.6,95.7v-4.4c0-0.2,0-0.5,0-0.7c0-0.2,0-0.5-0.1-0.7h1l0.1,1.2h-0.1c0.2-0.4,0.5-0.8,0.8-1     s0.8-0.4,1.3-0.4c0.7,0,1.2,0.2,1.6,0.6s0.5,1,0.5,1.7v3.6h-1.1v-3.6c0-0.5-0.1-0.9-0.3-1.2c-0.2-0.2-0.5-0.4-1-0.4     c-0.5,0-0.9,0.2-1.2,0.5c-0.3,0.3-0.5,0.7-0.5,1.3v3.3L92.6,95.7L92.6,95.7z"></path>			</g>		</g>	</g>	<g>		<g>			<g>				<g>					<path class="st2" d="M79.1-11.1C58.9-11,18.4-10.8-1.7-10.8l0.3-0.2c-0.5,0.7-1.3,1.1-2.1,1.2c-0.8,0-1.7-0.4-2.2-1l0.4,0.2      c-2.5,0.7-4.6,2.7-5.3,5.3l-0.1-0.4c0.7,0.5,1,1.3,1,2.2c0,0.8-0.5,1.6-1.2,2l0.1-0.2l-0.1,22.5L-11,43.1      c-0.1-11.2-0.2-33.7-0.3-44.9v-0.1c0.6-0.4,0.9-1,0.9-1.7c0-0.7-0.4-1.3-1-1.7l0.1-0.2c0.7-2.9,3.1-5.3,6-5.9l0.2,0.2      c0.4,0.5,0.9,0.8,1.6,0.8c0.7,0,1.3-0.4,1.7-1h0.2C18.4-11.4,58.9-11.3,79.1-11.1L79.1-11.1z"></path>				</g>			</g>		</g>		<g>			<path class="st4" d="M122.3,127H2.7c-2.6,0-4.7-2.1-4.7-4.7V2.7C-2,0.1,0.1-2,2.7-2h119.6c2.6,0,4.7,2.1,4.7,4.7v119.6    C127,124.9,124.9,127,122.3,127z M2.7-1.4c-2.3,0-4.1,1.9-4.1,4.1v119.6c0,2.3,1.9,4.1,4.1,4.1h119.6c2.3,0,4.1-1.9,4.1-4.1V2.7    c0-2.3-1.9-4.1-4.1-4.1C122.3-1.4,2.7-1.4,2.7-1.4z"></path>		</g>		<g>			<g>				<g>					<path class="st2" d="M45.9,136.1c20.2-0.1,60.6-0.3,80.8-0.4l-0.3,0.2c0.5-0.7,1.3-1.1,2.1-1.2c0.8,0,1.7,0.4,2.2,1l-0.4-0.2      c2.5-0.7,4.6-2.7,5.3-5.3l0.1,0.4c-0.7-0.5-1-1.3-1-2.2c0-0.8,0.5-1.6,1.2-2l-0.1,0.2l0.1-22.5l0.2-22.5      c0.1,11.2,0.2,33.7,0.3,44.9v0.1c-0.6,0.4-0.9,1-0.9,1.7c0,0.7,0.4,1.3,1,1.7l-0.1,0.2c-0.7,2.9-3.1,5.3-6,5.9l-0.2-0.2      c-0.4-0.5-0.9-0.8-1.6-0.8c-0.7,0-1.3,0.4-1.7,1h-0.2C106.6,136.4,66.1,136.3,45.9,136.1L45.9,136.1z"></path>				</g>			</g>		</g>	</g></g></svg>