<svg xmlns="http://www.w3.org/2000/svg" xmlns:xlink="http://www.w3.org/1999/xlink" id="Layer_1" x="0px" y="0px" viewBox="0 0 250 250" style="enable-background:new 0 0 250 250;" xml:space="preserve"><style type="text/css">	.st0{fill:#661311;}	.st1{fill:#F07043;}	.st2{fill:#B4887C;}	.st3{fill:#FFFFFF;}	.st4{fill:none;stroke:#661311;stroke-width:6.3152;stroke-linecap:round;stroke-linejoin:round;stroke-miterlimit:10;}</style><g>	<g>		<g>			<circle class="st1" cx="37.08" cy="208.54" r="21.52"></circle>		</g>		<g>			<path class="st1" d="M214.26,202.43v-4.23v-0.04c-6.72,7.81-14.41,14.69-22.98,20.53c-1.27,0.86-2.54,1.69-3.83,2.51    c-1.75,1.09-3.51,2.14-5.29,3.12c-0.45,0.26-0.91,0.5-1.36,0.74c-1.01,0.54-2.03,1.07-3.06,1.58c-0.01,0.01-0.04,0.03-0.06,0.04    c-13.82,6.87-28.84,10.96-44.15,12.09c-1.08,0.07-2.16,0.14-3.24,0.18c-0.63,0.04-1.25,0.06-1.88,0.07    c-2.26,0.07-4.52,0.06-6.78,0c-0.63-0.03-1.25-0.05-1.88-0.07c-1.08-0.04-2.16-0.1-3.24-0.18c-15.31-1.13-30.33-5.22-44.15-12.09    c-0.03-0.03-0.05-0.04-0.06-0.04c-1.03-0.5-2.05-1.04-3.06-1.58l-1.36-0.74c-1.78-1-3.55-2.03-5.29-3.12    c-1.29-0.81-2.57-1.65-3.83-2.51c-8.57-5.83-16.27-12.71-22.98-20.53v0.04v4.23c0,1.41-0.3,2.76-0.8,4.01    c1.52,1.62,3.1,3.19,4.69,4.72c0.1,0.09,0.2,0.17,0.28,0.26c1.39,1.31,2.8,2.59,4.25,3.83c0.65,0.55,1.3,1.11,1.96,1.65    c0.76,0.64,1.54,1.27,2.32,1.88c0.06,0.05,0.12,0.1,0.18,0.15c0.06,0.05,0.12,0.1,0.18,0.14c0.76,0.6,1.52,1.19,2.31,1.76    c0.09,0.07,0.18,0.15,0.27,0.21c0.42,0.31,0.84,0.63,1.27,0.93c0.86,0.61,1.73,1.22,2.6,1.82c0.64,0.43,1.28,0.86,1.92,1.28    c0.7,0.47,1.4,0.91,2.11,1.35c0.6,0.38,1.2,0.75,1.81,1.11c1.18,0.71,2.37,1.39,3.56,2.06c0.54,0.3,1.09,0.6,1.65,0.9    c1.03,0.55,2.06,1.09,3.11,1.61c0.03,0.01,0.05,0.03,0.06,0.04c15.94,8.01,33.03,12.27,50.11,12.97    c0.63,0.03,1.24,0.05,1.85,0.06c0.54,0.03,1.07,0.04,1.6,0.04c1.3,0.04,2.6,0.04,3.91,0c0.53,0,1.06-0.01,1.6-0.04    c0.61-0.01,1.23-0.04,1.85-0.06c17.05-0.7,34.14-4.95,50.07-12.95c0.03-0.01,0.04-0.01,0.06-0.04c1.04-0.52,2.08-1.06,3.11-1.61    c0.04-0.01,0.07-0.03,0.11-0.06c0.53-0.28,1.06-0.58,1.57-0.86c1.12-0.61,2.22-1.25,3.33-1.92c0.69-0.42,1.36-0.82,2.04-1.25    c0.68-0.42,1.35-0.85,2.03-1.29c0.66-0.44,1.34-0.88,2-1.34c7.43-5.05,14.21-10.86,20.33-17.33    C214.55,205.2,214.26,203.85,214.26,202.43z"></path>		</g>		<g>			<circle class="st1" cx="212.92" cy="208.54" r="21.52"></circle>		</g>	</g>	<g>		<path class="st0" d="M236.41,116.2c0,22.22-6.51,42.92-17.73,60.3c-1.87-0.36-3.8-0.53-5.76-0.53   c-17.97,0-32.58,14.62-32.58,32.58c0,1.42,0.09,2.83,0.28,4.2c-16.36,9.45-35.37,14.85-55.62,14.85   c-20.27,0-39.25-5.44-55.62-14.91c0.2-1.35,0.28-2.74,0.28-4.14c0-17.96-14.61-32.58-32.58-32.58c-1.95,0-3.88,0.17-5.74,0.52   c-11.22-17.38-17.75-38.07-17.75-60.29C13.59,54.68,63.48,4.79,125,4.79C186.53,4.79,236.41,54.68,236.41,116.2z"></path>		<g>			<g>				<path class="st2" d="M160.67,87.05c-0.71-1.57-1.53-3.09-2.45-4.55c-1.79-2.87-3.97-5.95-6.66-8.08     c-0.17-0.17-0.37-0.31-0.57-0.43c-0.01-0.01-0.02-0.02-0.03-0.02c-1.13-0.65-2.61-0.57-3.65,0.26     c-1.15,0.92-1.85,2.92-0.85,4.24c1.72,2.26,3.8,4.18,5.4,6.56c0.77,1.14,1.48,2.32,2.13,3.54c0.09,0.16,0.17,0.32,0.25,0.49     c-0.46-0.03-0.91-0.07-1.29-0.07c-1.62,0.01-3.24,0.02-4.86,0.04c-2.93,0.04-6.97-0.35-9.49,1.37c-1.27,0.87-1.21,2.46,0,3.34     c1.65,1.19,3.88,1.25,5.84,1.39c2.03,0.15,4.05,0.24,6.08,0.31c2.03,0.08,4.05,0.16,6.08,0.18c2.31,0.03,4.5-0.76,5.15-3.22     C162.27,90.5,161.43,88.74,160.67,87.05z M155,90.62c0.07,0.18,0.14,0.36,0.23,0.5C155.71,91.86,154.26,91.73,155,90.62z"></path>				<path class="st2" d="M174.32,73.09c-0.27-1.36-1.98-2.77-3.41-2.6c-0.87,0.11-1.64,0.17-2.36,0.72     c-1.08,0.82-1.79,1.86-1.58,3.29c0.07,0.47,0.26,0.96,0.53,1.4c0,0.13-0.02,0.24-0.04,0.3c0.03-0.06,0.14-0.04,0.16-0.07     c-0.12,0.16-0.36,0.17-0.55,0.24c-2.03,0.67-4.22,0.97-6.29,1.47c-2.52,0.61-2.83,5.03,0,5.41c3.29,0.45,7.41,0.63,10.43-1.04     C174.5,80.38,174.98,76.47,174.32,73.09z"></path>				<path class="st2" d="M176.39,147.5c-0.04-2.04-1.02-35.29-1.42-44.05c-0.11-2.36-3.11-4.41-5.14-3.03     c-0.14-0.05-0.28-0.1-0.42-0.13c-0.02-0.02-0.04-0.05-0.06-0.08c-0.16-0.17-0.33-0.32-0.51-0.46c-0.64-0.7-1.5-1.04-2.37-1.05     c-1.61-0.37-3.41-0.33-4.89-0.39c-5.41-0.24-10.83,0.13-16.23,0.37l-12.13,0.53c0.45-0.56,0.72-1.25,0.68-1.99     c-0.13-2.48-0.39-4.97-0.67-7.44c-0.29-2.52-0.5-5.04-1.28-7.46c-0.02-0.07-0.05-0.12-0.08-0.19c1.47-0.5,2.75-1.41,3.63-3.02     c1.7-3.11,1.81-9.99-2.88-10.27c-1.71-0.1-2.85,1.46-2.98,2.98c-0.05,0.54,0.6,3.51,0.09,4.11c-0.43,0.52-1.63,0.52-2.28,0.66     c-0.3,0.06-0.6,0.12-0.9,0.19c0.26-0.93-0.01-2-0.67-2.83c-1.15-1.44-2.95-1.13-4.54-0.79c-1.54,0.33-3.1,0.54-4.67,0.65     c-3.27,0.24-6.57,0.15-9.84-0.02c-6.03-0.3-11.93-0.94-17.92-0.32c-0.01-0.87-0.16-1.71-0.47-2.49     c-0.73-1.81-2.91-3.3-4.84-1.97l-0.23,0.16c-0.87,0.59-1.68,1.6-1.57,2.74l0.02,0.2c0.03,0.27,0.08,0.54,0.16,0.79     c0.02,1.17,0.01,2.27-0.94,3.21c-0.99,0.98-2.22,0.81-3.51,0.57c-2.73-0.52-4.47,2.45-2.66,4.57c1.01,1.18,2.38,1.79,3.85,1.96     c-0.18,4.67-0.28,9.33-0.16,14c0.07,2.64,0.17,5.28,0.28,7.92c0.12,2.75-0.13,5.97,0.64,8.62c0.68,2.34,4.73,2.74,5.15,0     c0.43-2.78-0.09-5.81-0.24-8.62c-0.13-2.64-0.78-17.78-0.97-22.71c0.62-0.28,1.2-0.63,1.71-1.02c1.17-0.91,2.18-2.25,2.86-3.76     c6,0.4,11.98,1.13,17.97,1.63c2.99,0.25,5.98,0.4,8.99,0.29c2.32-0.09,4.56-0.46,6.82-0.82c-0.68,1.54,0.32,3.84,2.39,3.89     c1.05,0.02,2.17,0.08,3.28,0.08c-0.82,4.7-0.45,9.79-0.12,14.52c0.06,0.85,0.39,1.64,0.92,2.24c-0.48,0.07-0.94,0.22-1.35,0.45     c-5.55,0.22-11.12,0.18-16.66-0.1c-1-1.94-4.53-1.15-4.53,1.28c0.01,5.09,0.12,10.18,0.16,15.27c-0.69-0.45-1.55-0.65-2.46-0.44     c-1.93,0.45-5.07,0.26-7.42,0.35c-2.01,0.08-4.16,0.07-6.22,0.32c-0.16-0.57-0.43-1.08-0.7-1.67c-0.82-1.77-3.66-1.64-4.52,0     c-0.46,0.88-0.85,1.7-1.2,2.66c-0.1,0.28-0.29,0.57-0.39,0.85c-0.21,0.06-0.42,0.11-0.63,0.16c-1.98,0.48-4,0.63-6,0.99     c-2.75,0.5-2.21,4.27,0,5.05c2.89,1.02,7.35,1.13,10.13-0.35c0.79-0.42,1.45-1.04,1.97-1.77c2.85,0.46,5.93,0.31,8.75,0.3     c3.02-0.01,6.93,0.67,9.29-1.63c0.07-0.07,0.14-0.15,0.21-0.22c1.12,1.16,3.17,1.29,4.57,0.12c4.49-3.75,8.52-7.91,12.12-12.52     c0.44-0.56,0.74-1.2,0.85-1.85c0.11,0,0.21,0,0.32,0c0.34,0.28,0.76,0.49,1.24,0.59c3.14,0.61,5.51,2.64,7.58,4.96     c0.19,0.26,0.39,0.52,0.6,0.77c0.13,0.15,0.27,0.29,0.41,0.42c0.38,0.47,7.16,9.18,10.17,13.08c-1.09-1.06-2.32-2.02-3.4-3.04     c-1.78-1.71-3.54-3.45-5.23-5.26c-1.62-1.73-3.2-3.52-4.74-5.32c-1.54-1.78-3.03-3.52-5.57-3.43c-1.21,0.04-2.32,1.49-1.51,2.63     c1.23,1.7,2.25,3.58,3.5,5.29c1.39,1.9,2.89,3.72,4.44,5.49c1.51,1.72,3.07,3.4,4.72,4.99c1.65,1.6,3.51,3.79,5.63,4.71     c1.19,0.52,2.51,0.53,3.49-0.45c0.78-0.78,1.07-2.1,0.63-3.14c0.98,0.83,2.91,1.01,3.89,0.25l6.31-4.84     c-0.01,0.28,0.04,0.57,0.17,0.89c1.13,2.83,2.67,5.43,4.98,7.47c1.52,1.35,4.38,3.7,6.89,3.98c-0.01,2.81-0.13,5.62-0.38,8.46     c-0.05,0.58,0.06,1.1,0.27,1.53c-1.53,0.07-3.06,0.19-4.57,0.24c-2.56,0.09-33.54,0.73-38.65,0.75     c-4.27,0.02-8.77-0.28-13.07,0.23l0.64-3.63c1.52-3.91,3.03-7.8,2.89-12.1c-0.06-1.7-1.26-3.17-2.98-3.37     c-1.81-0.21-3.12,0.82-3.77,2.46c-1.49,3.8-2.2,7.81-2.95,11.8c-0.32,0.82-0.64,1.63-0.93,2.45c-0.89,2.56-1.48,5.23-1.76,7.92     c-0.21,0.26-0.38,0.55-0.49,0.86c-1.87-1.16-3.76-2.29-5.66-3.39c-0.95-0.55-2.3-0.63-3.24,0c-3.9,2.58-7.99,6.23-9.4,10.84     c-0.75,2.47,2.46,4.18,4.23,2.46c1.41-1.37,2.58-2.95,3.99-4.31c0.91-0.87,1.84-1.66,2.85-2.39c3.16,2.01,6.3,4.07,9.4,6.18     c2.01,1.37,5.35-0.42,5.1-2.93c-0.07-0.71-0.12-1.42-0.14-2.13c0.05-0.07,0.09-0.13,0.14-0.21c0.03,0,0.07,0,0.1,0     c7.42-0.6,14.77-1.33,22.23-1.43c7.5-0.1,14.99,0.16,22.49,0.06c3.74-0.05,7.48-0.2,11.21-0.54c3.56-0.32,8.41-0.19,9.79-4.28     C176.57,150.77,176.42,149.1,176.39,147.5z M153.19,114.56c-2.07,1.33-4.42,2.15-6.88,2.3c-0.19,0.01-0.36,0.04-0.53,0.08     c-1.07-1.4-2.15-2.79-3.24-4.17c2.59-1.41,3.87-4.45,3.47-7.35c2.85-0.13,5.7-0.24,8.55-0.31c-2.14,2.39-1.27,5.91,1.4,7.33     C155.09,113.25,154.11,113.97,153.19,114.56z M161.23,123.44c-0.44-0.71-1.16-1.04-1.9-1.08c0.93-0.71,1.93-1.41,2.91-2.15     l1.73,5.77c0.62,2.07,2.71,2.75,4.39,2.21c0.05,0.62,0.1,1.23,0.14,1.85c-0.48-0.22-0.95-0.45-1.39-0.71     C164.76,127.89,162.68,125.79,161.23,123.44z"></path>			</g>			<g>				<g>					<path class="st3" d="M172.66,152.63h-64.79c-0.52,0-0.94-0.42-0.94-0.94s0.42-0.94,0.94-0.94h63.86l0.46-51.86l-65.78,0.74      l0.27,29.49c0.01,0.52-0.41,0.95-0.93,0.95c-0.55,0.03-0.95-0.41-0.95-0.93l-0.28-30.44c-0.01-0.52,0.41-0.95,0.93-0.95      l67.69-0.76c0.27-0.05,0.5,0.1,0.68,0.28c0.18,0.18,0.28,0.42,0.28,0.68l-0.48,53.75C173.6,152.22,173.18,152.63,172.66,152.63      z"></path>				</g>				<g>					<path class="st3" d="M172.83,135.85c-0.28,0-0.55-0.12-0.74-0.36c-3.92-4.93-8.33-10.47-12.05-13.91      c-3.01,2.8-7.95,7.18-12.94,11.16c-0.2,0.16-0.46,0.23-0.73,0.2c-0.26-0.04-0.49-0.18-0.64-0.39c-1.54-2.21-2.94-4.2-4.51-6.1      c-2.81-3.38-5.77-6.74-8.63-9.98c-2.13-2.41-4.26-4.82-6.35-7.27c-1.8,1.56-3.55,3.27-5.25,4.92c-1.43,1.39-2.85,2.77-4.3,4.08      c-2.72,2.45-5.58,4.81-8.35,7.09l-2.04,1.68c-0.4,0.33-0.99,0.28-1.33-0.12c-0.33-0.4-0.28-0.99,0.12-1.33l2.04-1.69      c2.75-2.27,5.6-4.62,8.28-7.03c1.43-1.29,2.83-2.65,4.24-4.03c1.95-1.89,3.96-3.85,6.07-5.62c0.4-0.34,0.99-0.28,1.33,0.11      c2.28,2.68,4.61,5.32,6.94,7.96c2.87,3.25,5.84,6.62,8.66,10.02c1.42,1.71,2.69,3.48,4.04,5.4c5.04-4.07,9.93-8.44,12.67-11.03      c0.35-0.33,0.9-0.35,1.27-0.02c3.98,3.48,8.73,9.45,12.92,14.73c0.32,0.41,0.26,1-0.15,1.33      C173.24,135.78,173.04,135.85,172.83,135.85z"></path>				</g>				<g>					<path class="st3" d="M149.76,117.58c-3.46,0-5.98-2.39-5.98-5.69c0-3.2,2.29-5.85,5.33-6.17l0,0c0.24-0.03,0.49-0.04,0.73-0.04      c3.88,0,6.48,3.04,6.48,5.87C156.32,114.71,153.19,117.58,149.76,117.58z M149.84,107.57c-0.18,0-0.36,0.01-0.53,0.03l0,0      c-2.39,0.25-3.64,2.35-3.64,4.29c0,2.62,2.06,3.8,4.09,3.8c2.4,0,4.67-2.01,4.67-4.13      C154.44,109.63,152.59,107.57,149.84,107.57z M149.21,106.66h0.02H149.21z"></path>				</g>				<g>					<path class="st3" d="M137.47,92.02c-0.34,0-0.66-0.19-0.83-0.49c-0.17-0.3-0.16-0.68,0.03-0.97c1.16-1.8,2.35-3.57,3.54-5.35      c1.27-1.9,2.55-3.79,3.78-5.71c0.86-1.33,1.69-2.67,2.52-4.02c0.76-1.22,1.51-2.44,2.28-3.64c0.17-0.27,0.46-0.43,0.78-0.44      c0.27-0.01,0.61,0.15,0.79,0.41l12.77,18.46c0.2,0.29,0.22,0.66,0.06,0.97c-0.16,0.31-0.48,0.51-0.83,0.51L137.47,92.02      C137.48,92.02,137.48,92.02,137.47,92.02z M149.64,74.05c-0.51,0.8-1.01,1.61-1.51,2.42c-0.84,1.35-1.68,2.7-2.54,4.04      c-1.24,1.93-2.52,3.84-3.8,5.75c-0.86,1.28-1.72,2.56-2.57,3.85l21.36-0.23L149.64,74.05z"></path>				</g>				<g>					<path class="st3" d="M165.24,81.34c-3.88,0-6.8-2.91-6.8-6.77c0-3.68,3.01-7.41,7.73-7.1c0,0,0,0,0,0      c2.88,0.2,5.43,2.12,6.33,4.76c0.23,0.67,0.35,1.37,0.35,2.06C172.85,78.05,169.29,81.34,165.24,81.34z M165.49,69.33      c-3.35,0-5.16,2.7-5.16,5.24c0,2.78,2.11,4.88,4.91,4.88c3,0,5.73-2.46,5.73-5.16c0-0.48-0.08-0.97-0.25-1.45      c-0.65-1.9-2.57-3.34-4.68-3.49C165.85,69.34,165.67,69.33,165.49,69.33z"></path>				</g>				<g>					<path class="st3" d="M87.12,164.02c-0.03,0-0.06,0-0.09,0c-0.28-0.02-0.53-0.17-0.68-0.4c-3.4-4.82-7.38-10.25-11.11-13.99      c-0.22-0.22-0.31-0.52-0.26-0.83c0.05-0.3,0.25-0.56,0.52-0.69c4.42-2.14,8.58-4.46,12.39-6.9l-8.12-10.78      c-0.21-0.28-0.25-0.66-0.1-0.98c0.15-0.32,0.47-0.52,0.82-0.54l32.91-0.96c0.3-0.01,0.57,0.12,0.76,0.35      c0.19,0.23,0.25,0.53,0.18,0.82l-8.22,33.72c-0.09,0.36-0.37,0.63-0.73,0.7c-0.36,0.08-0.72-0.07-0.94-0.36l-6.5-8.63      c-4.46,3.85-7.8,6.86-10.17,9.18C87.6,163.92,87.36,164.02,87.12,164.02z M77.48,149.24c3.32,3.52,6.74,8.14,9.77,12.4      c2.47-2.37,5.83-5.38,10.23-9.15c0.2-0.17,0.46-0.24,0.72-0.22c0.26,0.03,0.5,0.16,0.65,0.37l5.91,7.85l7.46-30.59l-29.85,0.87      L90,140.88c0.16,0.21,0.22,0.47,0.18,0.73c-0.04,0.26-0.19,0.48-0.41,0.63C85.99,144.71,81.87,147.06,77.48,149.24z"></path>				</g>				<g>					<path class="st3" d="M81.05,79.81h-3.08c-2.43,0-4.4-1.98-4.4-4.4v-3.08c0-2.43,1.98-4.4,4.4-4.4h3.08c2.43,0,4.4,1.98,4.4,4.4      v3.08C85.46,77.84,83.48,79.81,81.05,79.81z M77.97,69.81c-1.39,0-2.51,1.13-2.51,2.51v3.08c0,1.39,1.13,2.51,2.51,2.51h3.08      c1.39,0,2.51-1.13,2.51-2.51v-3.08c0-1.39-1.13-2.51-2.51-2.51H77.97z"></path>				</g>				<g>					<path class="st3" d="M81.05,123.68h-3.08c-2.43,0-4.4-1.98-4.4-4.4v-3.08c0-2.43,1.98-4.4,4.4-4.4h3.08      c2.43,0,4.4,1.98,4.4,4.4v3.08C85.46,121.7,83.48,123.68,81.05,123.68z M77.97,113.67c-1.39,0-2.51,1.13-2.51,2.51v3.08      c0,1.39,1.13,2.52,2.51,2.52h3.08c1.39,0,2.51-1.13,2.51-2.52v-3.08c0-1.39-1.13-2.51-2.51-2.51H77.97z"></path>				</g>				<g>					<path class="st3" d="M129.49,79.81h-3.08c-2.43,0-4.4-1.98-4.4-4.4v-3.08c0-2.43,1.98-4.4,4.4-4.4h3.08      c2.43,0,4.4,1.98,4.4,4.4v3.08C133.89,77.84,131.91,79.81,129.49,79.81z M126.4,69.81c-1.39,0-2.51,1.13-2.51,2.51v3.08      c0,1.39,1.13,2.51,2.51,2.51h3.08c1.39,0,2.52-1.13,2.52-2.51v-3.08c0-1.39-1.13-2.51-2.52-2.51H126.4z"></path>				</g>				<g>					<path class="st3" d="M122.95,74.1H84.51c-0.52,0-0.94-0.42-0.94-0.94s0.42-0.94,0.94-0.94h38.43c0.52,0,0.94,0.42,0.94,0.94      S123.47,74.1,122.95,74.1z"></path>				</g>				<g>					<path class="st3" d="M128.52,99.38c-0.52,0-0.94-0.42-0.94-0.94V78.87c0-0.52,0.42-0.94,0.94-0.94c0.52,0,0.94,0.42,0.94,0.94      v19.57C129.46,98.96,129.04,99.38,128.52,99.38z"></path>				</g>				<g>					<path class="st3" d="M105.64,119.67H84.51c-0.52,0-0.94-0.42-0.94-0.94c0-0.52,0.42-0.94,0.94-0.94h21.13      c0.52,0,0.94,0.42,0.94,0.94C106.58,119.25,106.16,119.67,105.64,119.67z"></path>				</g>				<g>					<path class="st3" d="M79.08,113.67c-0.52,0-0.94-0.42-0.94-0.94V78.87c0-0.52,0.42-0.94,0.94-0.94s0.94,0.42,0.94,0.94v33.86      C80.03,113.25,79.6,113.67,79.08,113.67z"></path>				</g>			</g>		</g>	</g></g></svg>