<svg xmlns="http://www.w3.org/2000/svg" xmlns:xlink="http://www.w3.org/1999/xlink" id="Layer_1" x="0px" y="0px" viewBox="0 0 256.67 269.62" style="enable-background:new 0 0 256.67 269.62;" xml:space="preserve"><style type="text/css">	.st0{fill:#EA4824;}	.st1{fill:#651313;}	.st2{fill:#F7B393;}	.st3{fill:#FFFFFF;}	.st4{fill:#EB4824;}	.st5{fill:#FCD7C3;}	.st6{fill:#D4BBB3;}</style><g>	<g>		<circle class="st0" cx="76.32" cy="152.56" r="12.46"></circle>		<path class="st1" d="M191.74,99.08c0,12.87-3.77,24.86-10.26,34.92c-1.08-0.21-2.2-0.31-3.34-0.31   c-10.41,0-18.87,8.47-18.87,18.87c0,0.83,0.05,1.64,0.16,2.43c-9.48,5.47-20.48,8.6-32.21,8.6c-11.74,0-22.73-3.15-32.21-8.64   c0.11-0.78,0.16-1.59,0.16-2.4c0-10.4-8.46-18.87-18.87-18.87c-1.13,0-2.25,0.1-3.32,0.3c-6.49-10.07-10.28-22.05-10.28-34.91   c0-35.63,28.89-64.51,64.51-64.51C162.86,34.57,191.74,63.46,191.74,99.08z"></path>		<path class="st0" d="M178.92,149.03v-2.45v-0.02c-3.89,4.52-8.34,8.51-13.31,11.89c-0.73,0.5-1.47,0.98-2.22,1.45   c-1.01,0.63-2.03,1.24-3.07,1.81c-0.26,0.15-0.53,0.29-0.79,0.43c-0.58,0.31-1.17,0.62-1.77,0.92c-0.01,0.01-0.02,0.01-0.04,0.02   c-8,3.98-16.7,6.35-25.57,7c-0.63,0.04-1.25,0.08-1.88,0.11c-0.36,0.02-0.73,0.04-1.09,0.04c-1.31,0.04-2.62,0.04-3.93,0   c-0.36-0.01-0.73-0.03-1.09-0.04c-0.63-0.02-1.25-0.06-1.88-0.11c-8.86-0.65-17.56-3.02-25.57-7c-0.01-0.01-0.03-0.02-0.04-0.02   c-0.6-0.29-1.19-0.6-1.77-0.92l-0.79-0.43c-1.03-0.58-2.06-1.17-3.07-1.81c-0.75-0.47-1.49-0.95-2.22-1.45   c-4.97-3.38-9.42-7.36-13.31-11.89v0.02v2.45c0,0.82-0.17,1.6-0.46,2.32c0.88,0.94,1.79,1.85,2.72,2.73   c0.06,0.05,0.11,0.1,0.16,0.15c0.8,0.76,1.62,1.5,2.46,2.22c0.38,0.32,0.75,0.64,1.14,0.95c0.44,0.37,0.89,0.73,1.34,1.09   c0.04,0.03,0.07,0.06,0.11,0.09s0.07,0.06,0.11,0.08c0.44,0.35,0.88,0.69,1.34,1.02c0.05,0.04,0.11,0.09,0.16,0.12   c0.24,0.18,0.48,0.36,0.73,0.54c0.5,0.36,1,0.7,1.51,1.05c0.37,0.25,0.74,0.5,1.11,0.74c0.41,0.27,0.81,0.53,1.22,0.78   c0.35,0.22,0.7,0.43,1.05,0.64c0.68,0.41,1.37,0.8,2.06,1.2c0.31,0.17,0.63,0.35,0.95,0.52c0.6,0.32,1.2,0.63,1.8,0.93   c0.01,0.01,0.03,0.01,0.04,0.02c9.23,4.64,19.13,7.11,29.02,7.51c0.36,0.01,0.72,0.03,1.07,0.04c0.31,0.01,0.62,0.02,0.92,0.02   c0.75,0.02,1.51,0.02,2.26,0c0.31,0,0.61-0.01,0.92-0.02c0.36-0.01,0.71-0.02,1.07-0.04c9.87-0.41,19.77-2.87,29-7.5   c0.01-0.01,0.02-0.01,0.04-0.02c0.6-0.3,1.2-0.61,1.8-0.93c0.02-0.01,0.04-0.01,0.06-0.04c0.31-0.16,0.61-0.33,0.91-0.5   c0.65-0.36,1.29-0.73,1.93-1.11c0.4-0.24,0.79-0.48,1.18-0.73c0.39-0.24,0.78-0.49,1.17-0.75c0.38-0.26,0.78-0.51,1.16-0.78   c4.3-2.92,8.23-6.29,11.77-10.04C179.09,150.63,178.92,149.85,178.92,149.03z"></path>		<circle class="st0" cx="178.14" cy="152.56" r="12.46"></circle>		<g>			<path class="st2" d="M99.65,93.57l4.54-0.72c0.71-3.16,1.96-6.17,3.69-8.9l-2.7-3.73c-1.81-2.5-1.26-5.99,1.24-7.8    c0.3-0.22,0.63-0.41,0.97-0.57c-2.81-1.27-6.12-0.03-7.39,2.78c-0.83,1.83-0.61,3.96,0.57,5.59l2.7,3.73    c-1.73,2.73-2.98,5.74-3.69,8.9l-4.54,0.72c-3.05,0.48-5.12,3.35-4.64,6.39c0.38,2.39,2.25,4.26,4.64,4.64l4.54,0.72    c0.71,3.16,1.96,6.17,3.69,8.9l-2.7,3.73c-1.81,2.49-1.27,5.98,1.22,7.8c1.63,1.19,3.77,1.4,5.6,0.57    c-2.81-1.27-4.05-4.58-2.78-7.39c0.16-0.34,0.35-0.67,0.57-0.98l2.7-3.73c-1.73-2.73-2.98-5.74-3.69-8.9l-4.54-0.72    c-3.05-0.48-5.12-3.35-4.64-6.39C95.39,95.82,97.26,93.95,99.65,93.57z"></path>			<path class="st3" d="M159.56,92.66l-3.93-0.62c-0.7-2.83-1.82-5.55-3.33-8.04l2.34-3.22c2.11-2.91,1.46-6.98-1.44-9.09    c-2.28-1.65-5.37-1.65-7.65,0l-3.22,2.34c-2.5-1.51-5.21-2.63-8.04-3.33l-0.62-3.93c-0.56-3.55-3.9-5.97-7.45-5.41    c-2.78,0.44-4.96,2.62-5.41,5.41l-0.62,3.93c-2.83,0.7-5.55,1.82-8.04,3.33l-3.22-2.34c-2.91-2.11-6.98-1.47-9.09,1.44    c-1.66,2.28-1.66,5.37,0,7.65l2.34,3.22c-1.51,2.5-2.63,5.21-3.33,8.04l-3.93,0.63c-3.55,0.56-5.97,3.9-5.41,7.45    c0.44,2.78,2.62,4.96,5.41,5.41l3.93,0.62c0.7,2.83,1.82,5.55,3.33,8.04l-2.34,3.22c-2.11,2.91-1.46,6.98,1.44,9.09    c2.28,1.65,5.37,1.65,7.65,0l3.22-2.34c2.5,1.51,5.21,2.63,8.04,3.33l0.62,3.93c0.56,3.55,3.9,5.97,7.45,5.41    c2.78-0.44,4.96-2.62,5.41-5.41l0.62-3.93c2.83-0.7,5.55-1.82,8.04-3.33l3.22,2.34c2.91,2.11,6.98,1.46,9.09-1.44    c1.65-2.28,1.65-5.37,0-7.65l-2.34-3.22c1.51-2.5,2.63-5.21,3.33-8.04l3.93-0.62c3.55-0.56,5.97-3.9,5.41-7.45    C164.53,95.28,162.35,93.1,159.56,92.66L159.56,92.66z M159.27,103.69l-4.54,0.72c-0.37,0.06-0.67,0.34-0.76,0.71    c-0.68,3.05-1.89,5.96-3.57,8.61c-0.2,0.32-0.19,0.73,0.03,1.04l2.7,3.72c1.51,2.08,1.05,5-1.03,6.51    c-1.63,1.19-3.84,1.19-5.48,0l-3.73-2.7c-0.31-0.22-0.72-0.24-1.04-0.03c-2.64,1.68-5.55,2.88-8.61,3.57    c-0.37,0.08-0.65,0.38-0.71,0.76l-0.72,4.54c-0.4,2.54-2.79,4.28-5.34,3.87c-1.99-0.32-3.55-1.88-3.87-3.87l-0.72-4.54    c-0.06-0.37-0.34-0.67-0.71-0.76c-3.05-0.68-5.96-1.89-8.61-3.57c-0.32-0.2-0.73-0.19-1.04,0.03l-3.73,2.7    c-2.08,1.51-5,1.05-6.51-1.03c-1.19-1.63-1.19-3.85,0-5.48l2.7-3.73c0.22-0.31,0.24-0.72,0.03-1.04    c-1.68-2.64-2.88-5.55-3.57-8.61c-0.08-0.37-0.38-0.65-0.76-0.71l-4.54-0.72c-2.54-0.4-4.28-2.79-3.87-5.34    c0.32-1.99,1.88-3.55,3.87-3.87l4.54-0.72c0.37-0.06,0.67-0.34,0.76-0.71c0.68-3.05,1.89-5.96,3.57-8.61    c0.2-0.32,0.19-0.73-0.03-1.04l-2.7-3.73c-1.51-2.08-1.05-5,1.03-6.51c1.63-1.19,3.85-1.19,5.48,0l3.73,2.7    c0.31,0.22,0.72,0.24,1.04,0.03c2.64-1.68,5.55-2.88,8.61-3.57c0.37-0.08,0.65-0.38,0.71-0.76l0.72-4.54    c0.4-2.54,2.79-4.28,5.34-3.87c1.99,0.32,3.55,1.88,3.87,3.87l0.72,4.54c0.06,0.37,0.34,0.67,0.71,0.76    c3.05,0.68,5.96,1.89,8.61,3.57c0.32,0.2,0.73,0.19,1.04-0.03l3.73-2.7c2.08-1.51,5-1.05,6.51,1.03c1.19,1.63,1.19,3.84,0,5.48    l-2.7,3.73c-0.22,0.31-0.24,0.72-0.03,1.04c1.68,2.64,2.88,5.55,3.57,8.61c0.08,0.37,0.38,0.65,0.76,0.71l4.54,0.72    c2.54,0.4,4.28,2.79,3.87,5.34C162.83,101.81,161.27,103.37,159.27,103.69L159.27,103.69z"></path>			<g>				<path class="st4" d="M117.46,101.85h3.99c0.51,0,0.92-0.41,0.92-0.92c0-0.51-0.41-0.92-0.92-0.92h-3.99     c-0.51,0-0.92,0.41-0.92,0.92C116.54,101.43,116.95,101.85,117.46,101.85z"></path>				<path class="st4" d="M125.68,103.02h-8.21c-0.51,0-0.92,0.41-0.92,0.92c0,0.51,0.41,0.92,0.92,0.92h8.21     c0.51,0,0.92-0.41,0.92-0.92C126.6,103.43,126.19,103.02,125.68,103.02L125.68,103.02z"></path>				<path class="st4" d="M125.68,106.03h-8.21c-0.51,0-0.92,0.41-0.92,0.92c0,0.51,0.41,0.92,0.92,0.92h8.21     c0.51,0,0.92-0.41,0.92-0.92C126.6,106.44,126.19,106.03,125.68,106.03L125.68,106.03z"></path>			</g>			<path class="st3" d="M127.72,77.1c-11.64-0.26-21.31,8.58-22.38,19.89c-0.05,0.51,0.32,0.96,0.83,1.01c0.03,0,0.06,0,0.09,0    c0.48,0,0.88-0.37,0.92-0.84c0.99-10.36,9.86-18.46,20.53-18.21c10.83,0.25,19.57,9.14,19.66,19.97    c0.09,11.18-8.98,20.31-20.14,20.31c-9.22,0-17.01-6.23-19.39-14.7c-0.11-0.4-0.47-0.68-0.89-0.68c-0.51,0-0.92,0.41-0.92,0.92    c0,0.08,0.01,0.17,0.03,0.25c2.6,9.25,11.1,16.05,21.17,16.05c12.18,0,22.09-9.96,21.99-22.17    C149.12,87.07,139.55,77.36,127.72,77.1L127.72,77.1z"></path>			<path class="st4" d="M138.88,107.78v1.37h-23.31V92.97h8.94v4.87c0,0.19,0.05,0.38,0.16,0.54c0.25,0.36,0.71,0.5,1.12,0.33    l3.58-1.49c0.34-0.14,0.57-0.48,0.57-0.85v-3.4h8.94v7.12c0,0.51,0.41,0.92,0.92,0.92s0.92-0.41,0.92-0.92v-8.05    c0-0.21-0.07-0.41-0.2-0.58l-3.17-3.96c-0.18-0.22-0.44-0.35-0.72-0.35h-18.81c-0.28,0-0.54,0.13-0.72,0.35l-3.17,3.96    c-0.13,0.16-0.2,0.37-0.2,0.58v18.03c0,0.51,0.41,0.92,0.92,0.92h25.15c0.51,0,0.92-0.41,0.92-0.92v-2.3    c0-0.51-0.41-0.92-0.92-0.92S138.88,107.27,138.88,107.78z M128.1,95.76l-1.74,0.72v-3.51h1.74V95.76z M118.27,89.01h17.93    l1.69,2.11h-21.31L118.27,89.01z"></path>		</g>	</g>	<g>		<path class="st1" d="M53.67,226.03V196.6h9.31c3.23,0,5.96,0.56,8.18,1.69c2.23,1.13,3.92,2.78,5.07,4.97   c1.15,2.19,1.73,4.86,1.73,8.04s-0.58,5.86-1.73,8.06c-1.16,2.2-2.85,3.86-5.07,4.99c-2.23,1.13-4.95,1.69-8.18,1.69H53.67z    M56.26,223.74h6.51c4.2,0,7.33-1.04,9.39-3.11c2.06-2.07,3.09-5.18,3.09-9.33c0-4.17-1.03-7.29-3.09-9.35   c-2.06-2.06-5.19-3.09-9.39-3.09h-6.51V223.74z"></path>		<path class="st1" d="M93.12,226.37c-3.17,0-5.68-0.95-7.54-2.84c-1.85-1.89-2.78-4.52-2.78-7.89c0-2.23,0.41-4.15,1.23-5.76   c0.82-1.61,1.97-2.87,3.44-3.78c1.47-0.9,3.19-1.36,5.13-1.36c1.86,0,3.44,0.4,4.72,1.19c1.28,0.79,2.27,1.92,2.96,3.38   c0.7,1.46,1.04,3.19,1.04,5.2v1.17h-16.7v-1.84h15.11l-0.71,0.54c0-2.37-0.54-4.22-1.63-5.57c-1.09-1.35-2.7-2.02-4.84-2.02   c-2.28,0-4.06,0.79-5.34,2.36c-1.28,1.57-1.92,3.65-1.92,6.24v0.29c0,2.78,0.69,4.9,2.07,6.35c1.38,1.45,3.3,2.17,5.78,2.17   c1.28,0,2.48-0.19,3.59-0.58c1.11-0.39,2.18-1.06,3.21-2l1.04,1.88c-0.89,0.92-2.05,1.63-3.46,2.13   C96.13,226.12,94.65,226.37,93.12,226.37z"></path>		<path class="st1" d="M112.74,226.03l-8.89-20.92h2.84l7.93,19.33h-1.09l8.02-19.33h2.71l-8.89,20.92H112.74z"></path>		<path class="st1" d="M137.21,226.37c-3.17,0-5.68-0.95-7.54-2.84c-1.85-1.89-2.78-4.52-2.78-7.89c0-2.23,0.41-4.15,1.23-5.76   c0.82-1.61,1.97-2.87,3.44-3.78c1.47-0.9,3.19-1.36,5.13-1.36c1.86,0,3.44,0.4,4.72,1.19c1.28,0.79,2.27,1.92,2.96,3.38   c0.7,1.46,1.04,3.19,1.04,5.2v1.17h-16.7v-1.84h15.11l-0.71,0.54c0-2.37-0.54-4.22-1.63-5.57c-1.08-1.35-2.7-2.02-4.84-2.02   c-2.28,0-4.06,0.79-5.34,2.36c-1.28,1.57-1.92,3.65-1.92,6.24v0.29c0,2.78,0.69,4.9,2.07,6.35c1.38,1.45,3.3,2.17,5.78,2.17   c1.28,0,2.48-0.19,3.59-0.58c1.11-0.39,2.19-1.06,3.21-2l1.04,1.88c-0.89,0.92-2.04,1.63-3.46,2.13   C140.21,226.12,138.74,226.37,137.21,226.37z"></path>		<path class="st1" d="M150.9,226.03v-30.73h2.55v30.73H150.9z"></path>		<path class="st1" d="M168.69,226.37c-1.98,0-3.68-0.43-5.11-1.29c-1.43-0.86-2.54-2.1-3.32-3.72c-0.78-1.61-1.17-3.55-1.17-5.8   c0-2.23,0.39-4.15,1.17-5.76c0.78-1.61,1.88-2.86,3.32-3.74c1.43-0.88,3.14-1.32,5.11-1.32c1.95,0,3.64,0.44,5.07,1.32   s2.55,2.12,3.34,3.74c0.79,1.61,1.19,3.54,1.19,5.76c0,2.25-0.4,4.19-1.19,5.8c-0.79,1.61-1.91,2.85-3.34,3.72   C172.32,225.93,170.63,226.37,168.69,226.37z M168.69,224.2c2.12,0,3.81-0.74,5.09-2.21c1.28-1.47,1.92-3.62,1.92-6.43   c0-2.81-0.64-4.95-1.92-6.43c-1.28-1.47-2.98-2.21-5.09-2.21c-2.14,0-3.85,0.74-5.11,2.21c-1.27,1.48-1.9,3.62-1.9,6.43   c0,2.81,0.63,4.95,1.9,6.43C164.84,223.46,166.54,224.2,168.69,224.2z"></path>		<path class="st1" d="M183.88,235.05v-25.26c0-0.75-0.03-1.52-0.08-2.3c-0.06-0.78-0.14-1.57-0.25-2.38h2.51l0.42,5.22h-0.5   c0.47-1.73,1.39-3.09,2.76-4.09c1.36-1,3.02-1.5,4.97-1.5c1.89,0,3.53,0.44,4.9,1.32c1.38,0.88,2.46,2.12,3.24,3.72   c0.78,1.6,1.17,3.53,1.17,5.78c0,2.25-0.38,4.19-1.15,5.8c-0.77,1.61-1.84,2.85-3.24,3.72c-1.39,0.86-3.03,1.29-4.93,1.29   c-1.92,0-3.57-0.49-4.95-1.48c-1.38-0.99-2.3-2.34-2.78-4.07h0.46v14.24H183.88z M193.36,224.2c2.14,0,3.85-0.74,5.13-2.21   c1.28-1.47,1.92-3.62,1.92-6.43c0-2.81-0.64-4.95-1.92-6.43c-1.28-1.47-2.99-2.21-5.13-2.21c-2.12,0-3.81,0.74-5.07,2.21   c-1.27,1.48-1.9,3.62-1.9,6.43c0,2.81,0.63,4.95,1.9,6.43C189.55,223.46,191.24,224.2,193.36,224.2z"></path>	</g></g></svg>