<svg xmlns="http://www.w3.org/2000/svg" xmlns:xlink="http://www.w3.org/1999/xlink" id="Layer_1" x="0px" y="0px" viewBox="0 0 250 250" style="enable-background:new 0 0 250 250;" xml:space="preserve"><style type="text/css">	.st0{fill:#FCD7C3;}	.st1{fill:#ED4623;}	.st2{fill:#660E0D;}	.st3{fill:none;stroke:#ED4623;stroke-width:3;stroke-miterlimit:10;}	.st4{fill:#B33625;}	.st5{fill:none;}	.st6{fill:#FFFFFF;}	.st7{font-family:'Raleway-SemiBold';}	.st8{font-size:14.4361px;}	.st9{fill:#F9B393;}</style><g>	<g>		<path class="st4" d="M35.05,88.91v29.43L9.58,96.19l-0.07-0.06h0.08c1.42-8.16,3.69-16.02,6.72-23.51L35.05,88.91z"></path>		<path class="st4" d="M240.49,96.13l-0.07,0.06l-25.47,22.15V88.91l18.74-16.3c3.03,7.49,5.3,15.36,6.72,23.51H240.49z"></path>	</g>	<path class="st2" d="M234.38,116.35c0,21.82-6.39,42.14-17.4,59.21c-1.83-0.35-3.73-0.52-5.66-0.52  c-17.65,0-31.99,14.35-31.99,31.99c0,1.4,0.08,2.77,0.28,4.12c-16.07,9.27-34.72,14.58-54.61,14.58c-19.9,0-38.53-5.34-54.61-14.64  c0.19-1.33,0.28-2.69,0.28-4.06c0-17.63-14.34-31.99-31.99-31.99c-1.92,0-3.81,0.17-5.63,0.51c-11.01-17.07-17.43-37.38-17.43-59.2  C15.62,55.95,64.6,6.97,125,6.97C185.41,6.97,234.38,55.95,234.38,116.35z"></path>	<g>		<circle class="st1" cx="38.68" cy="207.03" r="21.13"></circle>		<path class="st1" d="M212.64,201.03v-4.15v-0.04c-6.6,7.67-14.15,14.42-22.57,20.15c-1.24,0.84-2.5,1.66-3.76,2.46   c-1.71,1.07-3.45,2.1-5.2,3.06c-0.45,0.25-0.89,0.49-1.34,0.72c-0.99,0.53-1.99,1.05-3,1.56c-0.01,0.01-0.04,0.02-0.06,0.04   c-13.57,6.74-28.32,10.76-43.35,11.87c-1.06,0.07-2.12,0.13-3.18,0.18c-0.62,0.04-1.23,0.06-1.85,0.07   c-2.22,0.07-4.44,0.06-6.66,0c-0.62-0.02-1.23-0.05-1.85-0.07c-1.06-0.04-2.12-0.1-3.18-0.18c-15.03-1.11-29.78-5.13-43.35-11.87   c-0.02-0.02-0.05-0.04-0.06-0.04c-1.01-0.49-2.01-1.03-3-1.56l-1.34-0.72c-1.75-0.98-3.49-1.99-5.2-3.06   c-1.27-0.8-2.52-1.62-3.76-2.46c-8.42-5.73-15.97-12.48-22.57-20.15v0.04v4.15c0,1.39-0.29,2.71-0.78,3.93   c1.5,1.59,3.04,3.14,4.61,4.63c0.1,0.08,0.19,0.17,0.28,0.25c1.36,1.29,2.75,2.54,4.17,3.76c0.64,0.54,1.28,1.09,1.93,1.62   c0.75,0.63,1.51,1.24,2.28,1.85c0.06,0.05,0.12,0.1,0.18,0.14c0.06,0.05,0.12,0.1,0.18,0.13c0.75,0.59,1.5,1.17,2.27,1.72   c0.08,0.07,0.18,0.14,0.27,0.2c0.41,0.3,0.82,0.62,1.24,0.92c0.84,0.6,1.7,1.19,2.56,1.79c0.63,0.42,1.25,0.84,1.88,1.25   c0.69,0.46,1.37,0.89,2.07,1.33c0.59,0.37,1.18,0.74,1.77,1.09c1.16,0.7,2.33,1.36,3.5,2.03c0.53,0.29,1.07,0.59,1.62,0.88   c1.01,0.54,2.03,1.07,3.05,1.58c0.02,0.01,0.05,0.02,0.06,0.04c15.66,7.86,32.43,12.05,49.2,12.74c0.62,0.02,1.22,0.05,1.82,0.06   c0.53,0.02,1.05,0.04,1.57,0.04c1.28,0.04,2.56,0.04,3.84,0c0.52,0,1.04-0.01,1.57-0.04c0.6-0.01,1.21-0.04,1.82-0.06   c16.74-0.69,33.52-4.86,49.16-12.71c0.02-0.01,0.04-0.01,0.06-0.04c1.03-0.51,2.04-1.04,3.05-1.58c0.04-0.01,0.07-0.02,0.11-0.06   c0.52-0.28,1.04-0.57,1.54-0.84c1.1-0.6,2.18-1.23,3.27-1.88c0.68-0.41,1.34-0.81,2-1.23c0.66-0.41,1.33-0.83,1.99-1.27   c0.65-0.43,1.31-0.87,1.97-1.31c7.3-4.96,13.95-10.66,19.96-17.02C212.92,203.74,212.64,202.42,212.64,201.03z"></path>		<circle class="st1" cx="211.32" cy="207.03" r="21.13"></circle>	</g>	<path class="st1" d="M240.41,96.13H9.59c1.42-8.16,3.69-16.02,6.72-23.51c0.81-2,1.67-3.97,2.58-5.91h212.21  c0.92,1.94,1.78,3.91,2.58,5.91C236.71,80.1,238.98,87.97,240.41,96.13z"></path>	<rect x="33.39" y="75.03" class="st5" width="183.23" height="12.77"></rect>	<text transform="matrix(1 0 0 1 61.4173 87.3718)" class="st6 st7 st8">Limited Time Offer</text>	<g>		<path class="st6" d="M97.37,172.84v-5.21h3.44v5.21H97.37z"></path>		<path class="st6" d="M115.4,173.31c-2.01,0-3.9-0.33-5.67-1c-1.77-0.67-3.28-1.67-4.55-3l1.58-2.88c1.39,1.3,2.79,2.23,4.18,2.79   c1.39,0.56,2.82,0.84,4.28,0.84c1.67,0,3.04-0.31,4.09-0.94c1.05-0.63,1.58-1.55,1.58-2.77c0-0.89-0.27-1.55-0.81-1.98   c-0.54-0.43-1.31-0.79-2.3-1.08c-0.99-0.29-2.17-0.62-3.53-0.99c-1.67-0.49-3.08-1.01-4.23-1.57c-1.15-0.55-2.01-1.25-2.6-2.08   c-0.59-0.83-0.88-1.88-0.88-3.14c0-1.54,0.4-2.84,1.21-3.9c0.81-1.06,1.91-1.87,3.32-2.42c1.41-0.55,3.01-0.83,4.81-0.83   c1.8,0,3.42,0.28,4.88,0.84c1.46,0.56,2.71,1.38,3.76,2.46l-1.86,2.84c-0.96-0.99-2.01-1.73-3.16-2.21   c-1.15-0.48-2.43-0.72-3.86-0.72c-0.84,0-1.66,0.1-2.46,0.3c-0.81,0.2-1.47,0.55-2,1.06c-0.53,0.51-0.79,1.22-0.79,2.14   c0,0.77,0.21,1.37,0.63,1.82c0.42,0.45,1.04,0.82,1.86,1.13c0.82,0.31,1.82,0.65,3,1.01c1.83,0.52,3.42,1.04,4.76,1.57   c1.35,0.52,2.39,1.2,3.14,2.03c0.74,0.83,1.12,1.98,1.12,3.46c0,2.27-0.87,4.05-2.6,5.32   C120.55,172.67,118.25,173.31,115.4,173.31z"></path>		<path class="st6" d="M140.36,173.31c-1.83,0-3.49-0.33-4.97-0.99c-1.49-0.66-2.77-1.57-3.86-2.72c-1.08-1.15-1.92-2.48-2.51-3.99   c-0.59-1.51-0.88-3.09-0.88-4.75c0-1.69,0.29-3.29,0.88-4.8c0.59-1.51,1.42-2.84,2.51-3.99c1.08-1.15,2.38-2.06,3.88-2.72   c1.5-0.66,3.17-0.99,5-0.99c1.8,0,3.44,0.33,4.93,0.99c1.49,0.66,2.78,1.57,3.88,2.72c1.1,1.15,1.94,2.48,2.53,3.99   c0.59,1.51,0.88,3.11,0.88,4.8c0,1.66-0.29,3.24-0.88,4.75c-0.59,1.51-1.43,2.84-2.51,3.99c-1.09,1.15-2.38,2.06-3.88,2.72   C143.85,172.97,142.19,173.31,140.36,173.31z M132.32,160.9c0,1.66,0.36,3.16,1.09,4.51c0.73,1.35,1.7,2.42,2.9,3.2   c1.21,0.78,2.56,1.17,4.04,1.17c1.49,0,2.84-0.4,4.07-1.2c1.22-0.8,2.2-1.88,2.93-3.24c0.73-1.36,1.09-2.87,1.09-4.53   c0-1.66-0.36-3.16-1.09-4.51c-0.73-1.35-1.7-2.42-2.93-3.22c-1.22-0.8-2.58-1.2-4.07-1.2c-1.49,0-2.84,0.41-4.04,1.22   c-1.21,0.81-2.18,1.89-2.9,3.24C132.68,157.69,132.32,159.21,132.32,160.9z"></path>	</g>	<g>		<path class="st9" d="M125.08,115.26c-0.03,0.16-0.11,0.28-0.22,0.37c-0.11,0.09-0.24,0.14-0.37,0.14c-0.2,0-0.37-0.06-0.49-0.19   s-0.19-0.28-0.19-0.45s0.02-0.33,0.05-0.5c0.03-0.16,0.05-0.32,0.05-0.48c0-0.82-0.25-1.56-0.76-2.21   c-0.51-0.65-1.22-1.2-2.15-1.65c-0.93-0.44-2.06-0.79-3.39-1.02c-1.33-0.24-2.81-0.35-4.44-0.35c-1.25,0-2.51,0.08-3.77,0.24   c-1.27,0.16-2.48,0.4-3.65,0.71c-1.16,0.31-2.25,0.7-3.27,1.17c-1.01,0.47-1.9,1.01-2.64,1.62c-0.75,0.61-1.34,1.3-1.77,2.04   c-0.43,0.75-0.64,1.57-0.64,2.46c0,0.69,0.15,1.29,0.45,1.82c0.3,0.52,0.71,0.98,1.22,1.37c0.52,0.39,1.13,0.72,1.83,1   c0.7,0.28,1.47,0.51,2.29,0.69c0.82,0.19,1.68,0.34,2.57,0.46c0.89,0.12,1.78,0.22,2.68,0.3l2.6,0.22   c1.29,0.11,2.45,0.23,3.48,0.35c1.02,0.12,1.93,0.28,2.7,0.47c1.29,0.33,2.25,0.79,2.87,1.4s0.93,1.42,0.93,2.43   c0,0.98-0.27,1.84-0.81,2.58c-0.54,0.74-1.28,1.37-2.21,1.87c-0.93,0.51-2.03,0.89-3.28,1.15s-2.59,0.39-4.02,0.39   c-1.55,0-2.92-0.1-4.09-0.31c-1.18-0.21-2.16-0.44-2.96-0.69c-0.79-0.25-1.4-0.49-1.82-0.7s-0.64-0.33-0.68-0.35   c-0.2-0.11-0.3-0.29-0.3-0.54c0-0.19,0.07-0.35,0.2-0.46c0.14-0.12,0.28-0.18,0.44-0.18c0.12,0,0.24,0.03,0.34,0.1   c0.01,0,0.21,0.1,0.58,0.3c0.38,0.2,0.94,0.41,1.69,0.65c0.75,0.24,1.67,0.45,2.78,0.64c1.1,0.19,2.39,0.29,3.85,0.29   c1.45,0,2.74-0.12,3.85-0.35s2.05-0.57,2.81-0.99c0.76-0.42,1.33-0.92,1.72-1.49c0.39-0.57,0.58-1.19,0.58-1.85   c0-0.39-0.07-0.74-0.21-1.02c-0.14-0.29-0.34-0.53-0.58-0.74c-0.25-0.21-0.54-0.39-0.89-0.53c-0.34-0.15-0.72-0.27-1.12-0.37   c-0.43-0.11-0.89-0.21-1.38-0.29c-0.49-0.08-0.99-0.15-1.51-0.2c-0.52-0.06-1.04-0.11-1.56-0.15c-0.52-0.05-1.04-0.09-1.55-0.14   l-2.6-0.22c-2.05-0.17-3.84-0.43-5.36-0.79c-1.53-0.35-2.79-0.81-3.81-1.37c-1.01-0.56-1.77-1.22-2.28-2   c-0.51-0.78-0.76-1.68-0.76-2.72c0-1.06,0.24-2.03,0.72-2.91c0.48-0.88,1.13-1.68,1.96-2.39c0.83-0.71,1.8-1.33,2.9-1.85   c1.11-0.52,2.29-0.96,3.55-1.31c1.26-0.35,2.57-0.61,3.92-0.79c1.35-0.17,2.68-0.26,3.99-0.26c1.63,0,3.05,0.1,4.26,0.3   c1.21,0.2,2.25,0.45,3.11,0.76c0.86,0.31,1.57,0.66,2.12,1.06c0.55,0.39,1,0.78,1.33,1.17c0.8,0.93,1.2,2,1.2,3.19   C125.19,114.52,125.16,114.9,125.08,115.26z"></path>		<path class="st9" d="M136.53,128.28c-0.05,0.09-0.14,0.28-0.28,0.57c-0.14,0.29-0.32,0.62-0.54,0.99   c-0.22,0.37-0.48,0.76-0.77,1.17c-0.29,0.41-0.62,0.78-0.98,1.11c-0.36,0.34-0.75,0.62-1.17,0.84c-0.42,0.22-0.86,0.33-1.32,0.33   c-0.65,0-1.2-0.21-1.65-0.62c-0.45-0.42-0.77-0.94-0.97-1.57c-0.38,0.64-0.84,1.15-1.37,1.53c-0.53,0.38-1.06,0.57-1.59,0.57   c-0.42,0-0.79-0.08-1.13-0.23c-0.34-0.15-0.63-0.37-0.86-0.64c-0.24-0.28-0.42-0.6-0.55-0.97c-0.13-0.37-0.19-0.78-0.19-1.22   c0-0.88,0.15-1.65,0.45-2.32c0.3-0.67,0.68-1.23,1.14-1.68c0.46-0.45,0.97-0.79,1.53-1.01c0.56-0.23,1.09-0.34,1.61-0.34   c0.35,0,0.67,0.05,0.96,0.14c0.29,0.1,0.54,0.2,0.75,0.31c0.21,0.11,0.37,0.22,0.48,0.31c0.11,0.1,0.18,0.15,0.19,0.16   c0.12,0.15,0.19,0.3,0.19,0.46c0,0.17-0.06,0.32-0.19,0.45c-0.12,0.13-0.27,0.19-0.44,0.19c-0.18,0-0.33-0.06-0.46-0.19   c-0.02-0.02-0.07-0.06-0.15-0.13s-0.19-0.13-0.32-0.19c-0.14-0.07-0.3-0.13-0.48-0.18c-0.19-0.05-0.4-0.08-0.63-0.08   c-0.35,0-0.72,0.08-1.11,0.24c-0.39,0.16-0.75,0.4-1.08,0.73c-0.33,0.33-0.6,0.75-0.82,1.25c-0.22,0.5-0.33,1.1-0.33,1.78   c0,0.21,0.02,0.43,0.07,0.65c0.05,0.22,0.12,0.42,0.24,0.6c0.11,0.18,0.27,0.33,0.46,0.44s0.43,0.17,0.71,0.17   c0.2,0,0.44-0.07,0.7-0.2c0.26-0.14,0.52-0.34,0.76-0.62c0.24-0.28,0.46-0.64,0.66-1.06c0.2-0.43,0.34-0.93,0.41-1.52   c0.02-0.16,0.1-0.29,0.22-0.4c0.12-0.11,0.27-0.16,0.44-0.16c0.16,0,0.3,0.06,0.41,0.19c0.12,0.12,0.18,0.26,0.19,0.42   c0.01,0.21,0.03,0.52,0.07,0.9c0.03,0.39,0.11,0.77,0.23,1.16c0.12,0.38,0.3,0.71,0.53,1c0.24,0.28,0.56,0.42,0.98,0.42   c0.27,0,0.54-0.07,0.8-0.22c0.26-0.15,0.52-0.34,0.78-0.58c0.25-0.24,0.5-0.52,0.73-0.83c0.23-0.31,0.44-0.62,0.63-0.94   c0.19-0.32,0.36-0.62,0.51-0.91c0.15-0.29,0.27-0.55,0.37-0.76c0.06-0.12,0.14-0.22,0.24-0.29c0.11-0.07,0.22-0.1,0.35-0.1   c0.19,0,0.35,0.07,0.46,0.21c0.12,0.14,0.18,0.29,0.18,0.45C136.58,128.12,136.56,128.2,136.53,128.28z"></path>		<path class="st9" d="M144.97,128.31c-0.12,0.26-0.28,0.57-0.47,0.92c-0.19,0.36-0.4,0.72-0.63,1.11s-0.5,0.76-0.79,1.14   c-0.29,0.38-0.61,0.71-0.95,1.01c-0.34,0.3-0.71,0.54-1.1,0.73c-0.39,0.19-0.8,0.28-1.24,0.28c-0.68,0-1.25-0.21-1.74-0.62   c-0.48-0.42-0.9-0.96-1.23-1.64c-0.34-0.68-0.61-1.44-0.82-2.31c-0.21-0.86-0.37-1.74-0.48-2.63c-0.11-0.89-0.19-1.76-0.23-2.61   c-0.04-0.84-0.06-1.59-0.06-2.25c0-0.95,0.03-1.93,0.09-2.94c0.06-1.01,0.16-2,0.3-2.97c0.14-0.97,0.31-1.89,0.51-2.75   c0.21-0.87,0.46-1.63,0.74-2.28c0.29-0.65,0.62-1.17,0.99-1.55c0.37-0.38,0.79-0.57,1.27-0.57c0.37,0,0.71,0.09,1,0.26   c0.3,0.17,0.55,0.46,0.75,0.85c0.2,0.39,0.36,0.91,0.47,1.54c0.11,0.63,0.17,1.4,0.17,2.31c0,1.13-0.12,2.29-0.36,3.49   c-0.24,1.2-0.56,2.41-0.96,3.62c-0.41,1.22-0.88,2.43-1.44,3.64c-0.55,1.21-1.14,2.39-1.77,3.54c0.28,1.43,0.66,2.55,1.13,3.37   c0.47,0.82,1.04,1.22,1.71,1.22c0.45,0,0.88-0.18,1.3-0.53c0.42-0.36,0.8-0.77,1.15-1.26c0.35-0.48,0.66-0.98,0.92-1.48   c0.26-0.5,0.47-0.9,0.62-1.21c0.06-0.11,0.14-0.2,0.24-0.26c0.1-0.06,0.21-0.09,0.34-0.09c0.19,0,0.35,0.07,0.46,0.2   c0.12,0.14,0.18,0.29,0.18,0.46C145.04,128.11,145.02,128.2,144.97,128.31z M136.51,121.52c0,0.72,0.02,1.41,0.05,2.08   c0.03,0.66,0.08,1.3,0.14,1.91c0.47-0.91,0.92-1.88,1.35-2.91c0.43-1.03,0.8-2.07,1.13-3.13c0.33-1.05,0.59-2.1,0.79-3.14   c0.2-1.04,0.3-2.03,0.3-2.98c0-1.33-0.11-2.28-0.32-2.85c-0.21-0.57-0.5-0.86-0.86-0.86c-0.24,0-0.46,0.16-0.68,0.49   c-0.22,0.33-0.42,0.77-0.62,1.33c-0.19,0.56-0.37,1.23-0.52,1.99s-0.29,1.59-0.4,2.47c-0.11,0.88-0.19,1.8-0.25,2.75   C136.54,119.63,136.51,120.58,136.51,121.52z"></path>		<path class="st9" d="M145.85,131.13c0.24,0.33,0.54,0.59,0.91,0.79s0.83,0.3,1.37,0.3c0.55,0,1.05-0.13,1.5-0.4   c0.45-0.26,0.86-0.61,1.23-1.04c0.37-0.43,0.7-0.91,1-1.44c0.29-0.53,0.56-1.06,0.79-1.59c0.06-0.12,0.14-0.22,0.24-0.28   c0.1-0.06,0.21-0.09,0.34-0.09c0.19,0,0.35,0.07,0.47,0.2c0.12,0.14,0.18,0.28,0.18,0.44c0,0.06-0.01,0.1-0.02,0.14   c-0.01,0.04-0.03,0.08-0.05,0.13c-0.78,1.71-1.62,3-2.54,3.87c-0.92,0.87-1.96,1.31-3.12,1.33c-0.74,0-1.38-0.14-1.93-0.43   c-0.54-0.29-0.99-0.66-1.33-1.11c-0.35-0.46-0.61-0.97-0.78-1.55c-0.17-0.57-0.25-1.15-0.25-1.72c0-0.57,0.07-1.1,0.21-1.59   c0.14-0.48,0.34-0.91,0.61-1.27c0.26-0.36,0.58-0.64,0.95-0.84c0.37-0.2,0.77-0.3,1.21-0.3c0.26,0,0.52,0.05,0.77,0.16   c0.25,0.11,0.48,0.26,0.68,0.46c0.2,0.2,0.37,0.44,0.49,0.72c0.12,0.28,0.19,0.6,0.19,0.96c0,0.46-0.08,0.9-0.24,1.3   c-0.16,0.41-0.38,0.78-0.65,1.13c-0.28,0.35-0.61,0.67-0.99,0.96C146.7,130.67,146.29,130.92,145.85,131.13z M145.34,130.04   c0.35-0.15,0.67-0.33,0.95-0.56c0.29-0.23,0.53-0.47,0.73-0.74c0.2-0.27,0.36-0.55,0.47-0.85c0.11-0.3,0.17-0.6,0.17-0.9   c0-0.34-0.09-0.59-0.25-0.77c-0.17-0.17-0.37-0.26-0.59-0.26c-0.3,0-0.56,0.08-0.78,0.25c-0.21,0.17-0.39,0.39-0.52,0.66   c-0.14,0.27-0.23,0.57-0.3,0.9c-0.06,0.33-0.09,0.66-0.09,0.99c0,0.2,0.02,0.42,0.06,0.64   C145.24,129.62,145.29,129.83,145.34,130.04z"></path>	</g></g></svg>