<svg xmlns="http://www.w3.org/2000/svg" xmlns:xlink="http://www.w3.org/1999/xlink" id="Layer_1" x="0px" y="0px" viewBox="0 0 256.67 269.62" style="enable-background:new 0 0 256.67 269.62;" xml:space="preserve"><style type="text/css">	.st0{fill:#EA4824;}	.st1{fill:#651313;}	.st2{fill:#F7B393;}	.st3{fill:#FFFFFF;}	.st4{fill:#EB4824;}	.st5{fill:#FCD7C3;}	.st6{fill:#D4BBB3;}</style><g>	<g>		<circle class="st0" cx="75.19" cy="156.9" r="12.46"></circle>		<path class="st1" d="M190.62,103.42c0,12.87-3.77,24.86-10.26,34.92c-1.08-0.21-2.2-0.31-3.34-0.31   c-10.41,0-18.87,8.47-18.87,18.87c0,0.83,0.05,1.64,0.16,2.43c-9.48,5.47-20.48,8.6-32.21,8.6c-11.74,0-22.73-3.15-32.21-8.64   c0.11-0.78,0.16-1.59,0.16-2.4c0-10.4-8.46-18.87-18.87-18.87c-1.13,0-2.25,0.1-3.32,0.3c-6.49-10.07-10.28-22.05-10.28-34.91   c0-35.63,28.89-64.51,64.51-64.51C161.74,38.91,190.62,67.8,190.62,103.42z"></path>		<path class="st0" d="M177.79,153.37v-2.45v-0.02c-3.89,4.52-8.34,8.51-13.31,11.89c-0.73,0.5-1.47,0.98-2.22,1.45   c-1.01,0.63-2.03,1.24-3.07,1.81c-0.26,0.15-0.53,0.29-0.79,0.43c-0.58,0.31-1.17,0.62-1.77,0.92c-0.01,0.01-0.02,0.01-0.04,0.02   c-8,3.98-16.7,6.35-25.57,7c-0.63,0.04-1.25,0.08-1.88,0.11c-0.36,0.02-0.73,0.04-1.09,0.04c-1.31,0.04-2.62,0.04-3.93,0   c-0.36-0.01-0.73-0.03-1.09-0.04c-0.63-0.02-1.25-0.06-1.88-0.11c-8.86-0.65-17.56-3.02-25.57-7c-0.01-0.01-0.03-0.02-0.04-0.02   c-0.6-0.29-1.19-0.6-1.77-0.92l-0.79-0.43c-1.03-0.58-2.06-1.17-3.07-1.81c-0.75-0.47-1.49-0.95-2.22-1.45   c-4.97-3.38-9.42-7.36-13.31-11.89v0.02v2.45c0,0.82-0.17,1.6-0.46,2.32c0.88,0.94,1.79,1.85,2.72,2.73   c0.06,0.05,0.11,0.1,0.16,0.15c0.8,0.76,1.62,1.5,2.46,2.22c0.38,0.32,0.75,0.64,1.14,0.95c0.44,0.37,0.89,0.73,1.34,1.09   c0.04,0.03,0.07,0.06,0.11,0.09c0.04,0.03,0.07,0.06,0.11,0.08c0.44,0.35,0.88,0.69,1.34,1.02c0.05,0.04,0.11,0.09,0.16,0.12   c0.24,0.18,0.48,0.36,0.73,0.54c0.5,0.36,1,0.7,1.51,1.05c0.37,0.25,0.74,0.5,1.11,0.74c0.41,0.27,0.81,0.53,1.22,0.78   c0.35,0.22,0.7,0.43,1.05,0.64c0.68,0.41,1.37,0.8,2.06,1.2c0.31,0.17,0.63,0.35,0.95,0.52c0.6,0.32,1.2,0.63,1.8,0.93   c0.01,0.01,0.03,0.01,0.04,0.02c9.23,4.64,19.13,7.11,29.02,7.51c0.36,0.01,0.72,0.03,1.07,0.04c0.31,0.01,0.62,0.02,0.92,0.02   c0.75,0.02,1.51,0.02,2.26,0c0.31,0,0.61-0.01,0.92-0.02c0.36-0.01,0.71-0.02,1.07-0.04c9.87-0.41,19.77-2.87,29-7.5   c0.01-0.01,0.02-0.01,0.04-0.02c0.6-0.3,1.2-0.61,1.8-0.93c0.02-0.01,0.04-0.01,0.06-0.04c0.31-0.16,0.61-0.33,0.91-0.5   c0.65-0.36,1.29-0.73,1.93-1.11c0.4-0.24,0.79-0.48,1.18-0.73c0.39-0.24,0.78-0.49,1.17-0.75c0.38-0.26,0.78-0.51,1.16-0.78   c4.3-2.92,8.23-6.29,11.77-10.04C177.96,154.97,177.79,154.19,177.79,153.37z"></path>		<circle class="st0" cx="177.01" cy="156.9" r="12.46"></circle>		<g>			<g>				<path class="st2" d="M109.79,75.16v-2.47c0-2.3,1.51-4.33,3.71-5.01c-2.77-0.85-5.7,0.71-6.55,3.47     c-0.15,0.5-0.23,1.02-0.23,1.54v2.47c0,2.9,2.35,5.24,5.24,5.24c0.52,0,1.04-0.08,1.54-0.23     C111.29,79.49,109.79,77.46,109.79,75.16L109.79,75.16z"></path>				<path class="st2" d="M100.89,106.45c0-0.16-0.03-15.56-0.03-15.77c0-3.03,2.46-5.48,5.48-5.48h-3.07     c-3.03,0-5.48,2.45-5.48,5.48c0,0.21,0.03,15.61,0.03,15.77c0,1.37,1.11,2.48,2.48,2.48h0.04c0.54-0.01,1.07-0.2,1.48-0.55     C101.23,107.91,100.89,107.2,100.89,106.45L100.89,106.45z"></path>				<path class="st2" d="M108.62,138.53l-0.91-30.87l-0.02-1.33c-0.01-0.5-0.42-0.91-0.92-0.91h-0.01c-0.51,0-0.92,0.42-0.92,0.92     c0,0.88-0.44,1.71-1.18,2.19l0.89,29.99c0.06,0.5,0.48,0.87,0.98,0.87h3.07C109.11,139.4,108.68,139.03,108.62,138.53     L108.62,138.53z"></path>			</g>			<path class="st3" d="M111.96,65.6c-3.91,0-7.08,3.18-7.09,7.09v2.47c0,3.91,3.17,7.09,7.09,7.09s7.09-3.17,7.09-7.09v-2.47    C119.04,68.78,115.87,65.61,111.96,65.6z M117.2,75.16c0,2.9-2.35,5.24-5.24,5.24c-2.89,0-5.24-2.35-5.24-5.24v-2.47    c0-2.9,2.35-5.24,5.24-5.24c2.9,0,5.24,2.35,5.24,5.24c0,0,0,0,0,0V75.16z"></path>			<path class="st3" d="M121.82,83.39c-0.17-0.02-2.07-0.03-5.64-0.04h0c-0.33,0-0.64,0.18-0.8,0.46l-3.18,5.54l-3.01-5.53    c-0.16-0.3-0.47-0.48-0.81-0.48h-5.11c-4.05,0-7.33,3.28-7.33,7.33c0,0.21,0.03,15.14,0.03,15.77c0,2.39,1.94,4.32,4.32,4.32    h0.05c0.91-0.01,1.79-0.32,2.51-0.87l0.85,28.72c0,0.02,0,0.04,0,0.06c0.14,1.45,1.36,2.56,2.82,2.56h11.38    c1.46,0.01,2.69-1.11,2.82-2.57c0-0.02,0-0.04,0-0.06l0.79-28.66c1.94,1.4,4.64,0.95,6.04-0.98c0.53-0.74,0.81-1.62,0.81-2.53    V91.37C128.76,87.36,125.83,83.8,121.82,83.39L121.82,83.39z M126.54,91.23c0,0.03,0,0.06,0,0.09v15.12    c0,1.37-1.11,2.48-2.48,2.48c-1.34,0-2.43-1.06-2.48-2.39l0-0.1c-0.01-0.5-0.42-0.91-0.92-0.91h-0.01    c-0.51,0-0.92,0.42-0.92,0.92c0,0.05,0,0.09,0,0.14l0.02,1.09l-0.85,30.85c-0.06,0.5-0.48,0.87-0.98,0.87h-11.38    c-0.5,0-0.92-0.37-0.98-0.87l-0.91-30.86l-0.02-1.33c-0.01-0.5-0.42-0.91-0.92-0.91h-0.01c-0.51,0-0.92,0.42-0.92,0.92    c0,1.4-1.1,2.56-2.44,2.57h-0.04c-1.37,0-2.48-1.11-2.48-2.48c0-0.16-0.03-15.56-0.03-15.77c0-3.03,2.46-5.48,5.48-5.48h4.56    l3.54,6.49c0.24,0.45,0.8,0.61,1.25,0.37c0.15-0.08,0.27-0.2,0.36-0.35l3.73-6.51c1.95,0,4.64,0.02,4.94,0.03    C124.66,85.54,126.84,88.23,126.54,91.23L126.54,91.23z"></path>			<path class="st4" d="M152.91,95.67c-0.51,0-0.92,0.41-0.92,0.92v2.05h-10.82V87.83h10.82v0.68c0,0.51,0.41,0.92,0.92,0.92    s0.92-0.41,0.92-0.92v-1.6c0-0.51-0.41-0.92-0.92-0.92h-12.66c-0.51,0-0.92,0.41-0.92,0.92v12.66c0,0.51,0.41,0.92,0.92,0.92l0,0    h12.66c0.51,0,0.92-0.41,0.92-0.92l0,0v-2.97C153.83,96.08,153.42,95.67,152.91,95.67z"></path>			<path class="st3" d="M154.79,89.6l-6.98,5.25l-1.31-2.42c-0.24-0.45-0.8-0.61-1.25-0.37c-0.45,0.24-0.61,0.8-0.37,1.25l1.82,3.36    c0.24,0.45,0.8,0.61,1.25,0.37c0.04-0.02,0.08-0.05,0.12-0.07l7.84-5.9c0.41-0.3,0.49-0.88,0.19-1.29    C155.78,89.37,155.2,89.29,154.79,89.6C154.79,89.59,154.79,89.59,154.79,89.6L154.79,89.6z"></path>			<path class="st4" d="M152.91,69.05c0.51,0,0.92-0.41,0.92-0.92v-1.6c0-0.51-0.41-0.92-0.92-0.92h-12.66    c-0.51,0-0.92,0.41-0.92,0.92v12.66c0,0.51,0.41,0.92,0.92,0.92h12.66c0.51,0,0.92-0.41,0.92-0.92v-2.97    c0-0.51-0.41-0.92-0.92-0.92s-0.92,0.41-0.92,0.92v2.05h-10.82V67.45h10.82v0.68C151.99,68.64,152.4,69.05,152.91,69.05z"></path>			<path class="st3" d="M154.79,69.22l-6.98,5.25l-1.31-2.42c-0.24-0.45-0.8-0.61-1.25-0.37c-0.45,0.24-0.61,0.8-0.37,1.25    l1.82,3.36c0.24,0.45,0.8,0.61,1.25,0.37c0.04-0.02,0.08-0.05,0.12-0.07l7.84-5.9c0.41-0.31,0.49-0.88,0.18-1.29    C155.77,68.99,155.19,68.91,154.79,69.22L154.79,69.22L154.79,69.22z"></path>			<path class="st4" d="M152.91,106.36h-12.66c-0.51,0-0.92,0.41-0.92,0.92v12.66c0,0.51,0.41,0.92,0.92,0.92h12.66    c0.51,0,0.92-0.41,0.92-0.92v-12.66C153.83,106.77,153.42,106.36,152.91,106.36z M151.99,119.02h-10.82V108.2h10.82V119.02z"></path>			<path class="st4" d="M152.91,126.74h-12.66c-0.51,0-0.92,0.41-0.92,0.92v12.66c0,0.51,0.41,0.92,0.92,0.92h12.66    c0.51,0,0.92-0.41,0.92-0.92v-12.66C153.83,127.15,153.42,126.74,152.91,126.74z M151.99,139.4h-10.82v-10.82h10.82V139.4z"></path>		</g>	</g>	<g>		<path class="st1" d="M38.64,230.37v-29.43h17.87v2.21H41.23v11.23h14.4v2.21h-14.4v13.78H38.64z"></path>		<path class="st1" d="M69.66,230.71c-3.17,0-5.68-0.95-7.54-2.84c-1.85-1.89-2.78-4.52-2.78-7.89c0-2.23,0.41-4.15,1.23-5.76   c0.82-1.61,1.97-2.87,3.44-3.78c1.47-0.9,3.19-1.36,5.13-1.36c1.86,0,3.44,0.4,4.72,1.19c1.28,0.79,2.27,1.92,2.96,3.38   c0.7,1.46,1.04,3.19,1.04,5.2v1.17h-16.7v-1.84H76.3l-0.71,0.54c0-2.37-0.54-4.22-1.63-5.57c-1.09-1.35-2.7-2.03-4.84-2.03   c-2.28,0-4.06,0.79-5.34,2.36c-1.28,1.57-1.92,3.65-1.92,6.24v0.29c0,2.78,0.69,4.9,2.07,6.35c1.38,1.45,3.3,2.17,5.78,2.17   c1.28,0,2.48-0.19,3.59-0.58c1.11-0.39,2.18-1.06,3.21-2l1.04,1.88c-0.89,0.92-2.05,1.63-3.46,2.13   C72.67,230.46,71.19,230.71,69.66,230.71z"></path>		<path class="st1" d="M92.33,230.71c-3.17,0-5.68-0.95-7.54-2.84c-1.85-1.89-2.78-4.52-2.78-7.89c0-2.23,0.41-4.15,1.23-5.76   c0.82-1.61,1.97-2.87,3.44-3.78c1.47-0.9,3.19-1.36,5.13-1.36c1.86,0,3.44,0.4,4.72,1.19c1.28,0.79,2.27,1.92,2.96,3.38   c0.7,1.46,1.04,3.19,1.04,5.2v1.17h-16.7v-1.84h15.11l-0.71,0.54c0-2.37-0.54-4.22-1.63-5.57c-1.09-1.35-2.7-2.03-4.84-2.03   c-2.28,0-4.06,0.79-5.34,2.36c-1.28,1.57-1.92,3.65-1.92,6.24v0.29c0,2.78,0.69,4.9,2.07,6.35c1.38,1.45,3.3,2.17,5.78,2.17   c1.28,0,2.48-0.19,3.59-0.58c1.11-0.39,2.18-1.06,3.21-2l1.04,1.88c-0.89,0.92-2.05,1.63-3.46,2.13   C95.34,230.46,93.86,230.71,92.33,230.71z"></path>		<path class="st1" d="M113.91,230.71c-1.87,0-3.49-0.43-4.88-1.29c-1.39-0.86-2.46-2.1-3.21-3.72c-0.75-1.61-1.13-3.55-1.13-5.8   c0-2.25,0.38-4.18,1.13-5.78c0.75-1.6,1.82-2.84,3.21-3.72c1.39-0.88,3.02-1.32,4.88-1.32c1.92,0,3.58,0.5,4.99,1.48   c1.4,0.99,2.34,2.35,2.82,4.07h-0.5v-14.99h2.55v30.73h-2.51v-5.26h0.46c-0.47,1.75-1.41,3.12-2.82,4.11   C117.5,230.21,115.83,230.71,113.91,230.71z M114.25,228.54c2.11,0,3.82-0.74,5.11-2.21c1.29-1.48,1.94-3.62,1.94-6.43   c0-2.81-0.65-4.95-1.94-6.43c-1.29-1.48-3-2.21-5.11-2.21c-2.12,0-3.81,0.74-5.07,2.21c-1.27,1.48-1.9,3.62-1.9,6.43   c0,2.81,0.63,4.95,1.9,6.43C110.44,227.8,112.13,228.54,114.25,228.54z"></path>		<path class="st1" d="M140.55,230.71c-1.95,0-3.61-0.49-4.99-1.48s-2.3-2.36-2.78-4.11h0.46v5.26h-2.55v-30.73h2.55v14.99h-0.46   c0.47-1.73,1.4-3.08,2.78-4.07c1.38-0.99,3.04-1.48,4.99-1.48c1.89,0,3.53,0.44,4.91,1.32c1.38,0.88,2.45,2.12,3.21,3.72   c0.76,1.6,1.15,3.54,1.15,5.82c0,2.23-0.39,4.15-1.17,5.76c-0.78,1.61-1.86,2.85-3.24,3.72   C144.03,230.28,142.41,230.71,140.55,230.71z M140.17,228.54c2.14,0,3.85-0.73,5.13-2.19c1.28-1.46,1.92-3.6,1.92-6.41   c0-2.81-0.64-4.96-1.92-6.45c-1.28-1.49-2.99-2.23-5.13-2.23c-2.12,0-3.81,0.74-5.07,2.21c-1.27,1.48-1.9,3.62-1.9,6.43   c0,2.81,0.63,4.95,1.9,6.43C136.37,227.8,138.06,228.54,140.17,228.54z"></path>		<path class="st1" d="M163.3,230.71c-1.89,0-3.54-0.43-4.93-1.29c-1.39-0.86-2.46-2.1-3.21-3.72c-0.75-1.61-1.13-3.55-1.13-5.8   c0-2.25,0.38-4.18,1.15-5.78c0.76-1.6,1.84-2.84,3.24-3.72c1.39-0.88,3.02-1.32,4.88-1.32c1.92,0,3.58,0.5,4.99,1.5   c1.4,1,2.33,2.37,2.78,4.09h-0.5l0.42-5.22h2.46c-0.08,0.81-0.16,1.6-0.23,2.38c-0.07,0.78-0.1,1.55-0.1,2.3v16.24h-2.55v-5.22   h0.46c-0.45,1.73-1.37,3.08-2.78,4.07C166.84,230.21,165.19,230.71,163.3,230.71z M163.63,228.54c2.14,0,3.84-0.74,5.09-2.21   c1.25-1.48,1.88-3.62,1.88-6.43c0-2.81-0.63-4.95-1.88-6.43c-1.25-1.48-2.95-2.21-5.09-2.21s-3.85,0.74-5.11,2.21   c-1.27,1.48-1.9,3.62-1.9,6.43c0,2.81,0.63,4.95,1.9,6.43C159.79,227.8,161.49,228.54,163.63,228.54z"></path>		<path class="st1" d="M188.47,230.71c-1.98,0-3.7-0.44-5.18-1.32c-1.48-0.88-2.61-2.14-3.4-3.78c-0.79-1.64-1.19-3.59-1.19-5.84   c0-2.25,0.4-4.18,1.21-5.78c0.81-1.6,1.94-2.82,3.4-3.65c1.46-0.83,3.18-1.25,5.16-1.25c1.34,0,2.62,0.25,3.86,0.75   c1.24,0.5,2.26,1.2,3.07,2.09l-1.04,1.88c-0.86-0.86-1.79-1.5-2.8-1.9c-1-0.4-2-0.61-3.01-0.61c-2.28,0-4.06,0.72-5.34,2.17   c-1.28,1.45-1.92,3.56-1.92,6.35c0,2.78,0.64,4.93,1.92,6.45c1.28,1.52,3.06,2.28,5.34,2.28c0.95,0,1.93-0.19,2.94-0.58   c1.02-0.39,1.97-1.03,2.86-1.92l1.04,1.88c-0.83,0.89-1.89,1.58-3.15,2.07C190.99,230.46,189.73,230.71,188.47,230.71z"></path>		<path class="st1" d="M200.54,230.37v-30.73h2.55v19.29h0.08l10.31-9.48h3.3l-11.86,10.9l0.13-1.55l12.98,11.56h-3.46l-11.4-10.06   h-0.08v10.06H200.54z"></path>	</g></g></svg>