<?xml version="1.0" encoding="utf-8"?>
<!-- Generator: Adobe Illustrator 27.1.0, SVG Export Plug-In . SVG Version: 6.00 Build 0)  -->
<svg version="1.1" id="Layer_1" xmlns="http://www.w3.org/2000/svg" xmlns:xlink="http://www.w3.org/1999/xlink" x="0px" y="0px"
	 viewBox="0 0 455.94 322.38" style="enable-background:new 0 0 455.94 322.38;" xml:space="preserve">
<style type="text/css">
	.st0{fill:#680200;}
	.st1{fill:#EF4300;}
	.st2{fill:#FFFFFF;}
</style>
<g>
	<path class="st0" d="M315.68,81.21c-0.64,1.12-1.41,2.27-2.34,3.48l-0.03,0.04c-4.44,5.65-10.31,9.83-18.5,13.16
		c-0.21,0.09-0.43,0.18-0.64,0.26c15.62,16.4,25.21,38.6,25.21,63.03c0,50.48-40.93,91.41-91.41,91.41s-91.41-40.93-91.41-91.41
		s40.93-91.41,91.41-91.41c18.81,0,36.29,5.68,50.82,15.42c2.4-0.66,4.81-1.35,7.13-2.09c1.34-0.47,2.69-0.99,4.11-1.54l0.17-0.06
		c6.86-2.81,11.17-6.15,13.17-10.21l0.03-0.06c0.21-0.41,0.39-0.83,0.56-1.26c-21.29-17.8-47.89-27.5-75.98-27.5
		c-31.71,0-61.52,12.35-83.94,34.77c-22.42,22.42-34.77,52.23-34.77,83.94s12.35,61.52,34.77,83.94
		c22.42,22.42,52.23,34.77,83.94,34.77s61.52-12.35,83.94-34.77c22.42-22.42,34.77-52.23,34.77-83.94
		C346.68,131.31,335.71,103.12,315.68,81.21z"/>
	<path class="st1" d="M308.67,53.25c2.2,8.31,2.06,14.96-0.69,20.34c-2.64,5.33-7.87,9.43-15.88,12.71
		c-1.52,0.59-3.03,1.17-4.55,1.71c-4.3,1.37-8.75,2.55-13.1,3.71c-9,2.4-17.3,5.98-23.55,12.44c-1.44,1.48-2.77,3.11-3.98,4.91
		c-0.2,0.29-0.38,0.58-0.57,0.88c-3.85,6.18-8.43,11.38-13.74,15.71c-1.17,0.97-2.38,1.88-3.63,2.76c-3.78,2.67-7.88,4.96-12.3,6.9
		c-0.83,0.34-1.51,0.97-4.01,2.64c3.27,3.18,5.57,7.23,8.65,7.97c10.83,2.63,21.91,5.05,31.56-1.38c0.75-0.5,1.49-1.06,2.22-1.66
		c0.01-0.01,0.02-0.02,0.04-0.03c0.05,0.1,0.1,0.2,0.15,0.3c3.47,5.2,5.47,11.44,5.47,18.15c0,9.57-4.11,18.21-10.64,24.2
		c-0.11,0.1-0.21,0.2-0.32,0.29c-2.21,1.8-4.4,3.48-6.95,4.8c-2.58,1.33-5.33,2.31-8.17,2.91c-11.21,2.37-24.8,1.01-34.32-5.66
		c-4.46-3.13-8.18-7.28-10.79-12.06c-2.64-4.83-4.29-10.49-4.29-16.02c0-0.29-0.01-0.57-0.01-0.87c0-0.3,0.01-0.61,0.01-0.91
		c0.39-24.46,16.69-45.16,38.97-52.17c-28.98,1.87-52.01,26.07-52.01,55.5c0,26.69,18.86,49.03,43.94,54.4
		c3.76,0.78,7.67,1.22,11.68,1.22c5.79,0,11.38-0.89,16.63-2.54c7.9-2.48,15.04-6.68,21-12.17c7.3-6.69,12.81-15.33,15.7-25.09
		c1.49-5.01,2.29-10.33,2.29-15.82c0-8.62-1.96-16.78-5.47-24.07c-0.46-0.85-0.95-1.7-1.45-2.55c-2.35-3.9-4.79-7.38-7.29-10.46
		c1.71-3.45,3.32-6.69,4.88-9.87c0.96-1.92,1.9-3.83,2.84-5.72c-0.58-0.39-1.17-0.78-1.76-1.22c-2.19,1.11-4.38,2.22-6.57,3.32
		c-2.71,1.36-5.42,2.71-8.15,4.06c-0.59-0.73-1.22-1.42-1.8-2.15c1.35-1.54,2.59-3.31,3.89-4.95c1.39-1.76,2.87-3.38,4.66-4.43
		c5.42-3.18,11.58-5.23,17.65-7.19c2.69-0.92,5.37-1.85,7.92-2.93c6.25-2.54,11.97-5.92,16.42-11.58c0.98-1.27,1.85-2.59,2.49-3.91
		C316,69.62,314.93,60.73,308.67,53.25z M238.58,128.42c1.62-4.55,3.96-6.01,7.82-6.06C244.59,126.91,242.39,128.72,238.58,128.42z"
		/>
</g>
</svg>
