<svg xmlns="http://www.w3.org/2000/svg" xmlns:xlink="http://www.w3.org/1999/xlink" id="Layer_1" x="0px" y="0px" viewBox="0 0 256.67 269.62" style="enable-background:new 0 0 256.67 269.62;" xml:space="preserve"><style type="text/css">	.st0{fill:#EA4824;}	.st1{fill:#651313;}	.st2{fill:#F7B393;}	.st3{fill:#FFFFFF;}	.st4{fill:#EB4824;}	.st5{fill:#FCD7C3;}	.st6{fill:#D4BBB3;}</style><g>	<g>		<circle class="st0" cx="77.43" cy="156.91" r="12.46"></circle>		<path class="st1" d="M192.85,103.43c0,12.87-3.77,24.86-10.26,34.92c-1.08-0.21-2.2-0.31-3.34-0.31   c-10.41,0-18.87,8.47-18.87,18.87c0,0.83,0.05,1.64,0.16,2.43c-9.48,5.47-20.48,8.6-32.21,8.6c-11.74,0-22.73-3.15-32.21-8.64   c0.11-0.78,0.16-1.59,0.16-2.4c0-10.4-8.46-18.87-18.87-18.87c-1.13,0-2.25,0.1-3.32,0.3c-6.49-10.07-10.28-22.05-10.28-34.91   c0-35.63,28.89-64.51,64.51-64.51C163.97,38.91,192.85,67.8,192.85,103.43z"></path>		<g>			<path class="st2" d="M155.84,139.75c0.6-0.09,1.2-0.28,1.74-0.55c-7.99-3.55-21.28-22.59-25.23-36.75    c-4.64-16.57,0.52-28.97,8.81-30.89c-0.75-0.17-1.52-0.26-2.29-0.26c-9.58-0.02-16.19,13.08-11.13,31.18    C132.22,118.5,148.67,140.81,155.84,139.75z"></path>			<path class="st4" d="M114.55,89.32c-0.4,0.31-0.49,0.89-0.17,1.29c3.86,5.07,5.78,10.15,5.75,15.08    c-0.03,4.87-1.98,9.81-5.81,14.62c-0.32,0.4-0.25,0.98,0.15,1.29c0.4,0.32,0.98,0.25,1.29-0.15c8.26-10.42,8.27-21.19,0.08-31.98    C115.54,89.09,114.95,89.01,114.55,89.32L114.55,89.32z"></path>			<path class="st4" d="M111.59,93.19c-0.31-0.4-0.89-0.49-1.29-0.17c-0.4,0.31-0.49,0.89-0.17,1.29c2.89,3.81,4.35,7.61,4.32,11.32    c-0.03,3.66-1.49,7.35-4.37,10.96c-0.32,0.4-0.25,0.98,0.15,1.29c0.4,0.32,0.98,0.25,1.29-0.15    C117.87,109.75,117.89,101.48,111.59,93.19L111.59,93.19z"></path>			<path class="st4" d="M107.44,97.38c-0.31-0.4-0.89-0.48-1.29-0.17s-0.48,0.88-0.17,1.28c3.63,4.78,3.63,9.33-0.02,13.93    c-0.32,0.4-0.26,0.97,0.12,1.29c0.4,0.32,0.97,0.26,1.29-0.12c0-0.02,0.02-0.02,0.02-0.03    C111.57,108.29,111.59,102.83,107.44,97.38L107.44,97.38z"></path>			<g>				<path class="st3" d="M132.19,104.97c0.51,0,0.92-0.42,0.92-0.92c0-0.11-0.02-0.2-0.05-0.31c-1.51-4.34-2.35-8.73-2.43-12.73     c-0.08-3.81,0.54-7,1.77-9.19c0.92-1.63,2.12-2.63,3.6-2.94c2.72-0.58,5.9,0.43,8.5,2.69c2.32,2.03,3.83,4.7,4.3,7.5     c-1.91,0.57-6.09,1.98-7.53,3.12c-5.64,4.47-6.26,9.46-5.78,12.84c0.83,5.9,5.57,11.29,9.47,12.88     c1.45,0.58,2.86,2.04,4.23,3.44c1.68,1.71,3.27,3.35,4.95,3.35c0.38,0,0.75-0.09,1.09-0.25c0.68-0.31,1.14-1,1.37-2.03     c0.38-1.77,0.02-4.75-1.03-5.97c-2.52-2.89-3.72-5.53-3.47-7.64c0.2-1.72,1.28-2.54,1.34-2.58c0.42-0.29,0.52-0.86,0.23-1.29     c-0.29-0.42-0.86-0.52-1.29-0.23c-0.08,0.05-1.78,1.26-2.09,3.81c-0.34,2.69,0.98,5.77,3.92,9.13c0.48,0.54,0.95,2.74,0.63,4.32     c-0.12,0.57-0.29,0.77-0.34,0.78c-0.91,0.42-2.46-1.18-3.97-2.72c-1.43-1.46-3.06-3.12-4.84-3.86c-3-1.23-7.56-5.89-8.35-11.44     c-0.6-4.23,1.12-7.98,5.1-11.15c1.01-0.8,4.52-2.06,6.53-2.69c0,0.28-0.02,0.54-0.03,0.8c-0.11,1.49-2.49,5.53-3.97,7.75     c-0.29,0.42-0.17,1,0.25,1.28c0.42,0.29,1,0.17,1.28-0.25c0,0,0,0,0-0.02c0.42-0.63,4.07-6.18,4.26-8.63     c0.05-0.72,0.05-1.45-0.03-2.17c0-0.05,0-0.09-0.02-0.14c-0.37-3.51-2.15-6.9-5.03-9.41c-3.03-2.64-6.81-3.81-10.1-3.11     c-1.98,0.43-3.64,1.75-4.81,3.84c-2.88,5.1-2.66,14.3,0.52,23.43C131.45,104.72,131.79,104.97,132.19,104.97L132.19,104.97z"></path>				<path class="st3" d="M139.85,104.11c0.51-0.06,0.88-0.51,0.81-1.01c-0.03-0.22-0.05-0.42-0.05-0.63     c-0.03-0.51-0.48-0.89-0.98-0.86c-0.51,0.03-0.89,0.46-0.86,0.97c0.02,0.25,0.03,0.48,0.06,0.72c0.05,0.46,0.45,0.81,0.92,0.81     C139.77,104.13,139.8,104.13,139.85,104.11L139.85,104.11z"></path>				<path class="st3" d="M142.84,112.23c0.32,0.4,0.91,0.45,1.29,0.12c0.4-0.32,0.45-0.91,0.12-1.29c0,0,0,0-0.02-0.02     c-1.32-1.57-2.34-3.35-3.01-5.29c-0.15-0.48-0.68-0.74-1.17-0.58c-0.48,0.15-0.74,0.68-0.58,1.17     C140.25,108.49,141.38,110.49,142.84,112.23L142.84,112.23z"></path>				<path class="st3" d="M162.11,102.53c0.02-7.76-2.81-15.91-7.75-22.37c-4.67-6.12-10.47-9.78-15.5-9.79     c-3.66-0.02-7.03,1.77-9.49,5.01c-3.38,4.44-4.8,11.02-4.15,18.5c0.06,0.51,0.52,0.86,1.03,0.8c0.48-0.06,0.83-0.48,0.81-0.97     c-0.2-2.26-0.18-4.52,0.05-6.78c0.46-4.21,1.75-7.83,3.75-10.45c2.14-2.81,4.9-4.29,7.99-4.29h0.02     c4.4,0.02,9.78,3.47,14.04,9.07c4.69,6.15,7.38,13.88,7.36,21.25l-0.31,27.72c0.48,4.89-1.11,8.13-4.26,8.59     c-0.12,0.02-0.26,0.03-0.38,0.03c-3,0-8.33-4.58-13.81-11.9c-5.89-7.87-10.82-17.36-12.9-24.75c-0.06-0.22-0.12-0.43-0.17-0.65     c-0.12-0.49-0.61-0.8-1.11-0.68s-0.8,0.61-0.68,1.11c0,0.02,0,0.02,0.02,0.03c0.06,0.23,0.12,0.45,0.18,0.68     c2.12,7.6,7.18,17.31,13.19,25.35c2.91,3.89,10.04,12.64,15.28,12.64c0.22,0,0.43-0.02,0.65-0.05c4.17-0.62,6.4-4.64,5.84-10.5     L162.11,102.53z"></path>			</g>		</g>		<path class="st0" d="M180.03,153.37v-2.45v-0.02c-3.89,4.52-8.34,8.51-13.31,11.89c-0.73,0.5-1.47,0.98-2.22,1.45   c-1.01,0.63-2.03,1.24-3.07,1.81c-0.26,0.15-0.53,0.29-0.79,0.43c-0.58,0.31-1.17,0.62-1.77,0.92c-0.01,0.01-0.02,0.01-0.04,0.02   c-8,3.98-16.7,6.35-25.57,7c-0.63,0.04-1.25,0.08-1.88,0.11c-0.36,0.02-0.73,0.04-1.09,0.04c-1.31,0.04-2.62,0.04-3.93,0   c-0.36-0.01-0.73-0.03-1.09-0.04c-0.63-0.02-1.25-0.06-1.88-0.11c-8.86-0.65-17.56-3.02-25.57-7c-0.01-0.01-0.03-0.02-0.04-0.02   c-0.6-0.29-1.19-0.6-1.77-0.92l-0.79-0.43c-1.03-0.58-2.06-1.17-3.07-1.81c-0.75-0.47-1.49-0.95-2.22-1.45   c-4.97-3.38-9.42-7.36-13.31-11.89v0.02v2.45c0,0.82-0.17,1.6-0.46,2.32c0.88,0.94,1.79,1.85,2.72,2.73   c0.06,0.05,0.11,0.1,0.16,0.15c0.8,0.76,1.62,1.5,2.46,2.22c0.38,0.32,0.75,0.64,1.14,0.95c0.44,0.37,0.89,0.73,1.34,1.09   c0.04,0.03,0.07,0.06,0.11,0.09c0.04,0.03,0.07,0.06,0.11,0.08c0.44,0.35,0.88,0.69,1.34,1.02c0.05,0.04,0.11,0.09,0.16,0.12   c0.24,0.18,0.48,0.36,0.73,0.54c0.5,0.36,1,0.7,1.51,1.05c0.37,0.25,0.74,0.5,1.11,0.74c0.41,0.27,0.81,0.53,1.22,0.78   c0.35,0.22,0.7,0.43,1.05,0.64c0.68,0.41,1.37,0.8,2.06,1.2c0.31,0.17,0.63,0.35,0.95,0.52c0.6,0.32,1.2,0.63,1.8,0.93   c0.01,0.01,0.03,0.01,0.04,0.02c9.23,4.64,19.13,7.11,29.02,7.51c0.36,0.01,0.72,0.03,1.07,0.04c0.31,0.01,0.62,0.02,0.92,0.02   c0.75,0.02,1.51,0.02,2.26,0c0.31,0,0.61-0.01,0.92-0.02c0.36-0.01,0.71-0.02,1.07-0.04c9.87-0.41,19.77-2.87,29-7.5   c0.01-0.01,0.02-0.01,0.04-0.02c0.6-0.3,1.2-0.61,1.8-0.93c0.02-0.01,0.04-0.01,0.06-0.04c0.31-0.16,0.61-0.33,0.91-0.5   c0.65-0.36,1.29-0.73,1.93-1.11c0.4-0.24,0.79-0.48,1.18-0.73c0.39-0.24,0.78-0.49,1.17-0.75c0.38-0.26,0.78-0.51,1.16-0.78   c4.3-2.92,8.23-6.29,11.77-10.04C180.2,154.97,180.03,154.19,180.03,153.37z"></path>		<circle class="st0" cx="179.25" cy="156.91" r="12.46"></circle>	</g>	<g>		<path class="st1" d="M75.9,230.37v-29.43h2.59v27.14h15.32v2.3H75.9z"></path>		<path class="st1" d="M97.53,204.32v-3.17h3.42v3.17H97.53z M97.95,230.37v-20.92h2.55v20.92H97.95z"></path>		<path class="st1" d="M114.23,230.71c-1.61,0-3.12-0.24-4.53-0.71c-1.41-0.47-2.57-1.13-3.49-1.96l1-1.88   c1.03,0.83,2.14,1.45,3.34,1.86c1.2,0.4,2.45,0.61,3.76,0.61c1.78,0,3.13-0.33,4.05-1c0.92-0.67,1.38-1.57,1.38-2.71   c0-0.89-0.29-1.61-0.88-2.17c-0.58-0.56-1.56-0.97-2.92-1.25l-3.76-0.79c-1.78-0.42-3.11-1.09-3.99-2s-1.32-2.07-1.32-3.46   c0-1.2,0.31-2.25,0.94-3.17c0.63-0.92,1.52-1.64,2.69-2.17c1.17-0.53,2.55-0.79,4.13-0.79c1.5,0,2.89,0.24,4.15,0.73   c1.27,0.49,2.3,1.18,3.11,2.07l-1.09,1.84c-0.83-0.84-1.77-1.46-2.82-1.88s-2.15-0.63-3.32-0.63c-1.73,0-3.03,0.35-3.92,1.06   c-0.89,0.71-1.34,1.65-1.34,2.82c0,0.89,0.28,1.62,0.83,2.19c0.56,0.57,1.43,1,2.63,1.27l3.76,0.84c1.89,0.42,3.3,1.06,4.22,1.92   c0.92,0.86,1.38,2,1.38,3.42c0,1.22-0.33,2.29-1,3.19c-0.67,0.9-1.6,1.59-2.8,2.07C117.25,230.47,115.84,230.71,114.23,230.71z"></path>		<path class="st1" d="M134.64,230.71c-1.86,0-3.29-0.56-4.28-1.67c-0.99-1.11-1.48-2.82-1.48-5.14v-12.4h-4.17v-2.05h4.17v-5.84   l2.55-0.84v6.68h6.18v2.05h-6.18v12.02c0,1.75,0.28,3.02,0.84,3.8c0.56,0.78,1.45,1.17,2.67,1.17c0.56,0,1.05-0.06,1.48-0.17   c0.43-0.11,0.8-0.24,1.11-0.38v2.25c-0.33,0.14-0.77,0.26-1.29,0.35C135.7,230.66,135.17,230.71,134.64,230.71z"></path>		<path class="st1" d="M150.71,230.71c-3.17,0-5.68-0.95-7.54-2.84c-1.85-1.89-2.78-4.52-2.78-7.89c0-2.23,0.41-4.15,1.23-5.76   c0.82-1.61,1.97-2.87,3.44-3.78c1.47-0.9,3.19-1.36,5.13-1.36c1.86,0,3.44,0.4,4.72,1.19c1.28,0.79,2.27,1.92,2.96,3.38   c0.7,1.46,1.04,3.19,1.04,5.2v1.17h-16.7v-1.84h15.11l-0.71,0.54c0-2.37-0.54-4.22-1.63-5.57c-1.09-1.35-2.7-2.02-4.84-2.02   c-2.28,0-4.06,0.79-5.34,2.36c-1.28,1.57-1.92,3.65-1.92,6.24v0.29c0,2.78,0.69,4.9,2.07,6.35c1.38,1.45,3.3,2.17,5.78,2.17   c1.28,0,2.48-0.19,3.59-0.58c1.11-0.39,2.18-1.06,3.21-2l1.04,1.88c-0.89,0.92-2.05,1.63-3.46,2.13   C153.72,230.46,152.24,230.71,150.71,230.71z"></path>		<path class="st1" d="M164.41,230.37v-16.24c0-0.75-0.03-1.52-0.08-2.3c-0.06-0.78-0.14-1.57-0.25-2.38h2.5l0.38,4.8h-0.5   c0.61-1.67,1.6-2.95,2.96-3.84c1.36-0.89,2.95-1.34,4.76-1.34c2.48,0,4.35,0.65,5.61,1.96c1.27,1.31,1.9,3.35,1.9,6.14v13.19   h-2.55v-12.98c0-2.14-0.43-3.69-1.29-4.65c-0.86-0.96-2.2-1.44-4.01-1.44c-2.12,0-3.79,0.64-5.03,1.92   c-1.24,1.28-1.86,3.01-1.86,5.18v11.98H164.41z"></path>	</g></g></svg>