<svg xmlns="http://www.w3.org/2000/svg" xmlns:xlink="http://www.w3.org/1999/xlink" id="Layer_1" x="0px" y="0px" viewBox="0 0 256.67 269.62" style="enable-background:new 0 0 256.67 269.62;" xml:space="preserve"><style type="text/css">	.st0{fill:#EA4824;}	.st1{fill:#651313;}	.st2{fill:#F7B393;}	.st3{fill:#FFFFFF;}	.st4{fill:#EB4824;}	.st5{fill:#FCD7C3;}	.st6{fill:#D4BBB3;}</style><g>	<g>		<circle class="st0" cx="75.72" cy="156.91" r="12.46"></circle>		<path class="st1" d="M191.14,103.43c0,12.87-3.77,24.86-10.26,34.92c-1.08-0.21-2.2-0.31-3.34-0.31   c-10.41,0-18.87,8.47-18.87,18.87c0,0.83,0.05,1.64,0.16,2.43c-9.48,5.47-20.48,8.6-32.21,8.6c-11.74,0-22.73-3.15-32.21-8.64   c0.11-0.78,0.16-1.59,0.16-2.4c0-10.4-8.46-18.87-18.87-18.87c-1.13,0-2.25,0.1-3.32,0.3c-6.49-10.07-10.28-22.05-10.28-34.91   c0-35.63,28.89-64.51,64.51-64.51C162.26,38.91,191.14,67.8,191.14,103.43z"></path>		<path class="st0" d="M178.31,153.37v-2.45v-0.02c-3.89,4.52-8.34,8.51-13.31,11.89c-0.73,0.5-1.47,0.98-2.22,1.45   c-1.01,0.63-2.03,1.24-3.07,1.81c-0.26,0.15-0.53,0.29-0.79,0.43c-0.58,0.31-1.17,0.62-1.77,0.92c-0.01,0.01-0.02,0.01-0.04,0.02   c-8,3.98-16.7,6.35-25.57,7c-0.63,0.04-1.25,0.08-1.88,0.11c-0.36,0.02-0.73,0.04-1.09,0.04c-1.31,0.04-2.62,0.04-3.93,0   c-0.36-0.01-0.73-0.03-1.09-0.04c-0.63-0.02-1.25-0.06-1.88-0.11c-8.86-0.65-17.56-3.02-25.57-7c-0.01-0.01-0.03-0.02-0.04-0.02   c-0.6-0.29-1.19-0.6-1.77-0.92l-0.79-0.43c-1.03-0.58-2.06-1.17-3.07-1.81c-0.75-0.47-1.49-0.95-2.22-1.45   c-4.97-3.38-9.42-7.36-13.31-11.89v0.02v2.45c0,0.82-0.17,1.6-0.46,2.32c0.88,0.94,1.79,1.85,2.72,2.73   c0.06,0.05,0.11,0.1,0.16,0.15c0.8,0.76,1.62,1.5,2.46,2.22c0.38,0.32,0.75,0.64,1.14,0.95c0.44,0.37,0.89,0.73,1.34,1.09   c0.04,0.03,0.07,0.06,0.11,0.09c0.04,0.03,0.07,0.06,0.11,0.08c0.44,0.35,0.88,0.69,1.34,1.02c0.05,0.04,0.11,0.09,0.16,0.12   c0.24,0.18,0.48,0.36,0.73,0.54c0.5,0.36,1,0.7,1.51,1.05c0.37,0.25,0.74,0.5,1.11,0.74c0.41,0.27,0.81,0.53,1.22,0.78   c0.35,0.22,0.7,0.43,1.05,0.64c0.68,0.41,1.37,0.8,2.06,1.2c0.31,0.17,0.63,0.35,0.95,0.52c0.6,0.32,1.2,0.63,1.8,0.93   c0.01,0.01,0.03,0.01,0.04,0.02c9.23,4.64,19.13,7.11,29.02,7.51c0.36,0.01,0.72,0.03,1.07,0.04c0.31,0.01,0.62,0.02,0.92,0.02   c0.75,0.02,1.51,0.02,2.26,0c0.31,0,0.61-0.01,0.92-0.02c0.36-0.01,0.71-0.02,1.07-0.04c9.87-0.41,19.77-2.87,29-7.5   c0.01-0.01,0.02-0.01,0.04-0.02c0.6-0.3,1.2-0.61,1.8-0.93c0.02-0.01,0.04-0.01,0.06-0.04c0.31-0.16,0.61-0.33,0.91-0.5   c0.65-0.36,1.29-0.73,1.93-1.11c0.4-0.24,0.79-0.48,1.18-0.73c0.39-0.24,0.78-0.49,1.17-0.75c0.38-0.26,0.78-0.51,1.16-0.78   c4.3-2.92,8.23-6.29,11.77-10.04C178.49,154.97,178.31,154.19,178.31,153.37z"></path>		<circle class="st0" cx="177.54" cy="156.91" r="12.46"></circle>		<g>			<path class="st2" d="M107.78,133.87h4.61c-1.7,0-3.14-1.4-3.14-3.1V71.14c0-1.7,1.45-3.07,3.14-3.07h-4.61    c-1.7,0-3.14,1.38-3.14,3.07v59.63C104.64,132.47,106.09,133.87,107.78,133.87z"></path>			<g>				<path class="st4" d="M134.31,79.44c0-1.02-0.83-1.84-1.84-1.84h-18.76c-1.02,0-1.84,0.83-1.84,1.84v5.84     c0,1.02,0.83,1.84,1.84,1.84h18.76c1.02,0,1.84-0.83,1.84-1.84V79.44z M113.71,79.44h18.69l0,5.84h-18.69L113.71,79.44z"></path>				<path class="st4" d="M112.78,99.43H131c0.51,0,0.92-0.41,0.92-0.92s-0.41-0.92-0.92-0.92h-18.22c-0.51,0-0.92,0.41-0.92,0.92     S112.27,99.43,112.78,99.43z"></path>				<path class="st4" d="M112.78,105.73h32.65c0.51,0,0.92-0.41,0.92-0.92s-0.41-0.92-0.92-0.92h-32.65c-0.51,0-0.92,0.41-0.92,0.92     S112.27,105.73,112.78,105.73z"></path>				<path class="st4" d="M112.78,112.19h32.65c0.51,0,0.92-0.41,0.92-0.92c0-0.51-0.41-0.92-0.92-0.92h-32.65     c-0.51,0-0.92,0.41-0.92,0.92C111.85,111.78,112.27,112.19,112.78,112.19z"></path>				<path class="st4" d="M112.78,118.49h32.65c0.51,0,0.92-0.41,0.92-0.92c0-0.51-0.41-0.92-0.92-0.92h-32.65     c-0.51,0-0.92,0.41-0.92,0.92C111.85,118.08,112.27,118.49,112.78,118.49z"></path>				<path class="st4" d="M112.78,124.95h32.65c0.51,0,0.92-0.41,0.92-0.92c0-0.51-0.41-0.92-0.92-0.92h-32.65     c-0.51,0-0.92,0.41-0.92,0.92C111.85,124.54,112.27,124.95,112.78,124.95z"></path>			</g>			<path class="st3" d="M108.64,74.21c0.51,0,0.92-0.41,0.92-0.92v-0.74c0-0.51-0.41-0.92-0.92-0.92c-0.51,0-0.92,0.41-0.92,0.92    v0.74C107.72,73.8,108.13,74.21,108.64,74.21z"></path>			<path class="st3" d="M108.64,89.43c0.51,0,0.92-0.41,0.92-0.92V76.65c0-0.51-0.41-0.92-0.92-0.92c-0.51,0-0.92,0.41-0.92,0.92    v11.87C107.72,89.02,108.13,89.43,108.64,89.43z"></path>			<path class="st3" d="M154.18,78.74l-10.85-11.32c-0.18-0.18-0.42-0.29-0.68-0.29h-34.86c-2.2,0-4.07,1.79-4.07,4v0.92h-0.88    c-2.22,0.01-4.02,1.8-4.04,4.02v59.63c0.02,2.22,1.83,4,4.04,4h43.25c2.2,0,4.07-1.79,4.07-4v-0.92h0.26    c2.22-0.01,4.02-1.8,4.04-4.02V79.38C154.45,79.14,154.35,78.91,154.18,78.74L154.18,78.74z M143.54,70.36l7.79,8.16h-6.84    c-0.53-0.03-0.94-0.46-0.95-0.98V70.36z M152.61,130.75c0,1.21-0.98,2.19-2.2,2.2h-42.63c-1.23,0-2.22-1-2.22-2.22V91.74    c0-0.51-0.41-0.92-0.92-0.92s-0.92,0.41-0.92,0.92v38.98c0.01,2.24,1.82,4.06,4.07,4.07h40.52v0.92c0,1.19-0.96,2.15-2.15,2.15    h-43.31c-1.21,0-2.19-0.98-2.2-2.2V76.08c0-1.2,0.98-2.17,2.18-2.18h0.9v11.38c0,0.51,0.41,0.92,0.92,0.92s0.92-0.41,0.92-0.92    V71.14c0-1.19,0.96-2.15,2.15-2.15h33.98v8.55c0,1.56,1.27,2.82,2.83,2.83h8.09V130.75z"></path>		</g>	</g>	<g>		<path class="st1" d="M58.24,230.37v-29.43h11.44c3.03,0,5.38,0.72,7.04,2.17c1.66,1.45,2.48,3.48,2.48,6.09   c0,2.56-0.83,4.58-2.48,6.05c-1.66,1.48-4,2.21-7.04,2.21h-8.85v12.9H58.24z M60.83,215.22h8.68c2.31,0,4.06-0.52,5.26-1.57   c1.2-1.04,1.8-2.53,1.8-4.45c0-1.92-0.6-3.41-1.8-4.47c-1.2-1.06-2.95-1.59-5.26-1.59h-8.68V215.22z"></path>		<path class="st1" d="M84.25,230.37v-16.03c0-0.81-0.02-1.62-0.06-2.44c-0.04-0.82-0.12-1.63-0.23-2.44h2.51l0.33,4.8l-0.5,0.04   c0.28-1.17,0.78-2.14,1.5-2.9c0.72-0.77,1.56-1.34,2.51-1.73c0.95-0.39,1.92-0.58,2.92-0.58c0.36,0,0.7,0.02,1.02,0.06   c0.32,0.04,0.62,0.1,0.9,0.19l-0.08,2.3c-0.33-0.11-0.67-0.18-1-0.21c-0.33-0.03-0.7-0.04-1.08-0.04c-1.25,0-2.35,0.31-3.28,0.92   c-0.93,0.61-1.65,1.39-2.15,2.34c-0.5,0.95-0.75,1.91-0.75,2.88v12.86H84.25z"></path>		<path class="st1" d="M107.59,230.71c-3.17,0-5.68-0.95-7.53-2.84c-1.85-1.89-2.78-4.52-2.78-7.89c0-2.23,0.41-4.15,1.23-5.76   c0.82-1.61,1.97-2.87,3.44-3.78s3.19-1.36,5.14-1.36c1.86,0,3.44,0.4,4.72,1.19c1.28,0.79,2.27,1.92,2.96,3.38   c0.7,1.46,1.04,3.19,1.04,5.2v1.17h-16.7v-1.84h15.11l-0.71,0.54c0-2.37-0.54-4.22-1.63-5.57c-1.09-1.35-2.7-2.02-4.84-2.02   c-2.28,0-4.06,0.79-5.34,2.36c-1.28,1.57-1.92,3.65-1.92,6.24v0.29c0,2.78,0.69,4.9,2.07,6.35c1.38,1.45,3.3,2.17,5.78,2.17   c1.28,0,2.48-0.19,3.59-0.58c1.11-0.39,2.19-1.06,3.21-2l1.04,1.88c-0.89,0.92-2.05,1.63-3.46,2.13   C110.6,230.46,109.12,230.71,107.59,230.71z"></path>		<path class="st1" d="M128.05,230.71c-1.61,0-3.12-0.24-4.53-0.71c-1.41-0.47-2.57-1.13-3.49-1.96l1-1.88   c1.03,0.83,2.14,1.45,3.34,1.86c1.2,0.4,2.45,0.61,3.76,0.61c1.78,0,3.13-0.33,4.05-1s1.38-1.57,1.38-2.71   c0-0.89-0.29-1.61-0.88-2.17c-0.58-0.56-1.56-0.97-2.92-1.25l-3.76-0.79c-1.78-0.42-3.11-1.09-3.99-2   c-0.88-0.92-1.32-2.07-1.32-3.46c0-1.2,0.31-2.25,0.94-3.17c0.63-0.92,1.52-1.64,2.69-2.17c1.17-0.53,2.55-0.79,4.13-0.79   c1.5,0,2.89,0.24,4.15,0.73c1.27,0.49,2.3,1.18,3.11,2.07l-1.08,1.84c-0.84-0.84-1.77-1.46-2.82-1.88s-2.15-0.63-3.32-0.63   c-1.73,0-3.03,0.35-3.92,1.06c-0.89,0.71-1.34,1.65-1.34,2.82c0,0.89,0.28,1.62,0.84,2.19c0.56,0.57,1.43,1,2.63,1.27l3.76,0.84   c1.89,0.42,3.3,1.06,4.22,1.92c0.92,0.86,1.38,2,1.38,3.42c0,1.22-0.33,2.29-1,3.19c-0.67,0.9-1.6,1.59-2.8,2.07   C131.07,230.47,129.66,230.71,128.05,230.71z"></path>		<path class="st1" d="M150.88,230.71c-3.17,0-5.68-0.95-7.53-2.84c-1.85-1.89-2.78-4.52-2.78-7.89c0-2.23,0.41-4.15,1.23-5.76   c0.82-1.61,1.97-2.87,3.44-3.78s3.19-1.36,5.14-1.36c1.86,0,3.44,0.4,4.72,1.19c1.28,0.79,2.27,1.92,2.96,3.38   c0.7,1.46,1.04,3.19,1.04,5.2v1.17h-16.7v-1.84h15.11l-0.71,0.54c0-2.37-0.54-4.22-1.63-5.57c-1.09-1.35-2.7-2.02-4.84-2.02   c-2.28,0-4.06,0.79-5.34,2.36c-1.28,1.57-1.92,3.65-1.92,6.24v0.29c0,2.78,0.69,4.9,2.07,6.35c1.38,1.45,3.3,2.17,5.78,2.17   c1.28,0,2.48-0.19,3.59-0.58c1.11-0.39,2.19-1.06,3.21-2l1.04,1.88c-0.89,0.92-2.05,1.63-3.46,2.13   C153.89,230.46,152.41,230.71,150.88,230.71z"></path>		<path class="st1" d="M164.57,230.37v-16.24c0-0.75-0.03-1.52-0.08-2.3c-0.06-0.78-0.14-1.57-0.25-2.38h2.51l0.38,4.8h-0.5   c0.61-1.67,1.6-2.95,2.96-3.84c1.36-0.89,2.95-1.34,4.76-1.34c2.48,0,4.35,0.65,5.62,1.96c1.27,1.31,1.9,3.35,1.9,6.14v13.19   h-2.55v-12.98c0-2.14-0.43-3.69-1.29-4.65c-0.86-0.96-2.2-1.44-4.01-1.44c-2.12,0-3.79,0.64-5.03,1.92   c-1.24,1.28-1.86,3.01-1.86,5.18v11.98H164.57z"></path>		<path class="st1" d="M195.47,230.71c-1.87,0-3.29-0.56-4.28-1.67c-0.99-1.11-1.48-2.82-1.48-5.14v-12.4h-4.17v-2.05h4.17v-5.84   l2.55-0.84v6.68h6.18v2.05h-6.18v12.02c0,1.75,0.28,3.02,0.83,3.8c0.56,0.78,1.45,1.17,2.67,1.17c0.56,0,1.05-0.06,1.48-0.17   c0.43-0.11,0.8-0.24,1.11-0.38v2.25c-0.33,0.14-0.77,0.26-1.29,0.35C196.52,230.66,195.99,230.71,195.47,230.71z"></path>	</g></g></svg>