<svg xmlns="http://www.w3.org/2000/svg" xmlns:xlink="http://www.w3.org/1999/xlink" id="Layer_1" x="0px" y="0px" viewBox="0 0 125 125" style="enable-background:new 0 0 125 125;" xml:space="preserve"><style type="text/css">	.st0{fill:#FCD7C3;}	.st1{fill:#660E0D;}	.st2{fill:#EA4824;}	.st3{fill:#231F20;}	.st4{fill:#ED4623;}</style><g>	<g>		<g>			<g>				<path class="st0" d="M83.4,44.8l-0.1,0.1l-12.6,8.6c-2,1-4.2,1.3-6.4,0.9l-9.1-1.7c-1-0.2-2-0.1-3,0.4c0,0,0,0,0,0l-3.8,2.4     l0.8,2.5l4.2-2.6c0,0,0,0,0,0c0.9-0.5,2-0.6,3-0.4l9.1,1.7c2.2,0.4,4.4,0.1,6.4-0.9L87,45.3C86,44.4,84.6,44.1,83.4,44.8z"></path>			</g>			<g>				<path class="st1" d="M78.1,42.6L78.1,42.6L77.5,43c-1.5-1.3-3.7-1.5-5.5-0.5l-3.4,1.9H64c-1,0-2-0.2-2.8-0.7l-0.6-0.3     c-3.6-1.8-7.9-1.3-11.1,1.1c0,0,0,0,0,0l-1.5,1.3c-0.6,0.5-1.2,0.9-2,1.1L45,44.1c-0.1-0.3-0.4-0.5-0.6-0.5h-7.3     c-0.2,0-0.4,0.1-0.5,0.2c-0.1,0.2-0.2,0.3-0.2,0.5l2.4,19.9c0,0.3,0.3,0.6,0.7,0.6h10.9c0.2,0,0.4-0.1,0.6-0.3     c0.1-0.2,0.2-0.4,0.1-0.6l-1.4-4.7l4.5-2.8c0.6-0.3,1.3-0.4,2-0.3c0,0,0,0,0,0l9.1,1.7c2.5,0.4,5,0.1,7.3-1c0,0,0.1,0,0.1,0     l15.7-10.8c0.3-0.2,0.4-0.6,0.2-0.9c-1.2-2-3.7-2.7-5.8-1.6l-0.3,0.1C81.4,42.4,79.5,41.9,78.1,42.6z M78.7,43.8     c0.8-0.4,1.9-0.1,2.5,0.6l-6,3.2l-0.4,0.2c-0.2-0.5-0.5-1-0.8-1.5L78.7,43.8z M72.6,43.7L72.6,43.7c1.1-0.6,2.4-0.6,3.5,0     l-3,1.6c-0.6-0.4-1.2-0.7-1.9-0.9L72.6,43.7z M40.1,63.6L37.8,45h6l5.7,18.6H40.1z M87,45.3L71.8,55.7c-2,1-4.2,1.3-6.4,0.9     l-9.1-1.7c-1-0.2-2-0.1-3,0.4c0,0,0,0,0,0L49.2,58l-3-9.8c0.9-0.3,1.8-0.7,2.5-1.4l1.5-1.3c2.8-2.1,6.6-2.5,9.7-0.9l0.6,0.3     c1.1,0.5,2.2,0.8,3.4,0.8H70c1.8,0,3.4,1.3,3.8,3.1l-4.4-0.2c-1.6-0.1-3.2,0-4.8,0.2c-0.2,0-0.4,0.2-0.5,0.4     c-0.1,0.2-0.1,0.5,0.1,0.7s0.4,0.3,0.6,0.3c1.5-0.2,3-0.3,4.5-0.2l5.2,0.2c0,0,0,0,0,0c0.4,0,0.7-0.3,0.7-0.7c0-0.1,0-0.2,0-0.3     l0.7-0.4l7.5-4C84.6,44.1,86,44.4,87,45.3L87,45.3z"></path>			</g>			<g>				<path class="st1" d="M42.3,60.8c0,1.2,1,2.1,2.1,2.1c1.2,0,2.1-1,2.1-2.1c0-1.2-1-2.1-2.1-2.1C43.2,58.6,42.3,59.6,42.3,60.8z      M44.4,60c0.4,0,0.8,0.4,0.8,0.8s-0.4,0.8-0.8,0.8s-0.8-0.4-0.8-0.8C43.6,60.3,44,60,44.4,60z"></path>			</g>			<g>				<g>					<path class="st2" d="M56.4,35.8c1.8,1.3,3.7,2.3,5.8,3c0.1,0,0.2,0,0.4,0c2.1-0.7,4.1-1.7,6-3c3.9-2.8,6-6.5,6-10.7v-6.6      c0-0.3-0.2-0.5-0.4-0.6l-0.1,0c-3.9-1.7-7.7-3.9-11.1-6.4c-0.2-0.2-0.6-0.2-0.8,0c-3.4,2.6-7.2,4.7-11.1,6.4l-0.1,0      c-0.2,0.1-0.4,0.4-0.4,0.6v6.6C50.5,29.3,52.5,33,56.4,35.8z M51.9,19c3.8-1.7,7.3-3.7,10.6-6.1c3.3,2.4,6.9,4.5,10.6,6.1v6.1      c0,2.9-1.1,5.5-3.2,7.7v-0.1c0-0.4-0.3-0.7-0.7-0.7c-0.4,0-0.7,0.3-0.7,0.7v0.7c0,0.2,0.1,0.4,0.2,0.5      c-0.3,0.3-0.7,0.6-1.1,0.8c-1.7,1.2-3.5,2.1-5.4,2.7c-1.9-0.6-3.6-1.6-5.2-2.7c-0.3-0.2-0.7-0.5-1-0.8c0.2-0.1,0.3-0.3,0.3-0.6      v-0.7c0-0.4-0.3-0.7-0.7-0.7c-0.4,0-0.7,0.3-0.7,0.7v0.2c-2.1-2.2-3.2-4.8-3.2-7.8L51.9,19L51.9,19z"></path>				</g>				<g>					<path class="st2" d="M62.5,32c-0.4,0-0.7,0.3-0.7,0.7v0.7c0,0.4,0.3,0.7,0.7,0.7c0.4,0,0.7-0.3,0.7-0.7v-0.7      C63.2,32.3,62.9,32,62.5,32z"></path>				</g>				<g>					<path class="st2" d="M64.7,32c-0.4,0-0.7,0.3-0.7,0.7v0.7c0,0.4,0.3,0.7,0.7,0.7s0.7-0.3,0.7-0.7v-0.7      C65.4,32.3,65.1,32,64.7,32z"></path>				</g>				<g>					<path class="st2" d="M66.3,32.7v0.7c0,0.4,0.3,0.7,0.7,0.7c0.4,0,0.7-0.3,0.7-0.7v-0.7c0-0.4-0.3-0.7-0.7-0.7      C66.6,32,66.3,32.3,66.3,32.7z"></path>				</g>				<g>					<path class="st2" d="M60.3,32c-0.4,0-0.7,0.3-0.7,0.7v0.7c0,0.4,0.3,0.7,0.7,0.7c0.4,0,0.7-0.3,0.7-0.7v-0.7      C60.9,32.3,60.6,32,60.3,32z"></path>				</g>				<g>					<path class="st2" d="M58,34c0.4,0,0.7-0.3,0.7-0.7v-0.7c0-0.4-0.3-0.7-0.7-0.7c-0.4,0-0.7,0.3-0.7,0.7v0.7      C57.3,33.7,57.6,34,58,34z"></path>				</g>				<g>					<path class="st2" d="M61,27.8c0.3,0.3,0.7,0.3,1,0l4.5-4.5c0.3-0.3,0.3-0.7,0-1c-0.3-0.3-0.7-0.3-1,0l-4,4l-2.1-2.1      c-0.3-0.3-0.7-0.3-1,0c-0.3,0.3-0.3,0.7,0,1L61,27.8z"></path>				</g>			</g>		</g>		<g>			<g>				<path class="st3" d="M50,96.7c-0.7,0-1.3-0.1-1.8-0.3c-0.5-0.2-1-0.4-1.4-0.7l0.4-0.9c0.3,0.2,0.6,0.4,0.8,0.5     c0.3,0.1,0.6,0.2,0.9,0.3c0.3,0.1,0.7,0.1,1.1,0.1c0.7,0,1.2-0.1,1.5-0.4c0.3-0.2,0.5-0.6,0.5-1c0-0.4-0.1-0.6-0.3-0.8     c-0.2-0.2-0.6-0.3-1.2-0.4l-1.2-0.3c-0.7-0.2-1.3-0.4-1.7-0.8c-0.4-0.4-0.6-0.8-0.6-1.4c0-0.5,0.1-0.9,0.4-1.3     c0.3-0.4,0.6-0.7,1.1-0.9c0.5-0.2,1-0.3,1.6-0.3c0.6,0,1.1,0.1,1.6,0.3c0.5,0.2,0.9,0.4,1.2,0.7l-0.4,0.8     c-0.4-0.3-0.7-0.6-1.1-0.7c-0.4-0.1-0.9-0.2-1.4-0.2c-0.6,0-1.1,0.1-1.5,0.4c-0.4,0.3-0.5,0.6-0.5,1.1c0,0.4,0.1,0.6,0.3,0.8     c0.2,0.2,0.6,0.4,1.1,0.5l1.2,0.2c0.8,0.2,1.4,0.4,1.7,0.7c0.4,0.3,0.6,0.8,0.6,1.4c0,0.5-0.1,0.9-0.4,1.2     c-0.2,0.4-0.6,0.6-1.1,0.8C51.2,96.6,50.6,96.7,50,96.7z"></path>			</g>			<g>				<path class="st3" d="M56.9,96.7c-0.6,0-1.1-0.1-1.5-0.4c-0.4-0.2-0.7-0.6-1-1c-0.2-0.5-0.4-1-0.4-1.6c0-0.6,0.1-1.2,0.4-1.6     c0.2-0.5,0.6-0.8,1-1c0.4-0.2,0.9-0.4,1.5-0.4c0.6,0,1.1,0.1,1.5,0.4c0.4,0.2,0.7,0.6,1,1c0.2,0.5,0.3,1,0.3,1.6     c0,0.6-0.1,1.2-0.3,1.6c-0.2,0.5-0.6,0.8-1,1C58,96.6,57.5,96.7,56.9,96.7z M56.9,95.8c0.5,0,0.9-0.2,1.3-0.6     c0.3-0.4,0.5-0.9,0.5-1.6c0-0.7-0.2-1.3-0.5-1.6c-0.3-0.4-0.7-0.6-1.3-0.6c-0.5,0-1,0.2-1.3,0.6c-0.3,0.4-0.5,0.9-0.5,1.6     c0,0.7,0.2,1.3,0.5,1.6C56,95.7,56.4,95.8,56.9,95.8z"></path>			</g>			<g>				<path class="st3" d="M63.7,96.7c-0.6,0-1.1-0.1-1.5-0.4c-0.4-0.2-0.8-0.6-1-1.1c-0.2-0.5-0.4-1-0.4-1.7c0-0.6,0.1-1.2,0.4-1.6     c0.2-0.4,0.6-0.8,1-1c0.4-0.2,0.9-0.4,1.5-0.4c0.4,0,0.7,0.1,1.1,0.2c0.4,0.1,0.6,0.3,0.9,0.6l-0.4,0.7     c-0.2-0.2-0.5-0.4-0.7-0.5c-0.3-0.1-0.5-0.2-0.8-0.2c-0.6,0-1,0.2-1.3,0.6c-0.3,0.4-0.5,0.9-0.5,1.6c0,0.7,0.2,1.3,0.5,1.6     c0.3,0.4,0.8,0.6,1.3,0.6c0.3,0,0.5,0,0.8-0.2c0.3-0.1,0.5-0.3,0.7-0.5l0.4,0.7c-0.2,0.2-0.5,0.4-0.9,0.6     C64.4,96.6,64,96.7,63.7,96.7z"></path>			</g>			<g>				<path class="st3" d="M66.8,89.5v-1.1h1.3v1.1H66.8z M66.9,96.6v-5.8H68v5.8H66.9z"></path>			</g>			<g>				<path class="st3" d="M72,96.7c-0.5,0-1-0.1-1.3-0.4c-0.4-0.2-0.7-0.6-0.9-1c-0.2-0.5-0.3-1-0.3-1.6c0-0.6,0.1-1.2,0.3-1.6     c0.2-0.5,0.5-0.8,0.9-1c0.4-0.2,0.8-0.4,1.3-0.4c0.5,0,1,0.1,1.4,0.4c0.4,0.3,0.6,0.6,0.8,1.1H74l0.1-1.3h1c0,0.2,0,0.5-0.1,0.7     c0,0.2,0,0.5,0,0.7v4.5H74v-1.3h0.1c-0.1,0.4-0.4,0.8-0.8,1.1C72.9,96.6,72.5,96.7,72,96.7z M72.2,95.8c0.5,0,0.9-0.2,1.3-0.6     c0.3-0.4,0.5-0.9,0.5-1.6c0-0.7-0.2-1.3-0.5-1.6c-0.3-0.4-0.7-0.6-1.3-0.6c-0.5,0-0.9,0.2-1.3,0.6c-0.3,0.4-0.5,0.9-0.5,1.6     c0,0.7,0.2,1.3,0.5,1.6C71.3,95.7,71.7,95.8,72.2,95.8z"></path>			</g>			<g>				<path class="st3" d="M76.8,96.6V88h1.1v8.6H76.8z"></path>			</g>			<g>				<path class="st3" d="M26.9,110.5v-8.2h3.2c0.8,0,1.5,0.2,2,0.6c0.5,0.4,0.7,0.9,0.7,1.7c0,0.5-0.1,0.9-0.3,1.2s-0.5,0.6-0.9,0.7     c-0.4,0.2-0.8,0.3-1.3,0.3l0.2-0.1h0.2c0.3,0,0.6,0.1,0.9,0.2c0.2,0.2,0.4,0.4,0.6,0.8l1.1,2.8h-0.8l-1.1-2.7     c-0.2-0.4-0.4-0.6-0.6-0.8c-0.3-0.1-0.6-0.2-1.1-0.2h-2.1v3.7C27.6,110.5,26.9,110.5,26.9,110.5z M27.6,106.3H30     c0.7,0,1.2-0.1,1.5-0.4c0.4-0.3,0.5-0.7,0.5-1.2c0-0.5-0.2-0.9-0.5-1.2c-0.4-0.3-0.8-0.4-1.5-0.4h-2.4V106.3z"></path>			</g>			<g>				<path class="st3" d="M37.1,110.6c-0.9,0-1.6-0.3-2.1-0.8c-0.5-0.5-0.8-1.3-0.8-2.2c0-0.6,0.1-1.2,0.3-1.6c0.2-0.4,0.6-0.8,1-1.1     c0.4-0.2,0.9-0.4,1.4-0.4c0.5,0,1,0.1,1.3,0.3c0.4,0.2,0.6,0.5,0.8,0.9c0.2,0.4,0.3,0.9,0.3,1.5v0.3h-4.6v-0.5H39l-0.2,0.2     c0-0.7-0.2-1.2-0.5-1.6c-0.3-0.4-0.7-0.6-1.3-0.6c-0.6,0-1.1,0.2-1.5,0.7c-0.4,0.4-0.5,1-0.5,1.7v0.1c0,0.8,0.2,1.4,0.6,1.8     c0.4,0.4,0.9,0.6,1.6,0.6c0.4,0,0.7-0.1,1-0.2c0.3-0.1,0.6-0.3,0.9-0.6l0.3,0.5c-0.2,0.3-0.6,0.5-1,0.6     C38,110.6,37.6,110.6,37.1,110.6z"></path>			</g>			<g>				<path class="st3" d="M42.9,110.6c-0.4,0-0.9-0.1-1.3-0.2c-0.4-0.1-0.7-0.3-1-0.6l0.3-0.5c0.3,0.2,0.6,0.4,0.9,0.5     c0.3,0.1,0.7,0.2,1,0.2c0.5,0,0.9-0.1,1.1-0.3c0.3-0.2,0.4-0.4,0.4-0.7c0-0.2-0.1-0.4-0.2-0.6c-0.2-0.2-0.4-0.3-0.8-0.4l-1-0.2     c-0.5-0.1-0.9-0.3-1.1-0.6c-0.2-0.3-0.4-0.6-0.4-1c0-0.3,0.1-0.6,0.3-0.9c0.2-0.3,0.4-0.5,0.7-0.6c0.3-0.2,0.7-0.2,1.1-0.2     c0.4,0,0.8,0.1,1.2,0.2s0.6,0.3,0.9,0.6l-0.3,0.5c-0.2-0.2-0.5-0.4-0.8-0.5c-0.3-0.1-0.6-0.2-0.9-0.2c-0.5,0-0.8,0.1-1.1,0.3     c-0.2,0.2-0.4,0.5-0.4,0.8c0,0.2,0.1,0.5,0.2,0.6c0.2,0.2,0.4,0.3,0.7,0.4l1,0.2c0.5,0.1,0.9,0.3,1.2,0.5     c0.3,0.2,0.4,0.6,0.4,0.9c0,0.3-0.1,0.6-0.3,0.9c-0.2,0.3-0.4,0.4-0.8,0.6C43.7,110.6,43.3,110.6,42.9,110.6z"></path>			</g>			<g>				<path class="st3" d="M46.7,113.1v-7c0-0.2,0-0.4,0-0.6c0-0.2,0-0.4-0.1-0.7h0.7l0.1,1.5h-0.1c0.1-0.5,0.4-0.9,0.8-1.1     c0.4-0.3,0.8-0.4,1.4-0.4c0.5,0,1,0.1,1.4,0.4c0.4,0.2,0.7,0.6,0.9,1c0.2,0.4,0.3,1,0.3,1.6s-0.1,1.2-0.3,1.6     c-0.2,0.4-0.5,0.8-0.9,1s-0.8,0.4-1.4,0.4c-0.5,0-1-0.1-1.4-0.4s-0.6-0.7-0.8-1.1h0.1v4L46.7,113.1L46.7,113.1z M49.3,110     c0.6,0,1.1-0.2,1.4-0.6c0.4-0.4,0.5-1,0.5-1.8c0-0.8-0.2-1.4-0.5-1.8s-0.8-0.6-1.4-0.6c-0.6,0-1.1,0.2-1.4,0.6     c-0.4,0.4-0.5,1-0.5,1.8s0.2,1.4,0.5,1.8C48.3,109.8,48.8,110,49.3,110z"></path>			</g>			<g>				<path class="st3" d="M55.9,110.6c-0.6,0-1-0.1-1.4-0.4c-0.4-0.2-0.7-0.6-0.9-1c-0.2-0.4-0.3-1-0.3-1.6c0-0.6,0.1-1.2,0.3-1.6     c0.2-0.4,0.5-0.8,0.9-1c0.4-0.2,0.9-0.4,1.4-0.4c0.5,0,1,0.1,1.4,0.4c0.4,0.2,0.7,0.6,0.9,1c0.2,0.4,0.3,1,0.3,1.6     s-0.1,1.2-0.3,1.6c-0.2,0.4-0.5,0.8-0.9,1C56.9,110.5,56.4,110.6,55.9,110.6z M55.9,110c0.6,0,1.1-0.2,1.4-0.6     c0.4-0.4,0.5-1,0.5-1.8c0-0.8-0.2-1.4-0.5-1.8c-0.4-0.4-0.8-0.6-1.4-0.6s-1.1,0.2-1.4,0.6c-0.4,0.4-0.5,1-0.5,1.8     s0.2,1.4,0.5,1.8C54.8,109.8,55.3,110,55.9,110z"></path>			</g>			<g>				<path class="st3" d="M60.1,110.5V106c0-0.2,0-0.4,0-0.6c0-0.2,0-0.4-0.1-0.7h0.7l0.1,1.3h-0.1c0.2-0.5,0.4-0.8,0.8-1.1     c0.4-0.2,0.8-0.4,1.3-0.4c0.7,0,1.2,0.2,1.6,0.6s0.5,0.9,0.5,1.7v3.7h-0.7v-3.6c0-0.6-0.1-1-0.4-1.3c-0.2-0.3-0.6-0.4-1.1-0.4     c-0.6,0-1.1,0.2-1.4,0.5c-0.4,0.4-0.5,0.8-0.5,1.4v3.3L60.1,110.5L60.1,110.5z"></path>			</g>			<g>				<path class="st3" d="M68.7,110.6c-0.4,0-0.9-0.1-1.3-0.2s-0.7-0.3-1-0.6l0.3-0.5c0.3,0.2,0.6,0.4,0.9,0.5c0.3,0.1,0.7,0.2,1,0.2     c0.5,0,0.9-0.1,1.1-0.3c0.3-0.2,0.4-0.4,0.4-0.7c0-0.2-0.1-0.4-0.2-0.6c-0.2-0.2-0.4-0.3-0.8-0.4l-1-0.2     c-0.5-0.1-0.9-0.3-1.1-0.6c-0.2-0.3-0.4-0.6-0.4-1c0-0.3,0.1-0.6,0.3-0.9c0.2-0.3,0.4-0.5,0.7-0.6c0.3-0.2,0.7-0.2,1.1-0.2     c0.4,0,0.8,0.1,1.2,0.2s0.6,0.3,0.9,0.6l-0.3,0.5c-0.2-0.2-0.5-0.4-0.8-0.5c-0.3-0.1-0.6-0.2-0.9-0.2c-0.5,0-0.8,0.1-1.1,0.3     c-0.2,0.2-0.4,0.5-0.4,0.8c0,0.2,0.1,0.5,0.2,0.6s0.4,0.3,0.7,0.4l1,0.2c0.5,0.1,0.9,0.3,1.2,0.5c0.3,0.2,0.4,0.6,0.4,0.9     c0,0.3-0.1,0.6-0.3,0.9c-0.2,0.3-0.4,0.4-0.8,0.6C69.6,110.6,69.2,110.6,68.7,110.6z"></path>			</g>			<g>				<path class="st3" d="M72.5,103.3v-0.9h0.9v0.9H72.5z M72.6,110.5v-5.8h0.7v5.8C73.3,110.5,72.6,110.5,72.6,110.5z"></path>			</g>			<g>				<path class="st3" d="M78,110.6c-0.5,0-1-0.1-1.4-0.4c-0.4-0.3-0.6-0.7-0.8-1.1h0.1v1.5h-0.7V102h0.7v4.2h-0.1     c0.1-0.5,0.4-0.9,0.8-1.1c0.4-0.3,0.8-0.4,1.4-0.4c0.5,0,1,0.1,1.4,0.4c0.4,0.2,0.7,0.6,0.9,1s0.3,1,0.3,1.6     c0,0.6-0.1,1.2-0.3,1.6c-0.2,0.4-0.5,0.8-0.9,1C79,110.5,78.5,110.6,78,110.6z M77.9,110c0.6,0,1.1-0.2,1.4-0.6     c0.4-0.4,0.5-1,0.5-1.8c0-0.8-0.2-1.4-0.5-1.8c-0.4-0.4-0.8-0.6-1.4-0.6c-0.6,0-1.1,0.2-1.4,0.6c-0.4,0.4-0.5,1-0.5,1.8     c0,0.8,0.2,1.4,0.5,1.8C76.8,109.8,77.3,110,77.9,110z"></path>			</g>			<g>				<path class="st3" d="M82,103.3v-0.9h0.9v0.9H82z M82.1,110.5v-5.8h0.7v5.8C82.8,110.5,82.1,110.5,82.1,110.5z"></path>			</g>			<g>				<path class="st3" d="M84.7,110.5V102h0.7v8.6H84.7z"></path>			</g>			<g>				<path class="st3" d="M87.3,103.3v-0.9h0.9v0.9H87.3z M87.4,110.5v-5.8h0.7v5.8C88.1,110.5,87.4,110.5,87.4,110.5z"></path>			</g>			<g>				<path class="st3" d="M91.9,110.6c-0.5,0-0.9-0.2-1.2-0.5c-0.3-0.3-0.4-0.8-0.4-1.4v-3.5h-1.2v-0.6h1.2v-1.6l0.7-0.2v1.9h1.7v0.6     H91v3.3c0,0.5,0.1,0.8,0.2,1.1s0.4,0.3,0.7,0.3c0.2,0,0.3,0,0.4,0c0.1,0,0.2-0.1,0.3-0.1v0.6c-0.1,0-0.2,0.1-0.4,0.1     C92.2,110.6,92.1,110.6,91.9,110.6z"></path>			</g>			<g>				<path class="st3" d="M93.8,113.2l-0.2-0.6c0.4-0.1,0.7-0.2,0.9-0.3c0.2-0.1,0.4-0.3,0.6-0.5c0.2-0.2,0.3-0.4,0.4-0.7l0.3-0.7     l0,0.3l-2.6-6h0.8l2.2,5.4H96l2.2-5.4H99l-2.7,6.4c-0.2,0.4-0.3,0.7-0.5,0.9c-0.2,0.2-0.4,0.4-0.6,0.6c-0.2,0.2-0.4,0.3-0.7,0.4     C94.3,113.1,94.1,113.1,93.8,113.2z"></path>			</g>		</g>	</g>	<g>		<g>			<g>				<g>					<path class="st1" d="M79.1-11.4C58.9-11.3,18.3-11.1-2-11.1l0.3-0.2c-0.5,0.7-1.3,1.1-2.1,1.2c-0.8,0-1.7-0.4-2.2-1l0.4,0.2      c-2.5,0.7-4.6,2.7-5.3,5.3L-11-6.1c0.7,0.5,1,1.3,1,2.2c0,0.8-0.5,1.6-1.2,2l0.1-0.2l-0.1,22.5L-11.3,43      C-11.4,31.8-11.5,9.2-11.6-2v-0.1c0.6-0.4,0.9-1,0.9-1.7c0-0.7-0.4-1.3-1-1.7l0.1-0.2c0.7-2.9,3.1-5.3,6.1-5.9l0.2,0.2      c0.4,0.5,0.9,0.8,1.6,0.8c0.7,0,1.3-0.4,1.7-1H-2C18.2-11.7,58.9-11.6,79.1-11.4L79.1-11.4z"></path>				</g>			</g>		</g>		<g>			<path class="st4" d="M122.5,127.3H2.5c-2.6,0-4.8-2.1-4.8-4.8V2.5c0-2.6,2.1-4.8,4.8-4.8h120c2.6,0,4.8,2.1,4.8,4.8v120    C127.3,125.1,125.1,127.3,122.5,127.3z M2.5-1.7c-2.3,0-4.1,1.9-4.1,4.1v120c0,2.3,1.9,4.1,4.1,4.1h120c2.3,0,4.1-1.9,4.1-4.1    V2.5c0-2.3-1.9-4.1-4.1-4.1C122.5-1.7,2.5-1.7,2.5-1.7z"></path>		</g>		<g>			<g>				<g>					<path class="st1" d="M45.9,136.4c20.2-0.1,60.9-0.3,81.1-0.4l-0.3,0.2c0.5-0.7,1.3-1.1,2.1-1.2c0.8,0,1.7,0.4,2.2,1l-0.4-0.2      c2.5-0.7,4.6-2.7,5.3-5.3l0.1,0.4c-0.7-0.5-1-1.3-1-2.2c0-0.8,0.5-1.6,1.2-2l-0.1,0.2l0.1-22.5l0.2-22.5      c0.1,11.2,0.2,33.8,0.3,45.1v0.1c-0.6,0.4-0.9,1-0.9,1.7c0,0.7,0.4,1.3,1,1.7l-0.1,0.2c-0.7,2.9-3.1,5.3-6.1,5.9l-0.2-0.2      c-0.4-0.5-0.9-0.8-1.6-0.8c-0.7,0-1.3,0.4-1.7,1H127C106.8,136.7,66.1,136.6,45.9,136.4L45.9,136.4z"></path>				</g>			</g>		</g>	</g></g></svg>