<svg xmlns="http://www.w3.org/2000/svg" xmlns:xlink="http://www.w3.org/1999/xlink" id="Layer_1" x="0px" y="0px" viewBox="0 0 180 180" style="enable-background:new 0 0 180 180;" xml:space="preserve"><style type="text/css">	.st0{fill:#EA4824;}	.st1{fill:#FFFFFF;}	.st2{fill:#D4BBB0;}	.st3{fill:#ED4623;}</style><g>	<g>		<g>			<circle class="st0" cx="31.2" cy="146.53" r="14.35"></circle>		</g>		<g>			<path class="st1" d="M89.97,160.55c-13.29,0-26.32-3.49-37.77-10.13l-0.72-0.46l0.13-0.86c0.13-0.79,0.2-1.65,0.2-2.57    c0-11.32-9.21-20.47-20.47-20.47c-1.25,0-2.43,0.13-3.62,0.33l-0.86,0.13l-0.46-0.72c-7.9-12.24-12.04-26.39-12.04-41    c0-41.72,33.96-75.74,75.74-75.74s75.55,34.02,75.55,75.81c0,14.61-4.15,28.76-12.04,41l-0.46,0.72l-0.86-0.13    c-1.12-0.2-2.37-0.33-3.62-0.33c-11.32,0-20.47,9.21-20.47,20.47c0,0.92,0.07,1.78,0.2,2.63l0.13,0.86l-0.72,0.46    C116.29,157.06,103.26,160.55,89.97,160.55z M54.17,148.63c10.92,6.12,23.23,9.34,35.8,9.34s24.94-3.22,35.8-9.34    c-0.07-0.66-0.07-1.38-0.07-2.11c0-12.7,10.33-23.03,23.03-23.03c1.12,0,2.17,0.07,3.22,0.2c7.3-11.65,11.19-25.07,11.19-38.89    c0-40.34-32.84-73.18-73.18-73.18S16.79,44.46,16.79,84.8c0,13.82,3.88,27.24,11.19,38.89c1.05-0.13,2.11-0.2,3.22-0.2    c12.7,0,23.03,10.33,23.03,23.03C54.23,147.25,54.23,147.98,54.17,148.63z"></path>		</g>		<g>			<path class="st0" d="M149.59,142.45v-2.83l0,0c-4.47,5.2-9.61,9.81-15.33,13.69c-0.86,0.59-1.71,1.12-2.57,1.65    c-1.18,0.72-2.37,1.45-3.55,2.11c-0.33,0.2-0.59,0.33-0.92,0.46c-0.66,0.33-1.38,0.72-2.04,1.05c0,0,0,0-0.07,0    c-9.21,4.61-19.28,7.3-29.48,8.09c-0.72,0.07-1.45,0.07-2.17,0.13c-0.39,0-0.86,0.07-1.25,0.07c-1.51,0.07-3.03,0.07-4.54,0    c-0.39,0-0.86,0-1.25-0.07c-0.72,0-1.45-0.07-2.17-0.13c-10.2-0.72-20.27-3.49-29.48-8.09c0,0,0,0-0.07,0    c-0.66-0.33-1.38-0.72-2.04-1.05l-0.92-0.46c-1.18-0.66-2.37-1.38-3.55-2.11c-0.86-0.53-1.71-1.12-2.57-1.65    c-5.73-3.88-10.86-8.49-15.33-13.69l0,0v2.83c0,0.92-0.2,1.84-0.53,2.7c0.99,1.05,2.04,2.11,3.16,3.16    c0.07,0.07,0.13,0.13,0.2,0.2c0.92,0.86,1.84,1.71,2.83,2.57c0.46,0.39,0.86,0.72,1.32,1.12c0.53,0.39,1.05,0.86,1.58,1.25    c0.07,0,0.07,0.07,0.13,0.07c0.07,0,0.07,0.07,0.13,0.07c0.53,0.39,0.99,0.79,1.51,1.18c0.07,0.07,0.13,0.07,0.2,0.13    c0.26,0.2,0.53,0.39,0.86,0.59c0.59,0.39,1.18,0.79,1.71,1.18c0.39,0.26,0.86,0.59,1.25,0.86c0.46,0.33,0.92,0.59,1.38,0.92    c0.39,0.26,0.79,0.53,1.18,0.72c0.79,0.46,1.58,0.92,2.37,1.38c0.33,0.2,0.72,0.39,1.12,0.59c0.66,0.39,1.38,0.72,2.11,1.05    c0,0,0,0,0.07,0c10.66,5.33,22.05,8.23,33.5,8.69c0.39,0,0.86,0,1.25,0.07c0.33,0,0.72,0,1.05,0c0.86,0,1.71,0,2.63,0    c0.33,0,0.72,0,1.05,0c0.39,0,0.79,0,1.25-0.07c11.38-0.46,22.84-3.29,33.43-8.62c0,0,0,0,0.07,0c0.72-0.33,1.38-0.72,2.11-1.05    c0,0,0.07,0,0.07-0.07c0.33-0.2,0.72-0.39,1.05-0.59c0.72-0.39,1.51-0.86,2.24-1.25c0.46-0.26,0.92-0.53,1.38-0.86    c0.46-0.26,0.92-0.59,1.38-0.86c0.46-0.26,0.92-0.59,1.32-0.92c4.94-3.36,9.48-7.24,13.56-11.58    C149.79,144.29,149.59,143.44,149.59,142.45z"></path>		</g>		<g>			<circle class="st0" cx="148.67" cy="146.53" r="14.35"></circle>		</g>		<g>			<g>				<path class="st2" d="M72.73,61.7c-0.26-0.07-0.46-0.13-0.72-0.13c-4.87-0.79-9.61,1.97-11.25,6.65l-8.69,25.07     c1.38-3.62,4.15-6.51,7.63-8.09l5.86-17.04C66.67,64.93,69.37,62.49,72.73,61.7L72.73,61.7z"></path>			</g>			<g>				<path class="st2" d="M60.81,96.91c0.66-3.88,3.55-6.98,7.3-7.96c-0.26-0.07-0.53-0.13-0.79-0.2c-5.4-0.92-10.46,2.7-11.38,8.09     s2.7,10.46,8.09,11.38c1.38,0.2,2.76,0.2,4.08-0.2C63.12,106.85,59.96,101.98,60.81,96.91z"></path>			</g>			<g>				<path class="st0" d="M80.42,90.33h19.08v1.91H80.42V90.33z"></path>			</g>			<g>				<path class="st0" d="M80.42,82.76h19.08v1.91H80.42V82.76z"></path>			</g>			<g>				<path class="st0" d="M80.89,70.78c5.66-3.16,12.5-3.16,18.16,0c0.46,0.26,1.05,0.13,1.32-0.39c0.26-0.46,0.13-1.05-0.39-1.32     c-6.25-3.49-13.82-3.49-20.07,0c-0.46,0.26-0.66,0.86-0.39,1.32C79.77,70.85,80.36,71.05,80.89,70.78z"></path>			</g>			<g>				<g>					<path class="st1" d="M80.36,75.65L80.36,75.65c0.53,0,0.99-0.46,0.99-0.99l0.07-8.95c0-5.59-4.54-10.07-10.13-10.07      c-4.28,0-8.09,2.76-9.54,6.78l-1.91,5.53l-8.69,25.07l0,0l-0.46,1.51c-0.13,0.46-0.26,0.99-0.33,1.45      c-1.45,8.49,4.21,16.52,12.7,17.97s16.52-4.21,17.97-12.7v-0.07c0.07-0.53,0.13-0.99,0.2-1.51l0.07-21.91      c0-0.53-0.46-0.99-0.99-0.99l0,0c-0.53,0-0.99,0.46-0.99,0.99v13.29c-4.15-7.5-13.56-10.27-21.12-6.19      c-1.05,0.59-2.04,1.32-2.96,2.11l6.38-18.49c1.45-4.21,5.73-6.78,10.13-6.05c3.95,0.66,6.78,3.75,7.57,8.23v3.95      C79.37,75.19,79.77,75.59,80.36,75.65L80.36,75.65z M65.68,84.93c7.37,0,13.36,5.86,13.62,13.16v0.86l0,0      c0,0.59-0.07,1.25-0.2,1.84c-1.18,7.44-8.16,12.5-15.6,11.32c-7.44-1.18-12.5-8.16-11.32-15.6c0-0.07,0-0.13,0.07-0.2      c0.13-0.59,0.26-1.18,0.39-1.78l0.33-0.86l0,0C55.02,88.35,60.09,84.93,65.68,84.93z M72.13,60.58      c-2.96-0.53-5.99,0.2-8.42,1.97c1.71-4.15,6.45-6.19,10.6-4.47c2.96,1.18,4.94,4.08,5.07,7.24      C77.73,62.82,75.09,61.04,72.13,60.58L72.13,60.58z"></path>				</g>				<g>					<path class="st1" d="M129.52,95.92c-0.07-0.53-0.2-0.99-0.33-1.45l-0.46-1.45l-10.53-30.6c-1.84-5.26-7.57-8.03-12.83-6.25      c-4.08,1.38-6.78,5.2-6.78,9.54l0.07,33.96c0.07,0.53,0.07,0.99,0.2,1.51c1.45,8.49,9.48,14.21,17.97,12.77      C125.24,112.44,130.97,104.41,129.52,95.92L129.52,95.92z M118.26,68.48c0,0.07,0.07,0.2,0.13,0.26l6.25,18.23      c-6.38-5.79-16.19-5.26-21.98,1.12c-0.79,0.92-1.51,1.91-2.11,2.96l0.07-19.61l0,0c0-5,4.01-9.08,9.08-9.08      C113.53,62.36,116.95,64.8,118.26,68.48L118.26,68.48z M107.27,57.62c3.75-0.66,7.5,1.45,8.88,5      c-4.87-3.62-11.78-2.63-15.46,2.3c-0.07,0.13-0.2,0.2-0.26,0.33C100.69,61.44,103.52,58.21,107.27,57.62L107.27,57.62z       M125.31,106.45c-4.34,6.12-12.9,7.57-19.02,3.22c-2.96-2.11-4.94-5.26-5.53-8.82c-0.13-0.59-0.13-1.18-0.2-1.84l0,0v-0.86l0,0      c0.26-7.5,6.51-13.42,14.08-13.16c5.46,0.2,10.33,3.62,12.31,8.75l0.33,0.86c0.2,0.59,0.33,1.18,0.39,1.78      C128.27,99.81,127.41,103.49,125.31,106.45L125.31,106.45z"></path>				</g>				<g>					<path class="st0" d="M65.22,68.02l0.39-1.05c0.2-0.53-0.07-1.05-0.59-1.25c-0.53-0.2-1.05,0.07-1.25,0.59l-0.39,1.05      c-0.2,0.53,0.07,1.05,0.59,1.25C64.5,68.74,65.03,68.48,65.22,68.02z"></path>				</g>				<g>					<path class="st0" d="M63.64,69.47c-0.53-0.2-1.05,0.07-1.25,0.59l0,0l-3.22,9.41c-0.2,0.53,0.07,1.05,0.59,1.25      c0.53,0.2,1.05-0.07,1.25-0.59l3.22-9.41C64.43,70.19,64.17,69.67,63.64,69.47z"></path>				</g>				<g>					<path class="st1" d="M67.53,87.83c-5.92-0.99-11.52,2.96-12.5,8.88s2.96,11.52,8.88,12.5c5.92,0.99,11.52-2.96,12.5-8.88l0,0      C77.4,94.41,73.38,88.82,67.53,87.83z M74.44,100c-0.66,4.34-4.47,7.44-8.75,7.44c-4.94,0-8.88-4.01-8.88-8.95      c0-0.53,0.07-0.99,0.13-1.45c0.72-4.28,4.47-7.44,8.82-7.44c0.46,0,0.99,0.07,1.45,0.13C72,90.59,75.29,95.13,74.44,100z"></path>				</g>				<g>					<path class="st1" d="M116.03,109.22c5.86-0.99,9.87-6.58,8.82-12.5c-0.99-5.86-6.58-9.87-12.5-8.82      c-5.86,0.99-9.87,6.58-8.82,12.5c0.86,5.2,5.4,9.02,10.66,9.02C114.78,109.41,115.37,109.35,116.03,109.22z M105.43,100      c-0.79-4.87,2.43-9.48,7.3-10.27c0.46-0.07,0.99-0.13,1.45-0.13c4.94,0,8.95,4.01,8.88,8.95c0,4.34-3.16,8.09-7.44,8.82      c-2.3,0.39-4.74-0.13-6.65-1.51C107.08,104.41,105.76,102.37,105.43,100L105.43,100z"></path>				</g>			</g>			<g>				<path class="st0" d="M87.2,76.58c-0.53,0-0.99,0.46-0.99,0.99s0.46,0.99,0.99,0.99l0,0h5.46c0.53,0,0.99-0.46,0.99-0.99     s-0.46-0.99-0.99-0.99H87.2z"></path>			</g>		</g>	</g></g></svg>