<svg xmlns="http://www.w3.org/2000/svg" xmlns:xlink="http://www.w3.org/1999/xlink" id="Layer_1" x="0px" y="0px" viewBox="0 0 250 250" style="enable-background:new 0 0 250 250;" xml:space="preserve"><style type="text/css">	.st0{fill:#661311;}	.st1{fill:#F07043;}	.st2{fill:#B4887C;}	.st3{fill:#FFFFFF;}	.st4{fill:none;stroke:#661311;stroke-width:6.3152;stroke-linecap:round;stroke-linejoin:round;stroke-miterlimit:10;}</style><path class="st0" d="M236.41,116.19c0,22.22-6.51,42.92-17.73,60.3c-1.87-0.36-3.8-0.53-5.76-0.53c-17.97,0-32.58,14.62-32.58,32.58 c0,1.42,0.09,2.83,0.28,4.2c-16.36,9.45-35.37,14.85-55.62,14.85c-20.27,0-39.25-5.44-55.62-14.91c0.2-1.35,0.28-2.74,0.28-4.14 c0-17.96-14.61-32.58-32.58-32.58c-1.95,0-3.88,0.17-5.74,0.52c-11.22-17.38-17.75-38.07-17.75-60.29 C13.59,54.67,63.48,4.78,125,4.78C186.53,4.78,236.41,54.67,236.41,116.19z"></path><g>	<g>		<circle class="st1" cx="37.08" cy="208.55" r="21.52"></circle>	</g>	<g>		<path class="st1" d="M214.26,202.44v-4.23v-0.04c-6.72,7.81-14.41,14.69-22.98,20.53c-1.27,0.86-2.54,1.69-3.83,2.51   c-1.75,1.09-3.51,2.14-5.29,3.12c-0.45,0.26-0.91,0.5-1.36,0.74c-1.01,0.54-2.03,1.07-3.06,1.58c-0.01,0.01-0.04,0.03-0.06,0.04   c-13.82,6.87-28.84,10.96-44.15,12.09c-1.08,0.07-2.16,0.14-3.24,0.18c-0.63,0.04-1.25,0.06-1.88,0.07   c-2.26,0.07-4.52,0.06-6.78,0c-0.63-0.03-1.25-0.05-1.88-0.07c-1.08-0.04-2.16-0.1-3.24-0.18c-15.31-1.13-30.33-5.22-44.15-12.09   c-0.03-0.03-0.05-0.04-0.06-0.04c-1.03-0.5-2.05-1.04-3.06-1.58l-1.36-0.74c-1.78-1-3.55-2.03-5.29-3.12   c-1.29-0.81-2.57-1.65-3.83-2.51c-8.57-5.83-16.27-12.71-22.98-20.53v0.04v4.23c0,1.41-0.3,2.76-0.8,4.01   c1.52,1.62,3.1,3.19,4.69,4.72c0.1,0.09,0.2,0.17,0.28,0.26c1.39,1.31,2.8,2.59,4.25,3.83c0.65,0.55,1.3,1.11,1.96,1.65   c0.76,0.64,1.54,1.27,2.32,1.88c0.06,0.05,0.12,0.1,0.18,0.15c0.06,0.05,0.12,0.1,0.18,0.14c0.76,0.6,1.52,1.19,2.31,1.76   c0.09,0.07,0.18,0.15,0.27,0.21c0.42,0.31,0.84,0.63,1.27,0.93c0.86,0.61,1.73,1.22,2.6,1.82c0.64,0.43,1.28,0.86,1.92,1.28   c0.7,0.47,1.4,0.91,2.11,1.35c0.6,0.38,1.2,0.75,1.81,1.11c1.18,0.71,2.37,1.39,3.56,2.06c0.54,0.3,1.09,0.6,1.65,0.9   c1.03,0.55,2.06,1.09,3.11,1.61c0.03,0.01,0.05,0.03,0.06,0.04c15.94,8.01,33.03,12.27,50.11,12.97c0.63,0.03,1.24,0.05,1.85,0.06   c0.54,0.03,1.07,0.04,1.6,0.04c1.3,0.04,2.6,0.04,3.91,0c0.53,0,1.06-0.01,1.6-0.04c0.61-0.01,1.23-0.04,1.85-0.06   c17.05-0.7,34.14-4.95,50.07-12.95c0.03-0.01,0.04-0.01,0.06-0.04c1.04-0.52,2.08-1.06,3.11-1.61c0.04-0.01,0.07-0.03,0.11-0.06   c0.53-0.28,1.06-0.58,1.57-0.86c1.12-0.61,2.22-1.25,3.33-1.92c0.69-0.42,1.36-0.82,2.04-1.25c0.68-0.42,1.35-0.85,2.03-1.29   c0.66-0.44,1.34-0.88,2-1.34c7.43-5.05,14.21-10.86,20.33-17.33C214.55,205.21,214.26,203.85,214.26,202.44z"></path>	</g>	<g>		<circle class="st1" cx="212.92" cy="208.55" r="21.52"></circle>	</g></g><g>	<path class="st2" d="M163.84,114.55c-1.65,0.86-2.62,2.75-4.28,3.59c-1.66,0.84-1.62,3.23-0.26,4.28c1.55,1.2,3.42,0.32,4.08-1.35  c0.29-0.72,0.98-1.6,1.39-2.36c0.51-0.95,1.03-1.9,1.14-2.98C166.01,114.63,164.68,114.11,163.84,114.55z"></path>	<path class="st2" d="M162.26,157.62c-0.78-5.97-1.74-11.92-2.59-17.88c-0.04-0.26-0.12-0.49-0.22-0.7  c0.03-0.96-0.54-1.91-1.82-1.86c-2.21,0.08-4.42,0.39-6.56,0.93c-0.2-1.76-0.38-3.53-0.54-5.29c-0.12-1.28-1.9-1.3-2.01,0  c-0.6,7.39-0.66,15.13,0.33,22.49c0.06,0.46,0.15,0.86,0.26,1.24c-0.98-2.38-1.99-3.91-4.3-5.08c1.99-0.28,3.84-2.17,3.05-4.35  c-0.36-0.99-0.86-1.84-1.47-2.58c0.37-9.42,0.34-18.86,0.49-28.29c0.03-1.79-1.6-3.55-3.45-3.45c-20.94,1.12-41.92,1.97-62.68,5.03  c-0.17-0.75-0.33-1.51-0.44-2.3c-0.13-0.94-1.5-0.77-1.74,0c-0.27,0.89-0.51,1.81-0.69,2.74c-0.18,0.04-0.34,0.11-0.47,0.2  c0.08-2.27-0.13-4.49-0.85-6.35c-0.23-0.59-1.02-0.62-1.24,0c-0.78,2.22-0.82,4.66-1.37,6.95c-0.07,0.28-0.15,0.55-0.22,0.83  c-1.3,0.18-2.41,1.12-2.25,2.83c0.05,0.51,0.14,1.15,0.18,1.79c-1.19,0.38-2.45,0.38-3.7,0.36c-0.13-0.46-0.2-1-0.39-1.36  c-0.31-0.58-1.1-0.71-1.63-0.39c-0.06-0.09-0.1-0.17-0.16-0.26c-0.8-1.07-2.61-0.49-2.25,0.95c0.49,1.96-0.34,3.99,0.57,5.89  c1.07,2.23,3.23,2.77,5.5,3c2.54,0.26,4.79-0.45,6.36-2.54c1.64-2.18,1.75-4.81,1.51-7.44c-0.04-0.44-0.16-0.83-0.34-1.17  c0.04-0.32,0.08-0.64,0.11-0.96c0.09,0.12,0.19,0.23,0.31,0.32c-0.09,2.9,0.8,5.56,3.85,6.89c6.63,2.9,14.05,4.48,20.92,6.75  c4.5,1.49,8.98,3.01,13.45,4.59c-6.42-1.63-12.85-3.25-19.35-4.43c-1.37-0.25-3.17-0.76-4.65-0.4c-3.08-1.01-6.24-2.09-9.39-2.46  c-3.73-0.43-7.55,2.44-11.1,1.3c-0.6-0.19-0.99,0.59-0.59,1.01c2.21,2.34,4.77,2.03,7.8,2.22c3.22,0.2,6.5,1.47,9.67,2.75  c-0.34,4.7-0.04,9.68,2.45,13.62c2.9,4.59,8.55,5.71,13.59,5.59c4.28-0.1,18.82-0.67,24.06-5.53l8.53,2.8  c2.98,0.97,5.05,1.41,6.47,4.28c0.64,1.28,1.08,2.45,2.08,3.52c4.11,4.44,11.16,4.51,15.48,0.46c1.34-1.26,1.2-2.84,0.36-3.97  C161.89,159.33,162.37,158.5,162.26,157.62z M87.83,122.87c-1.89-0.42-3.77-0.74-5.65-0.88c-0.1-0.2-0.17-0.41-0.26-0.61  c2.04,0.08,4.08,0.13,6.12,0.17C87.88,121.96,87.81,122.41,87.83,122.87z M138.36,138.93c0.07,0.32,0.15,0.64,0.22,0.96l-0.88-0.33  C137.96,139.37,138.17,139.16,138.36,138.93z M131.16,135.08l0.17,0.81c-0.09,0.38-0.11,0.77-0.07,1.16  c-0.42-0.16-0.84-0.33-1.26-0.49C130.49,136.22,130.89,135.72,131.16,135.08z M119.6,150.16c-1.72,0.51-3.55,0.71-5.32,0.95  c-3.75,0.5-7.58,1.24-11.37,1.26c-4.73,0.03-7.69-1.62-9.26-6.21c-0.47-1.38-0.89-2.77-1.3-4.18c0.12-0.35,0.22-0.71,0.32-1.08  c9.02,3.17,18.11,6.16,27.19,9.16C119.75,150.12,119.65,150.15,119.6,150.16z M123.26,130.06l1.52,4.53  c-1.08-0.4-2.16-0.79-3.25-1.18C122.06,132.26,122.64,131.15,123.26,130.06z M129.56,146.13c-0.04-0.08-0.06-0.16-0.1-0.25  c-0.61-1.34-2.3-1.7-3.58-1.46l-0.5,0.09c-0.21,0.04-0.4,0.11-0.58,0.19c-0.18-0.05-0.35-0.1-0.53-0.16  c0.18-0.83,0.09-1.71-0.33-2.43c2.88,1.08,5.74,2.18,8.59,3.32c3.18,1.26,6.71,2.24,9.14,4.71  C137.75,148.63,133.66,147.35,129.56,146.13z M151.73,143.26c-0.13-0.88-0.23-1.76-0.34-2.64c0.55-0.05,1.1-0.07,1.66-0.08  C152.58,141.45,152.12,142.36,151.73,143.26z"></path>	<path class="st2" d="M167.66,118.2c-0.05-1.1-1.5-1.25-1.87-0.25c-1.4,3.78-4.1,7.36-7.1,10c-2.84,2.51,1.68,7,4.14,4.14  c1.71-1.98,2.99-4.1,3.94-6.54C167.76,123.04,167.79,120.84,167.66,118.2z"></path>	<g>		<g>			<path class="st3" d="M70.56,134.16c-1.4,0-2.8-0.05-4.2-0.14c-0.88-0.06-1.89-0.18-2.69-0.9c-1.04-0.95-1.09-2.36-1.13-3.21    l-0.86-22.56c-0.02-0.45-0.05-1.38,0.62-2.07c0.55-0.56,1.27-0.65,1.66-0.7c0.85-0.11,1.81-0.3,2.8-0.5    c2.37-0.48,5.05-1.02,7.25-0.63c2.17,0.38,3.01,1.71,3.37,2.92c1.91-1.42,4.73-2.4,7.25-3.28c1.28-0.45,2.5-0.87,3.48-1.31    c3.78-1.71,7.54-3.44,11.29-5.2c15.08-7.08,30.16-14.72,44.81-22.72c0.57-0.32,1.29-0.1,1.6,0.47c0.31,0.57,0.1,1.29-0.47,1.6    c-14.69,8.01-29.81,15.68-44.94,22.78c-3.76,1.77-7.54,3.5-11.32,5.21c-1.04,0.47-2.33,0.92-3.68,1.39    c-2.6,0.91-5.54,1.93-7.06,3.31c-1.09,0.99-0.63,4.36-0.32,6.58c0.13,0.96,0.25,1.83,0.28,2.54c0.18,3.99,0.26,8.13,0.26,12.67    c0,0.64,0,2.15-1.14,2.98c-0.63,0.46-1.35,0.52-1.83,0.56C73.93,134.1,72.25,134.16,70.56,134.16z M64.01,106.97    c0.04,0.03,0.04,0.15,0.04,0.3l0.86,22.56c0.02,0.44,0.05,1.27,0.35,1.55c0.23,0.21,0.77,0.26,1.25,0.29    c2.95,0.2,5.94,0.17,8.89-0.06c0.16-0.01,0.53-0.04,0.62-0.11c0.04-0.03,0.17-0.2,0.17-1.08c0-4.5-0.08-8.61-0.26-12.57    c-0.03-0.65-0.14-1.45-0.26-2.32c-0.3-2.18-0.65-4.74-0.09-6.69c-0.16-0.18-0.26-0.4-0.29-0.65c-0.18-1.71-0.53-2.21-1.71-2.41    c-1.76-0.31-4.21,0.18-6.37,0.62c-1.05,0.21-2.06,0.42-2.97,0.53C64.21,106.94,64.1,106.95,64.01,106.97z"></path>		</g>		<g>			<path class="st3" d="M147.65,155.15c-0.16,0-0.31-0.03-0.46-0.1c-22.38-9.56-45.65-17.61-69.17-23.92    c-0.63-0.17-1-0.82-0.84-1.45c0.17-0.63,0.81-1.01,1.45-0.84c23.63,6.34,47.01,14.42,69.49,24.03c0.6,0.26,0.88,0.95,0.62,1.55    C148.55,154.88,148.11,155.15,147.65,155.15z"></path>		</g>		<g>			<path class="st3" d="M154.65,163.13c-0.44,0-0.88-0.01-1.32-0.02c-0.97-0.03-1.99-0.09-2.97-0.56c-2.76-1.32-3.19-4.64-3.26-7.38    l-1.98-83.56c-0.03-1.13-0.06-2.68,0.77-3.98l0,0c1.67-2.6,5.17-2.16,7.48-1.87l0.9,0.11c0.39,0.04,0.76,0.07,1.12,0.09    c2.36,0.18,5.03,0.38,5.19,4.38c0.28,6.97,0.24,14.07,0.21,20.94c-0.03,5.94-0.07,12.08,0.11,18.09    c0.37,12.93,1.02,26.03,1.93,38.93c0.27,3.77,0.55,7.45,1.15,11.06c0.08,0.52,0.26,1.62-0.49,2.44c-0.54,0.59-1.28,0.7-1.68,0.77    C159.44,162.95,157.04,163.13,154.65,163.13z M147.88,68.91c-0.41,0.64-0.42,1.54-0.39,2.65l1.98,83.56    c0.07,3.07,0.66,4.71,1.91,5.31c0.56,0.27,1.28,0.31,2.02,0.33c2.67,0.09,5.38-0.09,8.03-0.51c0.13-0.02,0.23-0.04,0.3-0.06    c-0.04-0.03-0.05-0.17-0.09-0.43c-0.61-3.71-0.9-7.45-1.17-11.28c-0.91-12.93-1.56-26.06-1.94-39.02    c-0.17-6.05-0.14-12.22-0.11-18.17c0.04-6.84,0.07-13.92-0.2-20.84c-0.07-1.84-0.54-1.94-3.01-2.12    c-0.38-0.03-0.77-0.06-1.18-0.1l-0.95-0.11C151.15,67.86,148.74,67.56,147.88,68.91L147.88,68.91z"></path>		</g>		<g>			<path class="st3" d="M160.69,125.37c-0.46,0-0.9-0.28-1.09-0.73c-0.25-0.6,0.04-1.29,0.64-1.54c3.56-1.48,6.07-5.35,5.97-9.21    c-0.1-3.86-2.81-7.59-6.45-8.88c-0.62-0.22-0.94-0.89-0.72-1.51c0.22-0.62,0.89-0.93,1.51-0.72c4.59,1.63,7.89,6.17,8.02,11.04    c0.13,4.87-2.92,9.58-7.43,11.45C161,125.34,160.85,125.37,160.69,125.37z"></path>		</g>		<g>			<path class="st3" d="M173.47,99.57c-0.36,0-0.71-0.16-0.95-0.47c-0.39-0.52-0.29-1.26,0.23-1.66l8.63-6.49    c0.52-0.39,1.26-0.28,1.66,0.23c0.39,0.52,0.29,1.26-0.23,1.66l-8.63,6.49C173.97,99.5,173.72,99.57,173.47,99.57z"></path>		</g>		<g>			<path class="st3" d="M186.24,115.66c-0.01,0-0.03,0-0.04,0c-3.69-0.12-7.45-0.14-11.17-0.06c-0.01,0-0.02,0-0.03,0    c-0.64,0-1.17-0.51-1.18-1.16c-0.01-0.65,0.5-1.19,1.16-1.21c3.76-0.08,7.56-0.06,11.3,0.06c0.65,0.02,1.16,0.57,1.14,1.22    C187.4,115.15,186.87,115.66,186.24,115.66z"></path>		</g>		<g>			<path class="st3" d="M187.14,134.67c-0.13,0-0.26-0.02-0.38-0.07c-4.05-1.38-8.19-2.67-12.32-3.83c-0.63-0.18-1-0.83-0.82-1.46    c0.18-0.63,0.82-1,1.46-0.82c4.17,1.17,8.36,2.47,12.45,3.87c0.62,0.21,0.95,0.88,0.74,1.5    C188.09,134.36,187.63,134.67,187.14,134.67z"></path>		</g>		<g>			<path class="st3" d="M132.19,136.68c-0.15,0-0.3-0.03-0.45-0.09c-12.49-5.07-25.48-9.19-38.61-12.23    c-0.64-0.15-1.03-0.78-0.88-1.42s0.78-1.03,1.42-0.88c13.25,3.07,26.36,7.22,38.97,12.34c0.61,0.25,0.9,0.93,0.65,1.54    C133.1,136.4,132.66,136.68,132.19,136.68z"></path>		</g>		<g>			<path class="st3" d="M115.64,153.82c-0.68,0-1.37-0.02-2.09-0.05c-5.45-0.2-10.97-0.53-16.42-0.97    c-1.37-0.11-3.06-0.25-4.57-1.01c-2.72-1.38-4.42-4.56-4.67-8.73c-0.07-1.14-0.05-2.3-0.03-3.45c0.04-1.92,0.07-3.74-0.33-5.48    c-0.14-0.64,0.25-1.27,0.89-1.41c0.64-0.14,1.27,0.25,1.41,0.89c0.46,2.03,0.42,4.07,0.38,6.05c-0.02,1.09-0.04,2.17,0.02,3.26    c0.09,1.57,0.61,5.36,3.38,6.76c1.09,0.55,2.47,0.66,3.69,0.77c5.41,0.44,10.9,0.77,16.31,0.97c2.59,0.09,4.92,0.11,6.93-0.74    c1.79-0.76,3.5-2.57,3.31-4.57c-0.06-0.65,0.41-1.23,1.06-1.29c0.65-0.06,1.22,0.41,1.29,1.06c0.32,3.29-2.24,5.92-4.74,6.98    C119.64,153.64,117.71,153.82,115.64,153.82z"></path>		</g>	</g></g></svg>